<?xml version="1.0" encoding="utf-8"?>
<!-- Generator: Adobe Illustrator 23.0.3, SVG Export Plug-In . SVG Version: 6.00 Build 0)  -->
<svg version="1.1" xmlns="http://www.w3.org/2000/svg" xmlns:xlink="http://www.w3.org/1999/xlink" x="0px" y="0px"
	 viewBox="0 0 200 200" style="enable-background:new 0 0 200 200;" xml:space="preserve">
<style type="text/css">
	.st0{fill:#FFFFFF;stroke:#231F20;stroke-width:1.1161;stroke-miterlimit:10;}
	.st1{opacity:0.1;fill-rule:evenodd;clip-rule:evenodd;fill:#93D500;}
	.st2{fill-rule:evenodd;clip-rule:evenodd;fill:#93D500;}
	.st3{fill:#93D500;}
	.st4{fill-rule:evenodd;clip-rule:evenodd;fill:#93D500;stroke:#FFFFFF;stroke-width:3.1284;stroke-miterlimit:22.9256;}
	.st5{fill-rule:evenodd;clip-rule:evenodd;fill:#9E9E9F;stroke:#FFFFFF;stroke-width:3.1284;stroke-miterlimit:22.9256;}
	.st6{fill-rule:evenodd;clip-rule:evenodd;fill:#FFFFFF;}
	.st7{fill-rule:evenodd;clip-rule:evenodd;fill:#717171;}
	.st8{fill:#FFFFFF;}
	.st9{fill-rule:evenodd;clip-rule:evenodd;fill:#FAFBFC;}
	.st10{fill:#35CC62;}
	.st11{fill:#3FB401;}
	.st12{fill:#0ECCCC;}
	.st13{fill:#FEB54E;}
	.st14{fill:#FB6557;}
	.st15{fill:#333333;}
	.st16{fill:#666666;}
	.st17{fill:#999999;}
	.st18{fill:#262626;}
	.st19{fill:#E6E6E6;}
	.st20{fill:#FAFAFA;}
	.st21{fill:#FAFBFC;}
	.st22{fill-rule:evenodd;clip-rule:evenodd;fill:#E6E6E6;}
	.st23{fill-rule:evenodd;clip-rule:evenodd;fill:#FB6557;}
	.st24{fill:#E0F3FC;}
	.st25{fill:#CDEBF7;}
	.st26{opacity:0.1;fill:#231F20;}
	.st27{fill:#231F20;stroke:#231F20;stroke-width:0.3;stroke-miterlimit:10;}
	.st28{fill-rule:evenodd;clip-rule:evenodd;fill:#93D500;stroke:#FFFFFF;stroke-width:1.8468;stroke-miterlimit:22.9256;}
	.st29{fill-rule:evenodd;clip-rule:evenodd;fill:#9E9E9F;stroke:#FFFFFF;stroke-width:1.8468;stroke-miterlimit:22.9256;}
	.st30{fill:#2F4D7C;}
	.st31{fill:#EAE8DF;}
	.st32{clip-path:url(#SVGID_2_);fill:#F9CD98;}
	.st33{fill-rule:evenodd;clip-rule:evenodd;fill:#93D500;stroke:#FFFFFF;stroke-width:2.5022;stroke-miterlimit:22.9256;}
	.st34{fill-rule:evenodd;clip-rule:evenodd;fill:#9E9E9F;stroke:#FFFFFF;stroke-width:2.5022;stroke-miterlimit:22.9256;}
	.st35{clip-path:url(#SVGID_4_);fill:#F9CD98;}
	.st36{clip-path:url(#SVGID_6_);fill:#F9CD98;}
	.st37{clip-path:url(#SVGID_8_);fill:#F9CD98;}
	.st38{clip-path:url(#SVGID_10_);fill:#F9CD98;}
	.st39{clip-path:url(#SVGID_12_);fill:#F9CD98;}
	.st40{clip-path:url(#SVGID_14_);}
	.st41{fill:#FFFFFF;stroke:#FFFFFF;stroke-width:0.3526;stroke-miterlimit:10;}
	.st42{opacity:0.2;}
	.st43{fill-rule:evenodd;clip-rule:evenodd;fill:#93D500;stroke:#FFFFFF;stroke-width:2.0284;stroke-miterlimit:22.9256;}
	.st44{fill-rule:evenodd;clip-rule:evenodd;fill:#9E9E9F;stroke:#FFFFFF;stroke-width:2.0284;stroke-miterlimit:22.9256;}
	.st45{clip-path:url(#SVGID_16_);fill:#F9CD98;}
</style>
<g id="Layer_1">
	<rect x="810" y="232.8" class="st0" width="250" height="250"/>
	<rect x="1099.8" y="232.8" class="st0" width="250" height="250"/>
	<rect x="1389.6" y="232.8" class="st0" width="250" height="250"/>
	<rect x="810" y="519" class="st0" width="250" height="250"/>
	<rect x="1099.8" y="519" class="st0" width="250" height="250"/>
	<rect x="1389.6" y="519" class="st0" width="250" height="250"/>
	<rect x="810" y="805.2" class="st0" width="250" height="250"/>
	<rect x="1099.8" y="805.2" class="st0" width="250" height="250"/>
	<rect x="1389.6" y="805.2" class="st0" width="250" height="250"/>
</g>
<g id="Layer_2">
	<path class="st1" d="M935,482.8L935,482.8c-69,0-125-56-125-125v0c0-69,56-125,125-125h0c69,0,125,56,125,125v0
		C1060,426.8,1004,482.8,935,482.8z"/>
	<path class="st2" d="M836.3,283h-0.5c-13.7,0-24.8-11.1-24.8-24.8v-0.5c0-13.7,11.1-24.8,24.8-24.8h0.5c13.7,0,24.8,11.1,24.8,24.8
		v0.5C861,271.9,849.9,283,836.3,283z"/>
	<text transform="matrix(1 0 0 1 868.4324 217.9307)" style="font-family:'ArialUnicodeMS'; font-size:23.1896px;">กดปุ่ม REFUN</text>
	<text transform="matrix(1 0 0 1 1163.5435 267.1157)" style="font-family:'ArialUnicodeMS'; font-size:23.1896px;">เลือกรายการ</text>
	<g>
		<path class="st3" d="M856.2,386.2c-2.9,0-5.7-1.2-7.8-3.3c-2.1-2.1-3.2-4.9-3.2-7.9l-0.1-40.5c0-3,1.1-5.8,3.2-7.9
			c2.1-2.1,4.9-3.3,7.8-3.3l163-0.6c0,0,0,0,0,0c6.1,0,11,5,11,11.1l0.1,40.5c0,3-1.1,5.8-3.2,7.9c-2.1,2.1-4.9,3.3-7.8,3.3
			L856.2,386.2C856.2,386.2,856.2,386.2,856.2,386.2z M856.1,329.3c-1.4,0-2.6,0.6-3.6,1.5c-1,1-1.5,2.3-1.5,3.8l0.1,40.5
			c0,1.4,0.6,2.7,1.5,3.7c1,1,2.3,1.5,3.6,1.5c0,0,0,0,0,0l163-0.6c1.4,0,2.6-0.6,3.6-1.5c1-1,1.5-2.3,1.5-3.8l-0.1-40.5
			c0-2.9-2.3-5.3-5.2-5.3c0,0,0,0,0,0L856.1,329.3z"/>
		<path class="st4" d="M857.1,327.1l161-0.6c4.4,0,8,3.6,8,8l0.1,39.3c0,4.4-3.6,8-8,8l-161,0.6c-4.4,0-8-3.6-8-8l-0.1-39.3
			C849.1,330.7,852.7,327.1,857.1,327.1z"/>
		<path class="st5" d="M857.1,327.1l47.3-0.2l0.2,55.3l-47.3,0.2c-4.4,0-8-3.6-8-8l-0.1-39.3C849.1,330.7,852.7,327.1,857.1,327.1z"
			/>
		<polygon class="st6" points="897.7,358.9 890.3,371.8 865.5,371.8 858,359 870.4,337.5 885.2,337.4 		"/>
		<polygon class="st7" points="884.5,339 866.6,370.2 859.9,358.6 871.1,339.1 		"/>
		<polygon class="st7" points="875.1,358.5 895.8,358.5 889.1,370.1 868.4,370.2 		"/>
		<polygon class="st2" points="885.4,340.6 894.9,356.9 881.5,357 878.7,352.3 		"/>
		<g>
			<path class="st8" d="M930.8,350.5c0,1.6-0.5,3.1-1.4,4.3c-0.9,1.2-2.2,2.1-3.8,2.6l5.6,9.6l-4.1,0l-5.3-9.1l-4.1,0l0,9.1l-3.8,0
				l-0.1-23.8l8.7,0c1.3,0,2.5,0.2,3.5,0.6c1,0.4,1.9,0.9,2.6,1.5c0.7,0.7,1.2,1.4,1.6,2.3S930.8,349.5,930.8,350.5z M927,350.5
				c0-1.2-0.4-2.1-1.1-2.8c-0.7-0.7-1.8-1.1-3.3-1l-4.9,0l0,7.9l4.8,0c1.4,0,2.5-0.4,3.3-1.1C926.6,352.7,927,351.7,927,350.5z"/>
			<path class="st8" d="M934.9,343.2l15-0.1l0,3.3l-11.2,0l0,6.6l10.5,0l0,3.3l-10.5,0l0,7.2l11.5,0l0,3.3L935,367L934.9,343.2z"/>
			<path class="st8" d="M954.3,343.2l14.7-0.1l0,3.3l-11,0l0,6.8l10.3,0l0,3.4l-10.3,0l0,10.2l-3.7,0L954.3,343.2z"/>
			<path class="st8" d="M982.2,367.2c-1.4,0-2.7-0.2-3.9-0.6c-1.2-0.4-2.1-1-2.9-1.8c-0.8-0.8-1.4-1.9-1.9-3.1
				c-0.4-1.3-0.7-2.7-0.7-4.4l0-14.2l3.8,0l0,14.2c0,2.2,0.5,3.9,1.5,5c1,1.1,2.3,1.6,4.1,1.6c1.7,0,3.1-0.6,4-1.7
				c1-1.1,1.4-2.8,1.4-5l0-14.2l3.8,0l0,14.2c0,1.7-0.2,3.2-0.6,4.4c-0.4,1.3-1,2.3-1.8,3.1c-0.8,0.8-1.8,1.4-2.9,1.8
				C984.9,367,983.6,367.2,982.2,367.2z"/>
			<path class="st8" d="M1011.2,343l3.8,0l0.1,23.8l-3.9,0l-8.8-14.3c-0.5-0.8-0.9-1.6-1.3-2.5c-0.4-0.9-0.7-1.7-1-2.4l-0.1,0
				c0.2,0.9,0.3,1.8,0.4,2.8c0.1,1,0.1,1.9,0.1,2.8l0,13.7l-3.8,0l-0.1-23.8l4.1,0l8.7,14.4c0.5,0.8,0.9,1.6,1.3,2.5
				c0.4,0.9,0.8,1.7,1,2.4l0.1,0c-0.1-0.9-0.3-1.8-0.3-2.8s-0.1-1.9-0.1-2.8L1011.2,343z"/>
		</g>
	</g>
	<path class="st9" d="M1322,438.5h-193c-8.1,0-14.6-6.5-14.6-14.6v-113c0-8.1,6.5-14.6,14.6-14.6h193c8.1,0,14.6,6.5,14.6,14.6v113
		C1336.6,432,1330.1,438.5,1322,438.5z"/>
	<circle class="st10" cx="352.3" cy="289.7" r="40.6"/>
	<circle class="st11" cx="443.6" cy="289.7" r="40.6"/>
	<circle class="st3" cx="534.8" cy="289.7" r="40.6"/>
	<circle class="st12" cx="352.3" cy="381.7" r="40.6"/>
	<circle class="st13" cx="443.6" cy="381.7" r="40.6"/>
	<circle class="st14" cx="534.8" cy="381.7" r="40.6"/>
	<circle class="st15" cx="352.3" cy="473.7" r="40.6"/>
	<circle class="st16" cx="443.6" cy="473.7" r="40.6"/>
	<circle class="st17" cx="534.8" cy="473.7" r="40.6"/>
	<circle class="st18" cx="352.3" cy="569.1" r="40.6"/>
	<circle class="st19" cx="443.6" cy="569.1" r="40.6"/>
	<circle class="st20" cx="534.8" cy="569.1" r="40.6"/>
	<circle class="st21" cx="626" cy="569.1" r="40.6"/>
	<path class="st2" d="M1213,347.9h-76.8c-3.2,0-5.7-2.6-5.7-5.7v-14.8c0-3.2,2.6-5.7,5.7-5.7h76.8c3.2,0,5.7,2.6,5.7,5.7v14.8
		C1218.7,345.3,1216.1,347.9,1213,347.9z"/>
	<path class="st2" d="M1313.4,347.9h-76.8c-3.2,0-5.7-2.6-5.7-5.7v-14.8c0-3.2,2.6-5.7,5.7-5.7h76.8c3.2,0,5.7,2.6,5.7,5.7v14.8
		C1319.1,345.3,1316.6,347.9,1313.4,347.9z"/>
	<path class="st2" d="M1213,383.1h-76.8c-3.2,0-5.7-2.6-5.7-5.7v-14.8c0-3.2,2.6-5.7,5.7-5.7h76.8c3.2,0,5.7,2.6,5.7,5.7v14.8
		C1218.7,380.6,1216.1,383.1,1213,383.1z"/>
	<path class="st2" d="M1313.4,383.1h-76.8c-3.2,0-5.7-2.6-5.7-5.7v-14.8c0-3.2,2.6-5.7,5.7-5.7h76.8c3.2,0,5.7,2.6,5.7,5.7v14.8
		C1319.1,380.6,1316.6,383.1,1313.4,383.1z"/>
	<path class="st2" d="M1213,418.4h-76.8c-3.2,0-5.7-2.6-5.7-5.7v-14.8c0-3.2,2.6-5.7,5.7-5.7h76.8c3.2,0,5.7,2.6,5.7,5.7v14.8
		C1218.7,415.8,1216.1,418.4,1213,418.4z"/>
	<text transform="matrix(1 0 0 1 1142.5068 337.8538)" style="font-family:'Kanit-Regular'; font-size:8.8771px;">สะสมแต้มสมาชิก</text>
	<text transform="matrix(1 0 0 1 1257.1735 337.8538)" style="font-family:'Kanit-Regular'; font-size:8.8771px;">บริจาค</text>
	
		<image style="overflow:visible;" width="1440" height="900" xlink:href="../../620720 แจ้งปรับการใช้งาน.jpg"  transform="matrix(1 0 0 1 498.7037 1223.1063)">
	</image>
	<rect x="1477.2" y="295.9" class="st22" width="74.7" height="142.2"/>
	<g>
		<path class="st23" d="M1489.4,433.8L1489.4,433.8c-1.7,0-3.1-1.4-3.1-3.1V304.1c0-1.7,1.4-3.1,3.1-3.1l0,0c1.7,0,3.1,1.4,3.1,3.1
			v126.5C1492.5,432.4,1491.1,433.8,1489.4,433.8z"/>
		<path class="st23" d="M1539.7,433.8L1539.7,433.8c-1.7,0-3.1-1.4-3.1-3.1V304.1c0-1.7,1.4-3.1,3.1-3.1l0,0c1.7,0,3.1,1.4,3.1,3.1
			v126.5C1542.9,432.4,1541.5,433.8,1539.7,433.8z"/>
	</g>
	<rect x="1828.5" y="540.4" class="st8" width="13.1" height="7.4"/>
	<g>
		<rect x="1829.7" y="541.1" width="0.2" height="6"/>
	</g>
	<g>
		<rect x="1830.4" y="541.1" width="0.1" height="6"/>
	</g>
	<g>
		<rect x="1830.7" y="541.1" width="0.1" height="6"/>
	</g>
	<g>
		<rect x="1829.4" y="541.1" width="0.1" height="6"/>
	</g>
	<g>
		<rect x="1829.1" y="541.1" width="0.1" height="6"/>
	</g>
	<g>
		<rect x="1831.2" y="541.1" width="0.1" height="6"/>
	</g>
	<g>
		<rect x="1832.7" y="541.1" width="0.2" height="6"/>
	</g>
	<g>
		<rect x="1831.9" y="541.1" width="0.4" height="6"/>
	</g>
	<g>
		<rect x="1835.9" y="541.1" width="0.2" height="6"/>
	</g>
	<g>
		<rect x="1838.2" y="541.1" width="0.4" height="6"/>
	</g>
	<g>
		<rect x="1834.2" y="541.1" width="0.1" height="6"/>
	</g>
	<g>
		<rect x="1835.2" y="541.1" width="0.1" height="6"/>
	</g>
	<g>
		<rect x="1834.7" y="541.1" width="0.1" height="6"/>
	</g>
	<g>
		<rect x="1837" y="541.1" width="0.1" height="6"/>
	</g>
	<g>
		<rect x="1837.6" y="541.1" width="0.1" height="6"/>
	</g>
	<g>
		<rect x="1838.8" y="541.1" width="0.1" height="6"/>
	</g>
	<g>
		<rect x="1839" y="541.1" width="0.1" height="6"/>
	</g>
	<g>
		<rect x="1836.6" y="541.1" width="0.1" height="6"/>
	</g>
	<g>
		<rect x="1835.4" y="541.1" width="0.2" height="6"/>
	</g>
	<g>
		<rect x="1833.7" y="541.1" width="0.1" height="6"/>
	</g>
	<g>
		<rect x="1833.2" y="541.1" width="0.1" height="6"/>
	</g>
	<g>
		<rect x="1840" y="541.1" width="0.1" height="6"/>
	</g>
	<g>
		<rect x="1840.5" y="541.1" width="0.1" height="6"/>
	</g>
	<g>
		<rect x="1840.9" y="541.1" width="0" height="6"/>
	</g>
	<g>
		<rect x="1839.3" y="541.1" width="0.2" height="6"/>
	</g>
	<g>
		<rect x="1816.4" y="514" width="0.7" height="7.2"/>
	</g>
	<g>
		<rect x="1817.9" y="514" width="0.3" height="9.1"/>
	</g>
	<g>
		<rect x="1819.1" y="514" width="0.3" height="9.1"/>
	</g>
	<g>
		<rect x="1839.8" y="514" width="0.2" height="9.1"/>
	</g>
	<g>
		<rect x="1840.7" y="514" width="0.2" height="9.1"/>
	</g>
	<g>
		<rect x="1822.9" y="514" width="0.7" height="7.2"/>
	</g>
	<g>
		<rect x="1821.1" y="514" width="1.2" height="7.2"/>
	</g>
	<g>
		<rect x="1830" y="514" width="0.7" height="7.2"/>
	</g>
	<g>
		<rect x="1835" y="514" width="1.2" height="7.2"/>
	</g>
	<g>
		<rect x="1826.3" y="514" width="0.3" height="7.2"/>
	</g>
	<g>
		<rect x="1828.5" y="514" width="0.2" height="7.2"/>
	</g>
	<g>
		<rect x="1827.4" y="514" width="0.2" height="7.2"/>
	</g>
	<g>
		<rect x="1832.6" y="514" width="0.2" height="7.2"/>
	</g>
	<g>
		<rect x="1833.7" y="514" width="0.3" height="7.2"/>
	</g>
	<g>
		<rect x="1831.5" y="514" width="0.2" height="7.2"/>
	</g>
	<g>
		<rect x="1825.2" y="514" width="0.3" height="7.2"/>
	</g>
	<g>
		<rect x="1824.2" y="514" width="0.5" height="7.2"/>
	</g>
	<g>
		<rect x="1839" y="514" width="0.3" height="7.2"/>
	</g>
	<g>
		<rect x="1837.5" y="514" width="0.7" height="7.2"/>
	</g>
	<g>
		<path d="M1820.5,521.5h1.1v0.1l-0.8,0.8h-0.2l0.8-0.8L1820.5,521.5L1820.5,521.5z"/>
		<path d="M1823.2,522.3h0.4v0.1h-0.9v-0.1h0.4v-0.7l-0.3,0.1v-0.1l0.4-0.1h0.1V522.3z"/>
		<path d="M1825,522.3L1825,522.3l-1.1,0.1v-0.1l0.6-0.3c0.1,0,0.1-0.1,0.2-0.1c0,0,0.1-0.1,0.1-0.1c0,0,0-0.1-0.1-0.1
			c-0.1,0-0.1,0-0.2,0c-0.2,0-0.3,0-0.5,0.1l-0.1-0.1c0.1,0,0.1-0.1,0.2-0.1c0.1,0,0.2,0,0.3,0c0.2,0,0.3,0,0.4,0.1
			c0.1,0,0.1,0.1,0.1,0.2c0,0.1,0,0.1-0.1,0.1c0,0-0.1,0.1-0.2,0.2l-0.5,0.3H1825z"/>
		<path d="M1826.3,522c0.1,0,0.1,0.1,0.1,0.1c0,0.1,0,0.1-0.1,0.2c-0.1,0-0.2,0.1-0.4,0.1c-0.1,0-0.2,0-0.3,0c-0.1,0-0.2,0-0.3-0.1
			l0.1-0.1c0.2,0.1,0.3,0.1,0.5,0.1c0.1,0,0.2,0,0.3,0c0.1,0,0.1-0.1,0.1-0.1c0-0.1-0.1-0.2-0.4-0.2h-0.2v-0.1h0.2
			c0.1,0,0.2,0,0.3,0c0.1,0,0.1-0.1,0.1-0.1c0,0,0-0.1-0.1-0.1c-0.1,0-0.1,0-0.2,0c-0.2,0-0.3,0-0.5,0.1l-0.1-0.1
			c0.1,0,0.2-0.1,0.2-0.1c0.1,0,0.2,0,0.3,0c0.2,0,0.3,0,0.4,0.1c0.1,0,0.1,0.1,0.1,0.2c0,0.1,0,0.1-0.1,0.1c0,0-0.1,0.1-0.2,0.1
			C1826.2,521.9,1826.3,521.9,1826.3,522z"/>
		<path d="M1827.9,522.1L1827.9,522.1l-0.3,0.1v0.2h-0.2v-0.2h-0.8v-0.1l0.8-0.6h0.2v0.6H1827.9z M1826.9,522.1h0.6v-0.4
			L1826.9,522.1z"/>
		<path d="M1829.5,522.2c-0.1-0.1-0.1-0.2-0.1-0.3c0-0.1,0-0.3,0.1-0.3c0.1-0.1,0.2-0.1,0.4-0.1s0.3,0,0.4,0.1
			c0.1,0.1,0.1,0.2,0.1,0.3c0,0.1,0,0.3-0.1,0.3c-0.1,0.1-0.2,0.1-0.4,0.1S1829.6,522.3,1829.5,522.2z M1830.2,522.2
			c0.1-0.1,0.1-0.2,0.1-0.3c0-0.1,0-0.2-0.1-0.3c-0.1-0.1-0.2-0.1-0.3-0.1c-0.1,0-0.2,0-0.3,0.1s-0.1,0.1-0.1,0.3
			c0,0.1,0,0.2,0.1,0.3s0.2,0.1,0.3,0.1S1830.2,522.2,1830.2,522.2z"/>
		<path d="M1831.8,522c0.1,0,0.1,0.1,0.1,0.1c0,0.1,0,0.1-0.1,0.2c-0.1,0-0.2,0.1-0.4,0.1c-0.1,0-0.2,0-0.3,0c-0.1,0-0.2,0-0.3-0.1
			l0.1-0.1c0.2,0.1,0.3,0.1,0.5,0.1c0.1,0,0.2,0,0.3,0c0.1,0,0.1-0.1,0.1-0.1c0-0.1-0.1-0.2-0.4-0.2h-0.2v-0.1h0.2
			c0.1,0,0.2,0,0.3,0c0.1,0,0.1-0.1,0.1-0.1c0,0,0-0.1-0.1-0.1c-0.1,0-0.1,0-0.2,0c-0.2,0-0.3,0-0.5,0.1l-0.1-0.1
			c0.1,0,0.2-0.1,0.2-0.1c0.1,0,0.2,0,0.3,0c0.2,0,0.3,0,0.4,0.1c0.1,0,0.1,0.1,0.1,0.2c0,0.1,0,0.1-0.1,0.1c0,0-0.1,0.1-0.2,0.1
			C1831.7,521.9,1831.8,521.9,1831.8,522z"/>
		<path d="M1832.2,521.5h1.1v0.1l-0.8,0.8h-0.2l0.8-0.8L1832.2,521.5L1832.2,521.5z"/>
		<path d="M1834.6,522c0.1,0,0.1,0.1,0.1,0.1c0,0.1,0,0.1-0.1,0.2c-0.1,0-0.2,0.1-0.4,0.1c-0.1,0-0.2,0-0.3,0c-0.1,0-0.2,0-0.3-0.1
			l0.1-0.1c0.2,0.1,0.3,0.1,0.5,0.1c0.1,0,0.2,0,0.3,0s0.1-0.1,0.1-0.1c0-0.1-0.1-0.2-0.4-0.2h-0.2v-0.1h0.2c0.1,0,0.2,0,0.3,0
			c0.1,0,0.1-0.1,0.1-0.1c0,0,0-0.1-0.1-0.1c-0.1,0-0.1,0-0.2,0c-0.2,0-0.3,0-0.5,0.1l-0.1-0.1c0.1,0,0.2-0.1,0.2-0.1
			c0.1,0,0.2,0,0.3,0c0.2,0,0.3,0,0.4,0.1c0.1,0,0.1,0.1,0.1,0.2c0,0.1,0,0.1-0.1,0.1c0,0-0.1,0.1-0.2,0.1
			C1834.5,521.9,1834.6,521.9,1834.6,522z"/>
		<path d="M1836.2,522.1L1836.2,522.1l-0.3,0.1v0.2h-0.2v-0.2h-0.8v-0.1l0.8-0.6h0.2v0.6H1836.2z M1835.2,522.1h0.6v-0.4
			L1835.2,522.1z"/>
		<path d="M1837.5,522c0.1,0,0.1,0.1,0.1,0.1c0,0.1-0.1,0.1-0.2,0.2c-0.1,0-0.3,0.1-0.4,0.1s-0.3,0-0.4-0.1c-0.1,0-0.2-0.1-0.2-0.2
			c0-0.1,0-0.1,0.1-0.1c0.1,0,0.1-0.1,0.3-0.1c-0.1,0-0.2,0-0.2-0.1c-0.1,0-0.1-0.1-0.1-0.1c0,0,0-0.1,0.1-0.1c0,0,0.1-0.1,0.2-0.1
			c0.1,0,0.2,0,0.3,0s0.2,0,0.3,0c0.1,0,0.2,0,0.2,0.1c0,0,0.1,0.1,0.1,0.1c0,0,0,0.1-0.1,0.1c-0.1,0-0.1,0.1-0.2,0.1
			C1837.4,521.9,1837.4,521.9,1837.5,522z M1837.3,522.2c0.1,0,0.1-0.1,0.1-0.1c0,0,0-0.1-0.1-0.1c-0.1,0-0.2,0-0.3-0.1
			c-0.1,0-0.2,0-0.3,0.1c-0.1,0-0.1,0.1-0.1,0.1c0,0.1,0,0.1,0.1,0.1c0.1,0,0.2,0,0.3,0S1837.2,522.3,1837.3,522.2z M1836.7,521.8
			c0.1,0,0.2,0,0.3,0.1c0.1,0,0.2,0,0.3-0.1s0.1-0.1,0.1-0.1c0,0,0-0.1-0.1-0.1c-0.1,0-0.2,0-0.3,0c-0.1,0-0.2,0-0.3,0
			c-0.1,0-0.1,0.1-0.1,0.1C1836.6,521.7,1836.7,521.8,1836.7,521.8z"/>
		<path d="M1839,522.3L1839,522.3l-1.1,0.1v-0.1l0.6-0.3c0.1,0,0.1-0.1,0.2-0.1c0,0,0.1-0.1,0.1-0.1c0,0,0-0.1-0.1-0.1
			c-0.1,0-0.1,0-0.2,0c-0.2,0-0.3,0-0.5,0.1l-0.1-0.1c0.1,0,0.1-0.1,0.2-0.1c0.1,0,0.2,0,0.3,0c0.2,0,0.3,0,0.4,0.1
			c0.1,0,0.1,0.1,0.1,0.2c0,0.1,0,0.1-0.1,0.1c0,0-0.1,0.1-0.2,0.2l-0.5,0.3H1839z"/>
	</g>
	<g>
		<path d="M1817,521.6c0.1,0.1,0.2,0.2,0.2,0.3c0,0.1-0.1,0.3-0.2,0.3c-0.1,0.1-0.3,0.1-0.5,0.1c-0.1,0-0.2,0-0.3,0
			c-0.1,0-0.2,0-0.2-0.1l0.1-0.1c0.1,0,0.2,0.1,0.2,0.1c0.1,0,0.1,0,0.2,0c0.1,0,0.3,0,0.3-0.1c0.1-0.1,0.1-0.2,0.1-0.3v0
			c0,0-0.1,0.1-0.2,0.1c-0.1,0-0.2,0-0.3,0c-0.1,0-0.2,0-0.3,0c-0.1,0-0.1-0.1-0.2-0.1c0,0-0.1-0.1-0.1-0.1c0-0.1,0-0.1,0.1-0.1
			c0,0,0.1-0.1,0.2-0.1s0.2,0,0.3,0C1816.7,521.5,1816.9,521.5,1817,521.6z M1816.8,521.9c0.1,0,0.1-0.1,0.1-0.1
			c0-0.1,0-0.1-0.1-0.1c-0.1,0-0.2-0.1-0.3-0.1c-0.1,0-0.2,0-0.3,0.1c-0.1,0-0.1,0.1-0.1,0.1c0,0.1,0,0.1,0.1,0.1
			c0.1,0,0.2,0.1,0.3,0.1C1816.7,521.9,1816.7,521.9,1816.8,521.9z"/>
	</g>
	
		<image style="overflow:visible;" width="116" height="76" xlink:href="C6335B75.jpg"  transform="matrix(1 0 0 1 2008.3655 542.3704)">
	</image>
	<path id="XMLID_4706_" class="st24" d="M1514.6,256.4c0,0-19.8,0-21.5,0s-5.6,3-6,21.1c-0.4,18.1,5.6,49.5,5.6,61.5
		s-5.6,22.1-5.6,30.8c0,3,0,38.5,0,41.1c0,2.6,1.7,11.6,5.6,18.1c3.9,6.5,13.3,15.1,13.3,15.1v4.3h8.6h8.6v-4.3
		c0,0,9.5-8.6,13.3-15.1c3.9-6.5,5.6-15.5,5.6-18.1c0-2.6,0-38.1,0-41.1c0-8.6-5.6-18.7-5.6-30.8s6-43.5,5.6-61.5
		c-0.4-18.1-4.3-21.1-6-21.1C1534.4,256.4,1514.6,256.4,1514.6,256.4z"/>
	<path id="XMLID_4705_" class="st25" d="M1514.6,256.4c0,0-19.8,0-21.5,0s-5.6,3-6,21.1c-0.4,18.1,5.6,49.5,5.6,61.5
		s-5.6,22.1-5.6,30.8c0,3,0,38.5,0,41.1c0,2.6,1.7,11.6,5.6,18.1c3.9,6.5,13.3,15.1,13.3,15.1v4.3h8.6V256.4z"/>
	<path id="XMLID_4704_" class="st3" d="M1507.4,448.1h14.3c1.9,0,3.4,1.5,3.4,3.4v4.3c0,1.9-1.5,3.4-3.4,3.4h-14.3
		c-1.9,0-3.4-1.5-3.4-3.4v-4.3C1504,449.6,1505.5,448.1,1507.4,448.1z"/>
	<path id="XMLID_4703_" class="st26" d="M1514.6,448.1h-7.8c-1.5,0-2.7,1-2.7,2.2v6.6c0,1.2,1.2,2.2,2.7,2.2h7.8V448.1z"/>
	<rect id="XMLID_4702_" x="1487" y="373.7" class="st3" width="55.1" height="37.3"/>
	<rect id="XMLID_4701_" x="1487" y="373.7" class="st26" width="27.5" height="37.3"/>
	<g>
		<polygon class="st27" points="1498.8,381.8 1506.2,381.8 1506.2,381 1498,381 1498,389.4 1498.8,389.4 		"/>
		<polygon class="st27" points="1498.8,401.5 1498.8,394.4 1498,394.4 1498,402.3 1506.2,402.3 1506.2,401.5 		"/>
		<polygon class="st27" points="1530.3,401.5 1522.8,401.5 1522.8,402.3 1531.1,402.3 1531.1,394.4 1530.3,394.4 		"/>
		<polygon class="st27" points="1530.3,381.8 1530.3,389.4 1531.1,389.4 1531.1,381 1522.8,381 1522.8,381.8 		"/>
		<rect x="1501.9" y="384.1" class="st27" width="0.8" height="15.7"/>
		<rect x="1504.7" y="384.1" class="st27" width="0.8" height="15.7"/>
		<rect x="1507.4" y="384.1" class="st27" width="0.8" height="15.7"/>
		<rect x="1510.1" y="384.1" class="st27" width="0.8" height="15.7"/>
		<rect x="1512.8" y="384.1" class="st27" width="0.8" height="15.7"/>
		<rect x="1515.5" y="384.1" class="st27" width="0.8" height="15.7"/>
		<rect x="1518.3" y="384.1" class="st27" width="0.8" height="15.7"/>
		<rect x="1521" y="384.1" class="st27" width="0.8" height="15.7"/>
		<rect x="1523.7" y="384.1" class="st27" width="0.8" height="15.7"/>
		<rect x="1526.4" y="384.1" class="st27" width="0.8" height="15.7"/>
	</g>
	<path class="st9" d="M1031.5,710.3h-193c-8.1,0-14.6-6.5-14.6-14.6v-113c0-8.1,6.5-14.6,14.6-14.6h193c8.1,0,14.6,6.5,14.6,14.6
		v113C1046.1,703.8,1039.6,710.3,1031.5,710.3z"/>
	<text transform="matrix(1 0 0 1 880.5726 587.6565)" style="font-family:'Kanit-Regular'; font-size:20.8875px;">คะแนนสะสม</text>
	<text transform="matrix(1 0 0 1 891.7211 649.5008)" style="font-family:'Kanit-Regular'; font-size:66.2389px;">150</text>
	<g>
		<path class="st3" d="M852,694c-1.7,0-3.4-0.7-4.6-1.9c-1.2-1.2-1.9-2.9-1.9-4.6l-0.1-23.9c0-1.8,0.7-3.4,1.9-4.7
			c1.2-1.3,2.9-2,4.6-2l166.1-0.3c0,0,0,0,0,0c3.6,0,6.5,2.9,6.5,6.6l0.1,23.9c0,1.8-0.7,3.4-1.9,4.7c-1.2,1.3-2.9,2-4.6,2L852,694
			C852,694,852,694,852,694z M851.9,660.4c-0.8,0-1.6,0.3-2.1,0.9c-0.6,0.6-0.9,1.4-0.9,2.2l0.1,23.9c0,0.8,0.3,1.6,0.9,2.2
			c0.6,0.6,1.3,0.9,2.1,0.9c0,0,0,0,0,0l166.1-0.3c0.8,0,1.6-0.3,2.1-0.9c0.6-0.6,0.9-1.4,0.9-2.2l-0.1-23.9c0-1.7-1.4-3.1-3-3.1
			c0,0,0,0,0,0L851.9,660.4z"/>
		<path class="st28" d="M852.5,659.1l164.9-0.3c2.6,0,4.7,2.1,4.7,4.7l0.1,23.2c0,2.6-2.1,4.7-4.7,4.7l-164.9,0.3
			c-2.6,0-4.7-2.1-4.7-4.7l-0.1-23.2C847.8,661.3,849.9,659.1,852.5,659.1z"/>
		<path class="st29" d="M852.5,659.1l27.9-0.1l0.1,32.7l-27.9,0.1c-2.6,0-4.7-2.1-4.7-4.7l-0.1-23.2
			C847.8,661.3,849.9,659.1,852.5,659.1z"/>
		<polygon class="st6" points="876.5,677.9 872.1,685.5 857.5,685.5 853.1,677.9 860.4,665.2 869.1,665.2 		"/>
		<polygon class="st7" points="868.7,666.2 858.2,684.6 854.2,677.7 860.8,666.2 		"/>
		<polygon class="st7" points="863.2,677.7 875.4,677.6 871.4,684.5 859.2,684.6 		"/>
		<polygon class="st2" points="869.2,667.1 874.9,676.7 866.9,676.7 865.3,674 		"/>
		<text transform="matrix(1 0 0 1 909.1191 681.09)" style="font-family:'Kanit-Regular'; font-size:20.8875px;">สะสมแต้ม</text>
	</g>
	<path class="st30" d="M1300,633.8h-150.4c-1.4,0-2.7-0.5-3.7-1.4c-1.1-1-1.8-2.5-1.8-4.1v0c0-0.9,0.2-1.8,0.6-2.6
		c0.9-1.7,2.8-2.9,4.9-2.9H1300c2.1,0,3.9,1.2,4.9,2.9c0.4,0.8,0.6,1.6,0.6,2.6v0c0,1.6-0.7,3.1-1.8,4.1
		C1302.7,633.3,1301.4,633.8,1300,633.8z"/>
	<path class="st15" d="M1300,633.8h-150.4c-1.4,0-2.7-0.5-3.7-1.4c-1.1-1-1.8-2.5-1.8-4.1v0c0-0.9,0.2-1.8,0.6-2.6
		c0.9-1.7,2.8-2.9,4.9-2.9H1300c2.1,0,3.9,1.2,4.9,2.9c0.4,0.8,0.6,1.6,0.6,2.6v0c0,1.6-0.7,3.1-1.8,4.1
		C1302.7,633.3,1301.4,633.8,1300,633.8z"/>
	<path class="st3" d="M1300,635.6h-150.4c-1.8,0-3.5-0.7-4.9-1.9c-1.5-1.4-2.4-3.4-2.4-5.4c0-1.2,0.3-2.4,0.8-3.4
		c1.3-2.4,3.7-3.9,6.4-3.9H1300c2.7,0,5.2,1.5,6.4,3.9c0.6,1,0.8,2.2,0.8,3.4c0,2.1-0.9,4.1-2.4,5.4
		C1303.5,634.9,1301.8,635.6,1300,635.6z M1149.6,624.6c-1.4,0-2.6,0.8-3.3,2c-0.3,0.5-0.4,1.1-0.4,1.7c0,1.1,0.5,2.1,1.2,2.8
		c0.7,0.6,1.6,0.9,2.5,0.9H1300c0.9,0,1.8-0.3,2.5-0.9c0.8-0.7,1.2-1.7,1.2-2.8c0-0.6-0.1-1.2-0.4-1.7c-0.6-1.2-1.9-2-3.3-2H1149.6z
		"/>
	<polygon class="st17" points="1163.1,647.1 1166.8,643.5 1170.4,647.1 1174,643.5 1177.7,647.1 1181.3,643.5 1185,647.1 
		1188.6,643.5 1192.2,647.1 1195.9,643.5 1199.5,647.1 1203.1,643.5 1206.8,647.1 1210.4,643.5 1214.1,647.1 1217.7,643.5 
		1221.3,647.1 1225,643.5 1228.6,647.1 1232.2,643.5 1235.9,647.1 1239.5,643.5 1243.2,647.1 1246.8,643.5 1250.4,647.1 
		1254.1,643.5 1257.7,647.1 1261.3,643.5 1265,647.1 1268.6,643.5 1272.3,647.1 1275.9,643.5 1279.5,647.1 1283.1,643.6 
		1283.1,624.6 1159.6,624.6 1159.6,643.6 	"/>
	<polygon class="st8" points="1166.6,647.1 1170.2,643.5 1173.9,647.1 1177.5,643.5 1181.1,647.1 1184.8,643.5 1188.4,647.1 
		1192,643.5 1195.7,647.1 1199.3,643.5 1203,647.1 1206.6,643.5 1210.2,647.1 1213.9,643.5 1217.5,647.1 1221.1,643.5 1224.8,647.1 
		1228.4,643.5 1232.1,647.1 1235.7,643.5 1239.3,647.1 1243,643.5 1246.6,647.1 1250.2,643.5 1253.9,647.1 1257.5,643.5 
		1261.2,647.1 1264.8,643.5 1268.4,647.1 1272.1,643.5 1275.7,647.1 1279.3,643.5 1283,647.1 1286.5,643.6 1286.5,624.6 
		1163.1,624.6 1163.1,643.6 	"/>
	<rect x="1163.1" y="624.6" class="st31" width="123.5" height="4.7"/>
	<polygon class="st17" points="1279.5,654.9 1275.9,651.1 1272.3,654.9 1268.6,651.1 1265,654.9 1261.3,651.1 1257.7,654.9 
		1254.1,651.1 1250.4,654.9 1246.8,651.1 1243.2,654.9 1239.5,651.1 1235.9,654.9 1232.2,651.1 1228.6,654.9 1225,651.1 
		1221.3,654.9 1217.7,651.1 1214.1,654.9 1210.4,651.1 1206.8,654.9 1203.1,651.1 1199.5,654.9 1195.9,651.1 1192.2,654.9 
		1188.6,651.1 1185,654.9 1181.3,651.1 1177.7,654.9 1174,651.1 1170.4,654.9 1166.8,651.1 1163.1,654.9 1159.6,651 1159.6,721.8 
		1163.1,725.3 1166.8,721.7 1170.4,725.3 1174,721.7 1177.7,725.3 1181.3,721.7 1185,725.3 1188.6,721.7 1192.2,725.3 1195.9,721.7 
		1199.5,725.3 1203.1,721.7 1206.8,725.3 1210.4,721.7 1214.1,725.3 1217.7,721.7 1221.3,725.3 1225,721.7 1228.6,725.3 
		1232.2,721.7 1235.9,725.3 1239.5,721.7 1243.2,725.3 1246.8,721.7 1250.4,725.3 1254.1,721.7 1257.7,725.3 1261.3,721.7 
		1265,725.3 1268.6,721.7 1272.3,725.3 1275.9,721.7 1279.5,725.3 1283.1,721.8 1283.1,651 	"/>
	<polygon class="st8" points="1283,654.9 1279.3,651.1 1275.7,654.9 1272.1,651.1 1268.4,654.9 1264.8,651.1 1261.2,654.9 
		1257.5,651.1 1253.9,654.9 1250.2,651.1 1246.6,654.9 1243,651.1 1239.3,654.9 1235.7,651.1 1232.1,654.9 1228.4,651.1 
		1224.8,654.9 1221.1,651.1 1217.5,654.9 1213.9,651.1 1210.2,654.9 1206.6,651.1 1203,654.9 1199.3,651.1 1195.7,654.9 1192,651.1 
		1188.4,654.9 1184.8,651.1 1181.1,654.9 1177.5,651.1 1173.9,654.9 1170.2,651.1 1166.6,654.9 1163.1,651 1163.1,721.8 
		1166.6,725.3 1170.2,721.7 1173.9,725.3 1177.5,721.7 1181.1,725.3 1184.8,721.7 1188.4,725.3 1192,721.7 1195.7,725.3 
		1199.3,721.7 1203,725.3 1206.6,721.7 1210.2,725.3 1213.9,721.7 1217.5,725.3 1221.1,721.7 1224.8,725.3 1228.4,721.7 
		1232.1,725.3 1235.7,721.7 1239.3,725.3 1243,721.7 1246.6,725.3 1250.2,721.7 1253.9,725.3 1257.5,721.7 1261.2,725.3 
		1264.8,721.7 1268.4,725.3 1272.1,721.7 1275.7,725.3 1279.3,721.7 1283,725.3 1286.5,721.8 1286.5,651 	"/>
	<path class="st17" d="M1300.5,592.2h-153.2c-2.8,0-5,2.2-5,5v16.3h163.2v-16.3C1305.5,594.5,1303.2,592.2,1300.5,592.2z"/>
	<text transform="matrix(1 0 0 1 1180.1484 607.1113)"><tspan x="0" y="0" class="st8" style="font-family:'Kanit-Regular'; font-size:12px;">ใบเสร็จ</tspan><tspan x="35.5" y="0" class="st8" style="font-family:'Montserrat-Bold'; font-size:12px;"> </tspan><tspan x="39" y="0" class="st8" style="font-family:'Maledpan-Regular'; font-size:12px;">(RECEIPT)</tspan></text>
	<text transform="matrix(1 0 0 1 825.7353 271.0916)" class="st8" style="font-family:'ProductSans-Bold'; font-size:37.8609px;">1</text>
	<path class="st2" d="M1125.5,283h-0.5c-13.7,0-24.8-11.1-24.8-24.8v-0.5c0-13.7,11.1-24.8,24.8-24.8h0.5
		c13.7,0,24.8,11.1,24.8,24.8v0.5C1150.3,271.9,1139.2,283,1125.5,283z"/>
	<text transform="matrix(1 0 0 1 1114.9976 271.0916)" class="st8" style="font-family:'ProductSans-Bold'; font-size:37.8609px;">2</text>
	<g>
		<defs>
			<path id="SVGID_1_" d="M934.9,482.8L934.9,482.8c-69,0-125-56-125-125v0c0-69,56-125,125-125h0c69,0,125,56,125,125v0
				C1059.9,426.8,1003.9,482.8,934.9,482.8z"/>
		</defs>
		<clipPath id="SVGID_2_">
			<use xlink:href="#SVGID_1_"  style="overflow:visible;"/>
		</clipPath>
		<path class="st32" d="M979.3,385.7c-2.2,0.8-3.4,3.3-5.7,3.3c-2.4,0-5.1-0.1-7.2,0.9c-2,0.9-2.4,2.4-4.6,2.3
			c-2.3-0.1-7.6,1.4-9.7,2.3c-2.5-6.7-3.4-11.8-7.4-17.8c-2.9-4.2-5.7-7.1-11.1-5.1c-6.5,2.5-5,9.1-3,14.8
			c3.6,10.5,7.7,20.9,11.5,31.3c-2.4,0.8-7.9,2.5-6.8,5.5c0.9,2.4,1.8,4.9,2.7,7.3c1.8,4.8,3.7,9.5,5.3,14.4
			c2.1,5.7,5.6,7.8,11.9,9.8c2.2,0.7,4.8,1.2,6.8,2.3c1.7,3.2,2.7,6.8,3.6,10.3c1.4,5.3,2.9,11.7,7.7,15c3.8,2.6,8.6,2.5,13,2
			c9.1-1.1,16.6-6.6,21.1-13c3.5-4.9,0.4-10.9-2-16c-2.2-4.9-5.7-11.7-4.4-17.3c0.5-1.9,3-4.6,3.6-6.5c1-3.3,0-5.2-1.2-8.3
			c-2.1-5.7-3.9-11.5-5.9-17.3C994.7,397.3,992.3,381,979.3,385.7"/>
	</g>
	<path class="st9" d="M330.7,200L330.7,200c-55.2,0-100-44.8-100-100V100c0-55.2,44.8-100,100-100l0,0c55.2,0,100,44.8,100,100v0.1
		C430.7,155.2,385.9,200,330.7,200z"/>
	<g>
		<path class="st3" d="M265.6,125.4c-2.3,0-4.6-0.9-6.2-2.6c-1.7-1.7-2.6-3.9-2.6-6.3l-0.1-32.4c0-2.4,0.9-4.6,2.6-6.3
			c1.7-1.7,3.9-2.6,6.2-2.7l130.3-0.5c0,0,0,0,0,0c4.9,0,8.8,4,8.8,8.9l0.1,32.4c0,2.4-0.9,4.6-2.6,6.3c-1.7,1.7-3.9,2.6-6.2,2.7
			L265.6,125.4C265.6,125.4,265.6,125.4,265.6,125.4z M265.4,79.8c-1.1,0-2.1,0.4-2.9,1.2c-0.8,0.8-1.2,1.9-1.2,3l0.1,32.4
			c0,1.1,0.4,2.2,1.2,3c0.8,0.8,1.8,1.2,2.9,1.2c0,0,0,0,0,0l130.3-0.5c1.1,0,2.1-0.4,2.9-1.2c0.8-0.8,1.2-1.9,1.2-3l-0.1-32.4
			c0-2.3-1.9-4.2-4.1-4.2c0,0,0,0,0,0L265.4,79.8z"/>
		<path class="st33" d="M266.2,78.1l128.7-0.4c3.5,0,6.4,2.9,6.4,6.4l0.1,31.5c0,3.5-2.9,6.4-6.4,6.4l-128.7,0.4
			c-3.5,0-6.4-2.9-6.4-6.4l-0.1-31.5C259.9,81,262.7,78.1,266.2,78.1z"/>
		<path class="st34" d="M266.2,78.1l37.9-0.1l0.2,44.3l-37.9,0.1c-3.5,0-6.4-2.9-6.4-6.4l-0.1-31.5C259.9,81,262.7,78.1,266.2,78.1z
			"/>
		<polygon class="st6" points="298.7,103.5 292.8,113.8 273,113.9 267,103.6 276.9,86.4 288.7,86.3 		"/>
		<polygon class="st7" points="288.2,87.6 273.9,112.6 268.5,103.3 277.4,87.7 		"/>
		<polygon class="st7" points="280.7,103.2 297.2,103.2 291.9,112.5 275.3,112.6 		"/>
		<polygon class="st2" points="288.9,88.9 296.5,101.9 285.8,102 283.6,98.2 		"/>
		<g>
			<path class="st8" d="M325.2,96.8c0,1.3-0.4,2.5-1.1,3.4c-0.7,1-1.8,1.7-3,2.1l4.5,7.7l-3.3,0l-4.3-7.3l-3.3,0l0,7.3l-3,0l-0.1-19
				l7,0c1,0,2,0.1,2.8,0.4c0.8,0.3,1.5,0.7,2.1,1.2c0.6,0.5,1,1.1,1.3,1.8C325.1,95.2,325.2,96,325.2,96.8z M322.2,96.8
				c0-0.9-0.3-1.7-0.9-2.3c-0.6-0.6-1.5-0.8-2.6-0.8l-3.9,0l0,6.3l3.8,0c1.1,0,2-0.3,2.6-0.9C321.9,98.6,322.2,97.8,322.2,96.8z"/>
			<path class="st8" d="M328.5,91l12,0l0,2.7l-9,0l0,5.2l8.4,0l0,2.6l-8.4,0l0,5.8l9.2,0l0,2.7l-12.1,0L328.5,91z"/>
			<path class="st8" d="M344,90.9l11.8,0l0,2.7l-8.8,0l0,5.5l8.2,0l0,2.7l-8.2,0l0,8.1l-3,0L344,90.9z"/>
			<path class="st8" d="M366.3,110.2c-1.1,0-2.2-0.2-3.1-0.5c-0.9-0.3-1.7-0.8-2.3-1.5c-0.6-0.7-1.1-1.5-1.5-2.5
				c-0.4-1-0.5-2.2-0.5-3.5l0-11.3l3,0l0,11.4c0,1.8,0.4,3.1,1.2,4c0.8,0.9,1.9,1.3,3.2,1.3c1.4,0,2.5-0.5,3.2-1.3
				c0.8-0.9,1.1-2.2,1.1-4l0-11.4l3,0l0,11.3c0,1.4-0.2,2.5-0.5,3.5c-0.3,1-0.8,1.8-1.5,2.5c-0.6,0.7-1.4,1.2-2.3,1.5
				C368.5,110,367.4,110.1,366.3,110.2z"/>
			<path class="st8" d="M389.5,90.8l3,0l0.1,19l-3.1,0l-7.1-11.5c-0.4-0.6-0.8-1.3-1.1-2c-0.3-0.7-0.6-1.4-0.8-1.9l-0.1,0
				c0.1,0.7,0.2,1.5,0.3,2.3c0.1,0.8,0.1,1.5,0.1,2.2l0,11l-3,0l-0.1-19l3.3,0l6.9,11.5c0.4,0.6,0.7,1.3,1.1,2
				c0.3,0.7,0.6,1.4,0.8,2l0.1,0c-0.1-0.7-0.2-1.5-0.3-2.3s-0.1-1.6-0.1-2.3L389.5,90.8z"/>
		</g>
	</g>
	<g>
		<defs>
			<path id="SVGID_3_" d="M330.6,200L330.6,200c-55.2,0-100-44.8-100-100V100c0-55.2,44.8-100,100-100l0,0c55.2,0,100,44.8,100,100
				v0.1C430.6,155.2,385.8,200,330.6,200z"/>
		</defs>
		<clipPath id="SVGID_4_">
			<use xlink:href="#SVGID_3_"  style="overflow:visible;"/>
		</clipPath>
		<path class="st35" d="M366.1,122.4c-1.7,0.6-2.7,2.6-4.5,2.7c-1.9,0-4-0.1-5.8,0.7c-1.6,0.7-1.9,1.9-3.7,1.8
			c-1.8-0.1-6.1,1.1-7.8,1.8c-2-5.4-2.7-9.5-5.9-14.2c-2.3-3.4-4.6-5.7-8.8-4c-5.2,2-4,7.3-2.4,11.8c2.9,8.4,6.2,16.7,9.2,25
			c-1.9,0.7-6.4,2-5.5,4.4c0.7,2,1.4,3.9,2.2,5.9c1.4,3.8,2.9,7.6,4.2,11.5c1.7,4.6,4.5,6.2,9.5,7.8c1.8,0.6,3.8,1,5.4,1.9
			c1.4,2.6,2.1,5.4,2.9,8.2c1.2,4.2,2.3,9.3,6.2,12c3,2.1,6.9,2,10.4,1.6c7.3-0.9,13.2-5.3,16.9-10.4c2.8-3.9,0.3-8.7-1.6-12.8
			c-1.8-3.9-4.6-9.4-3.5-13.9c0.4-1.6,2.4-3.6,2.9-5.2c0.8-2.7,0-4.1-0.9-6.6c-1.6-4.6-3.1-9.2-4.7-13.8
			C378.5,131.6,376.5,118.5,366.1,122.4"/>
	</g>
	<path class="st9" d="M100,200L100,200c-55.2,0-100-44.8-100-100V100C0.1,44.8,44.8,0,100,0l0,0c55.2,0,100,44.8,100,100v0.1
		C200,155.2,155.2,200,100,200z"/>
	<path class="st9" d="M-125.3,200L-125.3,200c-55.2,0-100-44.8-100-100V100c0-55.2,44.8-100,100-100l0,0c55.2,0,100,44.8,100,100
		v0.1C-25.3,155.2-70.1,200-125.3,200z"/>
	<g>
		<defs>
			<path id="SVGID_5_" d="M-318.7,320.6L-318.7,320.6c-55.2,0-100-44.8-100-100v-0.1c0-55.2,44.8-100,100-100h0
				c55.2,0,100,44.8,100,100v0.1C-218.7,275.9-263.5,320.6-318.7,320.6z"/>
		</defs>
		<clipPath id="SVGID_6_">
			<use xlink:href="#SVGID_5_"  style="overflow:visible;"/>
		</clipPath>
		<path class="st36" d="M-283.2,243c-1.7,0.6-2.7,2.6-4.5,2.7c-1.9,0-4-0.1-5.8,0.7c-1.6,0.7-1.9,1.9-3.7,1.8
			c-1.8-0.1-6.1,1.1-7.8,1.8c-2-5.4-2.7-9.5-5.9-14.2c-2.3-3.4-4.6-5.7-8.8-4c-5.2,2-4,7.3-2.4,11.8c2.9,8.4,6.2,16.7,9.2,25
			c-1.9,0.7-6.4,2-5.5,4.4c0.7,2,1.4,3.9,2.2,5.9c1.4,3.8,2.9,7.6,4.2,11.5c1.7,4.6,4.5,6.2,9.5,7.8c1.8,0.6,3.8,1,5.4,1.9
			c1.4,2.6,2.1,5.4,2.9,8.2c1.2,4.2,2.3,9.3,6.2,12c3,2.1,6.9,2,10.4,1.6c7.3-0.9,13.2-5.3,16.9-10.4c2.8-3.9,0.3-8.7-1.6-12.8
			c-1.8-3.9-4.6-9.4-3.5-13.9c0.4-1.6,2.4-3.6,2.9-5.2c0.8-2.7,0-4.1-0.9-6.6c-1.6-4.6-3.1-9.2-4.7-13.8
			C-270.9,252.2-272.8,239.2-283.2,243"/>
	</g>
	<path class="st9" d="M558.7-22.7L558.7-22.7c-55.2,0-100-44.8-100-100v-0.1c0-55.2,44.8-100,100-100h0c55.2,0,100,44.8,100,100v0.1
		C658.7-67.4,613.9-22.7,558.7-22.7z"/>
	<path class="st2" d="M478.9-182.5h-0.4c-10.9,0-19.8-8.9-19.8-19.8v-0.4c0-10.9,8.9-19.8,19.8-19.8h0.4c10.9,0,19.8,8.9,19.8,19.8
		v0.4C498.7-191.4,489.9-182.5,478.9-182.5z"/>
	<g>
		<path class="st3" d="M493.6-97.3c-2.3,0-4.6-0.9-6.2-2.6c-1.7-1.7-2.6-3.9-2.6-6.3l-0.1-32.4c0-2.4,0.9-4.6,2.6-6.3
			c1.7-1.7,3.9-2.6,6.2-2.7l130.3-0.5c0,0,0,0,0,0c4.9,0,8.8,4,8.8,8.9l0.1,32.4c0,2.4-0.9,4.6-2.6,6.3c-1.7,1.7-3.9,2.6-6.2,2.7
			L493.6-97.3C493.6-97.3,493.6-97.3,493.6-97.3z M493.4-142.9c-1.1,0-2.1,0.4-2.9,1.2c-0.8,0.8-1.2,1.9-1.2,3l0.1,32.4
			c0,1.1,0.4,2.2,1.2,3c0.8,0.8,1.8,1.2,2.9,1.2c0,0,0,0,0,0l130.3-0.5c1.1,0,2.1-0.4,2.9-1.2c0.8-0.8,1.2-1.9,1.2-3l-0.1-32.4
			c0-2.3-1.9-4.2-4.1-4.2c0,0,0,0,0,0L493.4-142.9z"/>
		<path class="st33" d="M494.2-144.6l128.7-0.4c3.5,0,6.4,2.9,6.4,6.4l0.1,31.5c0,3.5-2.9,6.4-6.4,6.4l-128.7,0.4
			c-3.5,0-6.4-2.9-6.4-6.4l-0.1-31.5C487.9-141.7,490.7-144.6,494.2-144.6z"/>
		<path class="st34" d="M494.2-144.6l37.9-0.1l0.2,44.3l-37.9,0.1c-3.5,0-6.4-2.9-6.4-6.4l-0.1-31.5
			C487.9-141.7,490.7-144.6,494.2-144.6z"/>
		<polygon class="st6" points="526.7,-119.2 520.8,-108.9 501,-108.8 495,-119.1 504.9,-136.3 516.7,-136.3 		"/>
		<polygon class="st7" points="516.2,-135 501.9,-110.1 496.5,-119.4 505.4,-135 		"/>
		<polygon class="st7" points="508.7,-119.4 525.2,-119.5 519.9,-110.2 503.3,-110.1 		"/>
		<polygon class="st2" points="516.9,-133.8 524.5,-120.7 513.8,-120.7 511.6,-124.5 		"/>
		<g>
			<path class="st8" d="M553.2-125.9c0,1.3-0.4,2.5-1.1,3.4c-0.7,1-1.8,1.7-3,2.1l4.5,7.7l-3.3,0l-4.3-7.3l-3.3,0l0,7.3l-3,0
				l-0.1-19l7,0c1,0,2,0.1,2.8,0.4c0.8,0.3,1.5,0.7,2.1,1.2c0.6,0.5,1,1.1,1.3,1.8S553.2-126.7,553.2-125.9z M550.2-125.9
				c0-0.9-0.3-1.7-0.9-2.3c-0.6-0.6-1.5-0.8-2.6-0.8l-3.9,0l0,6.3l3.8,0c1.1,0,2-0.3,2.6-0.9C549.9-124.1,550.2-124.9,550.2-125.9z"
				/>
			<path class="st8" d="M556.5-131.7l12,0l0,2.7l-9,0l0,5.2l8.4,0l0,2.6l-8.4,0l0,5.8l9.2,0l0,2.7l-12.1,0L556.5-131.7z"/>
			<path class="st8" d="M572-131.7l11.8,0l0,2.7l-8.8,0l0,5.5l8.2,0l0,2.7l-8.2,0l0,8.1l-3,0L572-131.7z"/>
			<path class="st8" d="M594.3-112.5c-1.1,0-2.2-0.2-3.1-0.5c-0.9-0.3-1.7-0.8-2.3-1.5c-0.6-0.7-1.1-1.5-1.5-2.5
				c-0.4-1-0.5-2.2-0.5-3.5l0-11.3l3,0l0,11.4c0,1.8,0.4,3.1,1.2,4c0.8,0.9,1.9,1.3,3.2,1.3c1.4,0,2.5-0.5,3.2-1.3
				c0.8-0.9,1.1-2.2,1.1-4l0-11.4l3,0l0,11.3c0,1.4-0.2,2.5-0.5,3.5c-0.3,1-0.8,1.8-1.5,2.5c-0.6,0.7-1.4,1.2-2.3,1.5
				C596.5-112.7,595.4-112.5,594.3-112.5z"/>
			<path class="st8" d="M617.5-131.9l3,0l0.1,19l-3.1,0l-7.1-11.5c-0.4-0.6-0.8-1.3-1.1-2c-0.3-0.7-0.6-1.4-0.8-1.9l-0.1,0
				c0.1,0.7,0.2,1.5,0.3,2.3c0.1,0.8,0.1,1.5,0.1,2.2l0,11l-3,0l-0.1-19l3.3,0l6.9,11.5c0.4,0.6,0.7,1.3,1.1,2
				c0.3,0.7,0.6,1.4,0.8,2l0.1,0c-0.1-0.7-0.2-1.5-0.3-2.3s-0.1-1.6-0.1-2.3L617.5-131.9z"/>
		</g>
	</g>
	<g>
		<path class="st8" d="M476.8-192v-16.1l-3.7,1.5l-1.5-3.4l6.1-2.8h3v20.7H476.8z"/>
	</g>
	<g>
		<defs>
			<path id="SVGID_7_" d="M558.6-22.7L558.6-22.7c-55.2,0-100-44.8-100-100v-0.1c0-55.2,44.8-100,100-100h0c55.2,0,100,44.8,100,100
				v0.1C658.6-67.4,613.8-22.7,558.6-22.7z"/>
		</defs>
		<clipPath id="SVGID_8_">
			<use xlink:href="#SVGID_7_"  style="overflow:visible;"/>
		</clipPath>
		<path class="st37" d="M594.1-100.3c-1.7,0.6-2.7,2.6-4.5,2.7c-1.9,0-4-0.1-5.8,0.7c-1.6,0.7-1.9,1.9-3.7,1.8
			c-1.8-0.1-6.1,1.1-7.8,1.8c-2-5.4-2.7-9.5-5.9-14.2c-2.3-3.4-4.6-5.7-8.8-4c-5.2,2-4,7.3-2.4,11.8c2.9,8.4,6.2,16.7,9.2,25
			c-1.9,0.7-6.4,2-5.5,4.4c0.7,2,1.4,3.9,2.2,5.9c1.4,3.8,2.9,7.6,4.2,11.5c1.7,4.6,4.5,6.2,9.5,7.8c1.8,0.6,3.8,1,5.4,1.9
			c1.4,2.6,2.1,5.4,2.9,8.2c1.2,4.2,2.3,9.3,6.2,12c3,2.1,6.9,2,10.4,1.6c7.3-0.9,13.2-5.3,16.9-10.4c2.8-3.9,0.3-8.7-1.6-12.8
			c-1.8-3.9-4.6-9.4-3.5-13.9c0.4-1.6,2.4-3.6,2.9-5.2c0.8-2.7,0-4.1-0.9-6.6c-1.6-4.6-3.1-9.2-4.7-13.8
			C606.5-91.1,604.5-104.1,594.1-100.3"/>
	</g>
	<path class="st9" d="M330.7-22.7L330.7-22.7c-55.2,0-100-44.8-100-100v-0.1c0-55.2,44.8-100,100-100h0c55.2,0,100,44.8,100,100v0.1
		C430.7-67.4,385.9-22.7,330.7-22.7z"/>
	<g>
		<defs>
			<path id="SVGID_9_" d="M330.6-22.7L330.6-22.7c-55.2,0-100-44.8-100-100v-0.1c0-55.2,44.8-100,100-100h0c55.2,0,100,44.8,100,100
				v0.1C430.6-67.4,385.8-22.7,330.6-22.7z"/>
		</defs>
		<clipPath id="SVGID_10_">
			<use xlink:href="#SVGID_9_"  style="overflow:visible;"/>
		</clipPath>
		<path class="st38" d="M366.1-100.3c-1.7,0.6-2.7,2.6-4.5,2.7c-1.9,0-4-0.1-5.8,0.7c-1.6,0.7-1.9,1.9-3.7,1.8
			c-1.8-0.1-6.1,1.1-7.8,1.8c-2-5.4-2.7-9.5-5.9-14.2c-2.3-3.4-4.6-5.7-8.8-4c-5.2,2-4,7.3-2.4,11.8c2.9,8.4,6.2,16.7,9.2,25
			c-1.9,0.7-6.4,2-5.5,4.4c0.7,2,1.4,3.9,2.2,5.9c1.4,3.8,2.9,7.6,4.2,11.5c1.7,4.6,4.5,6.2,9.5,7.8c1.8,0.6,3.8,1,5.4,1.9
			c1.4,2.6,2.1,5.4,2.9,8.2c1.2,4.2,2.3,9.3,6.2,12c3,2.1,6.9,2,10.4,1.6c7.3-0.9,13.2-5.3,16.9-10.4c2.8-3.9,0.3-8.7-1.6-12.8
			c-1.8-3.9-4.6-9.4-3.5-13.9c0.4-1.6,2.4-3.6,2.9-5.2c0.8-2.7,0-4.1-0.9-6.6c-1.6-4.6-3.1-9.2-4.7-13.8
			C378.5-91.1,376.5-104.1,366.1-100.3"/>
	</g>
	<path class="st9" d="M100-22.7L100-22.7c-55.2,0-100-44.8-100-100v-0.1c0-55.2,44.8-100,100-100h0c55.2,0,100,44.8,100,100v0.1
		C200-67.4,155.2-22.7,100-22.7z"/>
	<g id="_x30_1">
		<path class="st9" d="M-125.3-22.7L-125.3-22.7c-55.2,0-100-44.8-100-100v-0.1c0-55.2,44.8-100,100-100h0c55.2,0,100,44.8,100,100
			v0.1C-25.3-67.4-70.1-22.7-125.3-22.7z"/>
		<path class="st2" d="M-205.1-182.5h-0.4c-10.9,0-19.8-8.9-19.8-19.8v-0.4c0-10.9,8.9-19.8,19.8-19.8h0.4
			c10.9,0,19.8,8.9,19.8,19.8v0.4C-185.3-191.4-194.1-182.5-205.1-182.5z"/>
		<g>
			<path class="st3" d="M-190.4-97.3c-2.3,0-4.6-0.9-6.2-2.6c-1.7-1.7-2.6-3.9-2.6-6.3l-0.1-32.4c0-2.4,0.9-4.6,2.6-6.3
				c1.7-1.7,3.9-2.6,6.2-2.7l130.3-0.5c0,0,0,0,0,0c4.9,0,8.8,4,8.8,8.9l0.1,32.4c0,2.4-0.9,4.6-2.6,6.3c-1.7,1.7-3.9,2.6-6.2,2.7
				L-190.4-97.3C-190.4-97.3-190.4-97.3-190.4-97.3z M-190.6-142.9c-1.1,0-2.1,0.4-2.9,1.2c-0.8,0.8-1.2,1.9-1.2,3l0.1,32.4
				c0,1.1,0.4,2.2,1.2,3c0.8,0.8,1.8,1.2,2.9,1.2c0,0,0,0,0,0l130.3-0.5c1.1,0,2.1-0.4,2.9-1.2c0.8-0.8,1.2-1.9,1.2-3l-0.1-32.4
				c0-2.3-1.9-4.2-4.1-4.2c0,0,0,0,0,0L-190.6-142.9z"/>
			<path class="st33" d="M-189.8-144.6l128.7-0.4c3.5,0,6.4,2.9,6.4,6.4l0.1,31.5c0,3.5-2.9,6.4-6.4,6.4l-128.7,0.4
				c-3.5,0-6.4-2.9-6.4-6.4l-0.1-31.5C-196.1-141.7-193.3-144.6-189.8-144.6z"/>
			<path class="st34" d="M-189.8-144.6l37.9-0.1l0.2,44.3l-37.9,0.1c-3.5,0-6.4-2.9-6.4-6.4l-0.1-31.5
				C-196.1-141.7-193.3-144.6-189.8-144.6z"/>
			<polygon class="st6" points="-157.3,-119.2 -163.2,-108.9 -183,-108.8 -189,-119.1 -179.1,-136.3 -167.3,-136.3 			"/>
			<polygon class="st7" points="-167.8,-135 -182.1,-110.1 -187.5,-119.4 -178.6,-135 			"/>
			<polygon class="st7" points="-175.3,-119.4 -158.8,-119.5 -164.1,-110.2 -180.7,-110.1 			"/>
			<polygon class="st2" points="-167.1,-133.8 -159.5,-120.7 -170.2,-120.7 -172.4,-124.5 			"/>
			<g>
				<path class="st8" d="M-130.8-125.9c0,1.3-0.4,2.5-1.1,3.4c-0.7,1-1.8,1.7-3,2.1l4.5,7.7l-3.3,0l-4.3-7.3l-3.3,0l0,7.3l-3,0
					l-0.1-19l7,0c1,0,2,0.1,2.8,0.4c0.8,0.3,1.5,0.7,2.1,1.2c0.6,0.5,1,1.1,1.3,1.8S-130.8-126.7-130.8-125.9z M-133.8-125.9
					c0-0.9-0.3-1.7-0.9-2.3c-0.6-0.6-1.5-0.8-2.6-0.8l-3.9,0l0,6.3l3.8,0c1.1,0,2-0.3,2.6-0.9C-134.1-124.1-133.8-124.9-133.8-125.9
					z"/>
				<path class="st8" d="M-127.5-131.7l12,0l0,2.7l-9,0l0,5.2l8.4,0l0,2.6l-8.4,0l0,5.8l9.2,0l0,2.7l-12.1,0L-127.5-131.7z"/>
				<path class="st8" d="M-112-131.7l11.8,0l0,2.7l-8.8,0l0,5.5l8.2,0l0,2.7l-8.2,0l0,8.1l-3,0L-112-131.7z"/>
				<path class="st8" d="M-89.7-112.5c-1.1,0-2.2-0.2-3.1-0.5c-0.9-0.3-1.7-0.8-2.3-1.5c-0.6-0.7-1.1-1.5-1.5-2.5
					c-0.4-1-0.5-2.2-0.5-3.5l0-11.3l3,0l0,11.4c0,1.8,0.4,3.1,1.2,4c0.8,0.9,1.9,1.3,3.2,1.3s2.5-0.5,3.2-1.3c0.8-0.9,1.1-2.2,1.1-4
					l0-11.4l3,0l0,11.3c0,1.4-0.2,2.5-0.5,3.5c-0.3,1-0.8,1.8-1.5,2.5c-0.6,0.7-1.4,1.2-2.3,1.5C-87.5-112.7-88.6-112.5-89.7-112.5z
					"/>
				<path class="st8" d="M-66.5-131.9l3,0l0.1,19l-3.1,0l-7.1-11.5c-0.4-0.6-0.8-1.3-1.1-2c-0.3-0.7-0.6-1.4-0.8-1.9l-0.1,0
					c0.1,0.7,0.2,1.5,0.3,2.3c0.1,0.8,0.1,1.5,0.1,2.2l0,11l-3,0l-0.1-19l3.3,0l6.9,11.5c0.4,0.6,0.7,1.3,1.1,2
					c0.3,0.7,0.6,1.4,0.8,2l0.1,0c-0.1-0.7-0.2-1.5-0.3-2.3c-0.1-0.8-0.1-1.6-0.1-2.3L-66.5-131.9z"/>
			</g>
		</g>
		<g>
			<path class="st8" d="M-207.2-192v-16.1l-3.7,1.5l-1.5-3.4l6.1-2.8h3v20.7H-207.2z"/>
		</g>
		<g>
			<defs>
				<path id="SVGID_11_" d="M-125.4-22.7L-125.4-22.7c-55.2,0-100-44.8-100-100v-0.1c0-55.2,44.8-100,100-100h0
					c55.2,0,100,44.8,100,100v0.1C-25.4-67.4-70.2-22.7-125.4-22.7z"/>
			</defs>
			<clipPath id="SVGID_12_">
				<use xlink:href="#SVGID_11_"  style="overflow:visible;"/>
			</clipPath>
			<path class="st39" d="M-89.9-100.3c-1.7,0.6-2.7,2.6-4.5,2.7c-1.9,0-4-0.1-5.8,0.7c-1.6,0.7-1.9,1.9-3.7,1.8
				c-1.8-0.1-6.1,1.1-7.8,1.8c-2-5.4-2.7-9.5-5.9-14.2c-2.3-3.4-4.6-5.7-8.8-4c-5.2,2-4,7.3-2.4,11.8c2.9,8.4,6.2,16.7,9.2,25
				c-1.9,0.7-6.4,2-5.5,4.4c0.7,2,1.4,3.9,2.2,5.9c1.4,3.8,2.9,7.6,4.2,11.5c1.7,4.6,4.5,6.2,9.5,7.8c1.8,0.6,3.8,1,5.4,1.9
				c1.4,2.6,2.1,5.4,2.9,8.2c1.2,4.2,2.3,9.3,6.2,12c3,2.1,6.9,2,10.4,1.6c7.3-0.9,13.2-5.3,16.9-10.4c2.8-3.9,0.3-8.7-1.6-12.8
				c-1.8-3.9-4.6-9.4-3.5-13.9c0.4-1.6,2.4-3.6,2.9-5.2c0.8-2.7,0-4.1-0.9-6.6c-1.6-4.6-3.1-9.2-4.7-13.8
				C-77.5-91.1-79.5-104.1-89.9-100.3"/>
		</g>
	</g>
	<path class="st2" d="M20.3-182.5h-0.4c-10.9,0-19.8-8.9-19.8-19.8v-0.4c0-10.9,8.9-19.8,19.8-19.8h0.4c10.9,0,19.8,8.9,19.8,19.8
		v0.4C40.1-191.4,31.2-182.5,20.3-182.5z"/>
	<g>
		<path class="st8" d="M13.2-192v-3.6c1.2-1.2,2.3-2.3,3.3-3.3c0.4-0.4,0.9-0.9,1.3-1.3c0.4-0.4,0.9-0.9,1.2-1.2
			c0.4-0.4,0.7-0.7,1-1s0.5-0.6,0.7-0.7c0.3-0.4,0.6-0.7,0.9-1s0.5-0.6,0.6-0.9c0.2-0.3,0.3-0.6,0.3-0.9c0.1-0.3,0.1-0.6,0.1-1
			c0-0.7-0.3-1.2-0.8-1.7c-0.5-0.5-1.2-0.7-2.1-0.7s-1.6,0.3-2.1,0.8s-0.8,1.1-1,1.7l-3.6-1.5c0.2-0.5,0.4-1.1,0.8-1.7
			c0.4-0.6,0.8-1.1,1.4-1.5c0.6-0.5,1.2-0.8,2-1.1c0.8-0.3,1.7-0.4,2.6-0.4c1,0,2,0.2,2.8,0.5c0.8,0.3,1.6,0.7,2.1,1.3
			c0.6,0.5,1,1.2,1.4,1.9c0.3,0.7,0.5,1.5,0.5,2.4c0,1.3-0.3,2.5-1,3.6c-0.6,1.1-1.4,2.1-2.3,3l-2.6,2.6c-0.7,0.7-1.5,1.5-2.3,2.3
			l0.1,0.2H27v3.5H13.2z"/>
	</g>
	<g>
		<path class="st2" d="M250.9-182.4h-0.4c-10.9,0-19.8-8.9-19.8-19.8v-0.4c0-10.9,8.9-19.8,19.8-19.8h0.4c10.9,0,19.8,8.9,19.8,19.8
			v0.4C270.7-191.2,261.9-182.4,250.9-182.4z"/>
		<text transform="matrix(1 0 0 1 242.5045 -191.8897)" class="st8" style="font-family:'ProductSans-Bold'; font-size:30.2767px;">3</text>
	</g>
	<g>
		<path class="st2" d="M250.8,40h-0.4c-10.9,0-19.8-8.9-19.8-19.8v-0.4c0-10.9,8.9-19.8,19.8-19.8l0.4,0c10.9,0,19.8,8.9,19.8,19.8
			v0.4C270.7,31.1,261.8,40,250.8,40z"/>
		<text transform="matrix(1 0 0 1 242.4253 30.4774)" class="st8" style="font-family:'ProductSans-Bold'; font-size:30.2767px;">6</text>
	</g>
	<g>
		<path class="st2" d="M20.3,40h-0.4C8.9,40,0.1,31.1,0.1,20.2v-0.4C0.1,8.9,8.9,0,19.9,0l0.4,0c10.9,0,19.8,8.9,19.8,19.8v0.4
			C40.1,31.1,31.2,40,20.3,40z"/>
		<g>
			<path class="st8" d="M20.4,31c-0.8,0-1.6-0.1-2.3-0.3s-1.5-0.6-2.2-1c-0.7-0.5-1.2-1-1.7-1.7c-0.5-0.7-0.9-1.5-1.1-2.5l3.6-1.4
				c0.2,1,0.7,1.8,1.3,2.4s1.4,0.9,2.4,0.9c0.5,0,0.9-0.1,1.3-0.3c0.4-0.2,0.8-0.4,1.1-0.7s0.6-0.7,0.7-1.1c0.2-0.4,0.3-0.9,0.3-1.4
				c0-0.5-0.1-0.9-0.3-1.3c-0.2-0.4-0.4-0.8-0.7-1.1c-0.3-0.3-0.7-0.6-1.1-0.7c-0.4-0.2-0.9-0.3-1.4-0.3c-0.6,0-1.2,0.1-1.7,0.4
				c-0.5,0.3-0.9,0.6-1.2,1l-3.8-1.8l1.2-10.4h11.7v3.5h-8.4l-0.8,4.8l0.2,0.1c0.4-0.3,0.9-0.6,1.5-0.9c0.6-0.2,1.3-0.4,2.1-0.4
				c0.9,0,1.7,0.2,2.5,0.5c0.8,0.3,1.5,0.8,2.1,1.4c0.6,0.6,1.1,1.3,1.5,2.2c0.4,0.9,0.5,1.8,0.5,2.9c0,1-0.2,2-0.5,2.8
				c-0.4,0.9-0.9,1.6-1.5,2.2c-0.7,0.6-1.4,1.1-2.3,1.5C22.5,30.8,21.5,31,20.4,31z"/>
		</g>
	</g>
	<g>
		<path class="st2" d="M-205.1,40h-0.4c-10.9,0-19.8-8.9-19.8-19.8v-0.4c0-10.9,8.9-19.8,19.8-19.8l0.4,0c10.9,0,19.8,8.9,19.8,19.8
			v0.4C-185.3,31.1-194.1,40-205.1,40z"/>
		<g>
			<path class="st8" d="M-205.5,30.5v-3.8h-9.6v-3.2l9.2-13.7h4.3V23h2.6v3.7h-2.6v3.8H-205.5z M-205.5,15.7h-0.2l-4.9,7.3h5.2V15.7
				z"/>
		</g>
	</g>
	<path class="st2" d="M162.9-126.5H37.1c-5.2,0-9.4-4.2-9.4-9.4v-24.3c0-5.2,4.2-9.4,9.4-9.4h125.9c5.2,0,9.4,4.2,9.4,9.4v24.3
		C172.4-130.7,168.2-126.5,162.9-126.5z"/>
	<g>
		<path class="st8" d="M41.6-142.7c-0.6-0.5-0.9-1.2-0.9-2.2c0-0.9,0.3-1.7,0.9-2.2s1.6-0.8,2.8-0.8h2.9v-0.6c0-0.7-0.2-1.2-0.5-1.5
			s-1-0.4-1.9-0.4c-1.1,0-2.2,0.2-3.1,0.5v-1.5c0.5-0.2,1-0.3,1.6-0.4c0.6-0.1,1.2-0.2,1.8-0.2c0.6,0,1.1,0.1,1.6,0.2h3.2l-0.1,1.5
			h-1.1c0.2,0.2,0.3,0.5,0.3,0.8c0.1,0.3,0.1,0.7,0.1,1.1v6.1h-1.9v-4.2h-2.8c-0.7,0-1.2,0.1-1.5,0.3s-0.5,0.6-0.5,1.1
			c0,0.5,0.1,0.9,0.4,1.1c0.3,0.2,0.8,0.3,1.5,0.3c0.5,0,0.9,0,1.2-0.1v1.5c-0.5,0.1-1.1,0.2-1.7,0.2C43-142,42.2-142.3,41.6-142.7z
			"/>
		<path class="st8" d="M51.5-150.4h1.6v0.9h2.6l-0.1,1.4h-4.2V-150.4z M51.5-145.6h1.6v0.9h2.6l-0.1,1.4h-4.2V-145.6z"/>
		<path class="st8" d="M58.1-142.7c-0.6-0.5-0.9-1.2-0.9-2.2c0-0.9,0.3-1.7,0.9-2.2s1.6-0.8,2.8-0.8h2.9v-0.6c0-0.7-0.2-1.2-0.5-1.5
			s-1-0.4-1.9-0.4c-1.1,0-2.2,0.2-3.1,0.5v-1.5c0.5-0.2,1-0.3,1.6-0.4c0.6-0.1,1.2-0.2,1.8-0.2c0.6,0,1.1,0.1,1.6,0.2h3.2l-0.1,1.5
			h-1.1c0.2,0.2,0.3,0.5,0.3,0.8c0.1,0.3,0.1,0.7,0.1,1.1v6.1h-1.9v-4.2h-2.8c-0.7,0-1.2,0.1-1.5,0.3s-0.5,0.6-0.5,1.1
			c0,0.5,0.1,0.9,0.4,1.1c0.3,0.2,0.8,0.3,1.5,0.3c0.5,0,0.9,0,1.2-0.1v1.5c-0.5,0.1-1.1,0.2-1.7,0.2
			C59.5-142,58.7-142.3,58.1-142.7z"/>
		<path class="st8" d="M71.7-142.3c-0.5-0.2-1-0.5-1.5-0.9l-0.1,1h-1.8v-9.6h1.9v7.1c0.3,0.3,0.7,0.6,1.2,0.8
			c0.5,0.2,0.9,0.3,1.5,0.3c0.7,0,1.2-0.2,1.5-0.5c0.3-0.3,0.5-0.8,0.5-1.5v-6.2h1.9v6.3c0,1.1-0.3,2-0.9,2.6
			c-0.6,0.6-1.4,0.9-2.4,0.9C72.8-142,72.2-142.1,71.7-142.3z"/>
		<path class="st8" d="M79-144v-7.7H81v7.3c0,0.3,0.1,0.5,0.2,0.6c0.1,0.1,0.3,0.2,0.6,0.2h0.7v1.5h-1.6C79.7-142.2,79-142.8,79-144
			z M83.3-144v-7.7h1.9v7.3c0,0.3,0.1,0.5,0.2,0.6c0.1,0.1,0.3,0.2,0.6,0.2h0.7v1.5h-1.6C84-142.2,83.3-142.8,83.3-144z"/>
		<path class="st8" d="M89.3-143.2c-0.7-0.8-1.1-2-1.1-3.6c0-1.6,0.3-2.9,0.8-3.8c0.5-0.9,1.3-1.3,2.3-1.3c0.5,0,0.8,0.1,1.1,0.2
			c0.3,0.2,0.6,0.4,0.8,0.7c0.2-0.3,0.6-0.5,1-0.7s0.8-0.3,1.2-0.3c0.7,0,1.3,0.2,1.7,0.7c0.4,0.4,0.6,1.1,0.6,1.9v7.2h-1.9v-6.9
			c0-0.5-0.1-0.8-0.2-1c-0.1-0.2-0.4-0.3-0.7-0.3c-0.2,0-0.5,0.1-0.7,0.2c-0.2,0.1-0.3,0.3-0.4,0.6h-1.1c-0.2-0.3-0.3-0.5-0.5-0.6
			c-0.2-0.1-0.4-0.2-0.6-0.2c-0.6,0-1,0.3-1.2,0.9c-0.2,0.6-0.3,1.5-0.3,2.6c0,1.2,0.2,2,0.6,2.5s1,0.8,1.8,0.8c0.5,0,1,0,1.2-0.1
			v1.5c-0.4,0.1-0.9,0.2-1.6,0.2C91-142,90-142.4,89.3-143.2z"/>
		<path class="st8" d="M93.8-154.9h-1.4v-1.3h2.7v1.6h3.8l-0.1,1.3h-5.1V-154.9z"/>
		<path class="st8" d="M103.4-142.3c-0.5-0.2-1-0.5-1.5-0.9l-0.1,1h-1.8v-9.6h1.9v7.1c0.3,0.3,0.7,0.6,1.2,0.8
			c0.5,0.2,0.9,0.3,1.5,0.3c0.7,0,1.2-0.2,1.5-0.5c0.3-0.3,0.5-0.8,0.5-1.5v-6.2h1.9v6.3c0,1.1-0.3,2-0.9,2.6
			c-0.6,0.6-1.4,0.9-2.4,0.9C104.6-142,104-142.1,103.4-142.3z"/>
		<path class="st8" d="M111.4-142.7c-0.6-0.5-0.9-1.2-0.9-2.2c0-0.9,0.3-1.7,0.9-2.2s1.6-0.8,2.8-0.8h2.9v-0.6
			c0-0.7-0.2-1.2-0.5-1.5s-1-0.4-1.9-0.4c-1.1,0-2.2,0.2-3.1,0.5v-1.5c0.5-0.2,1-0.3,1.6-0.4c0.6-0.1,1.2-0.2,1.8-0.2
			c0.6,0,1.1,0.1,1.6,0.2h3.2l-0.1,1.5h-1.1c0.2,0.2,0.3,0.5,0.3,0.8c0.1,0.3,0.1,0.7,0.1,1.1v6.1h-1.9v-4.2h-2.8
			c-0.7,0-1.2,0.1-1.5,0.3s-0.5,0.6-0.5,1.1c0,0.5,0.1,0.9,0.4,1.1c0.3,0.2,0.8,0.3,1.5,0.3c0.5,0,0.9,0,1.2-0.1v1.5
			c-0.5,0.1-1.1,0.2-1.7,0.2C112.8-142,112-142.3,111.4-142.7z"/>
		<path class="st8" d="M124.9-142.3c-0.5-0.2-1-0.5-1.5-0.9l-0.1,1h-1.8v-9.6h1.9v7.1c0.3,0.3,0.7,0.6,1.2,0.8
			c0.5,0.2,0.9,0.3,1.5,0.3c0.7,0,1.2-0.2,1.5-0.5c0.3-0.3,0.5-0.8,0.5-1.5v-6.2h1.9v6.3c0,1.1-0.3,2-0.9,2.6
			c-0.6,0.6-1.4,0.9-2.4,0.9C126.1-142,125.4-142.1,124.9-142.3z"/>
		<path class="st8" d="M135.9-148.2c0-0.5-0.1-0.9-0.2-1.2s-0.3-0.5-0.6-0.7c-0.3-0.2-0.7-0.2-1.3-0.2c-0.4,0-0.8,0-1.2,0.1
			s-0.8,0.2-1.2,0.3v-1.5c0.4-0.2,0.8-0.3,1.3-0.4c0.5-0.1,1-0.2,1.5-0.2c1.3,0,2.2,0.3,2.8,0.8c0.6,0.6,0.9,1.4,0.9,2.6v6.3h-1.9
			V-148.2z"/>
		<path class="st8" d="M140.9-143c-0.7-0.6-1-1.5-1-2.7v-0.9c0-0.4,0.1-0.7,0.2-1.1c0.2-0.3,0.4-0.7,0.7-1.1
			c0.2-0.3,0.4-0.5,0.5-0.7c0.1-0.2,0.1-0.3,0.1-0.5c0-0.2,0-0.3-0.1-0.4s-0.2-0.1-0.4-0.1h-1.2l0.2-1.5h2.2c0.9,0,1.3,0.4,1.3,1.3
			c0,0.4-0.1,0.7-0.2,1c-0.1,0.3-0.3,0.6-0.6,1.1c-0.3,0.4-0.5,0.7-0.6,1c-0.1,0.3-0.2,0.6-0.2,0.9v1.1c0,1.3,0.7,1.9,2.2,1.9
			c1.5,0,2.2-0.6,2.2-1.9v-1.2c0-0.6-0.1-0.9-0.3-1.2c-0.2-0.2-0.5-0.3-1-0.3h-0.5l0.1-1.4h0.4c0.5,0,0.8-0.1,1-0.3
			c0.2-0.2,0.3-0.6,0.3-1.1v-0.9h1.9v0.9c0,0.6-0.1,1.1-0.3,1.4c-0.2,0.3-0.5,0.6-1,0.8c0.5,0.2,0.8,0.5,1,0.8s0.3,0.8,0.3,1.4v1
			c0,1.1-0.4,2-1.1,2.7c-0.7,0.6-1.7,0.9-3,0.9C142.6-142,141.6-142.3,140.9-143z"/>
		<path class="st8" d="M140.8-154.6h7.3v1.3h-7.4L140.8-154.6z"/>
		<path class="st8" d="M150.5-145.7c0-1.2,0.5-1.9,1.4-2.2l-1.9-0.5v-2c0.5-0.5,1.2-0.9,2-1.2c0.8-0.3,1.7-0.5,2.6-0.5
			c1.5,0,2.5,0.3,3.3,0.9c0.7,0.6,1.1,1.6,1.1,2.9v5.9H157v-6c0-0.8-0.2-1.4-0.6-1.7c-0.4-0.3-1-0.5-2-0.5c-0.6,0-1.1,0.1-1.6,0.2
			s-0.9,0.4-1.2,0.7v0.3l2,0.5v1.3c-0.5,0.1-0.8,0.3-1,0.6c-0.2,0.3-0.3,0.7-0.3,1.2v3.4h-1.9V-145.7z"/>
	</g>
	<path class="st2" d="M162.9-75.7H37.1c-5.2,0-9.4-4.2-9.4-9.4v-24.3c0-5.2,4.2-9.4,9.4-9.4h125.9c5.2,0,9.4,4.2,9.4,9.4v24.3
		C172.4-79.9,168.2-75.7,162.9-75.7z"/>
	<g>
		<path class="st8" d="M77.9-92.1c-0.8-0.7-1.1-1.6-1.1-2.9v-5.9h1.9v5.9c0,0.8,0.2,1.4,0.6,1.7c0.4,0.4,1,0.6,1.8,0.6
			s1.4-0.2,1.8-0.6c0.4-0.4,0.6-0.9,0.6-1.7v-5.9h1.9v5.9c0,1.3-0.4,2.3-1.1,2.9c-0.8,0.7-1.8,1-3.2,1
			C79.8-91.2,78.7-91.5,77.9-92.1z"/>
		<path class="st8" d="M89.1-91.3c-0.6-0.1-1.1-0.2-1.4-0.4v-1.6c0.4,0.2,0.9,0.3,1.4,0.4c0.5,0.1,1,0.1,1.5,0.1
			c0.9,0,1.5-0.1,1.8-0.2c0.4-0.2,0.5-0.5,0.5-0.9c0-0.3-0.1-0.5-0.2-0.7c-0.1-0.2-0.3-0.3-0.6-0.4c-0.2-0.1-0.6-0.2-1.2-0.4
			l-0.7-0.2c-1-0.3-1.7-0.7-2.2-1.1c-0.5-0.4-0.7-1-0.7-1.7c0-0.9,0.3-1.5,1-2c0.6-0.5,1.6-0.7,2.9-0.7c0.5,0,1,0,1.6,0.1
			c0.5,0.1,1,0.2,1.3,0.3v1.6c-0.4-0.1-0.8-0.3-1.3-0.3c-0.5-0.1-0.9-0.1-1.4-0.1c-0.7,0-1.3,0.1-1.7,0.2c-0.4,0.2-0.6,0.5-0.6,0.9
			c0,0.2,0.1,0.5,0.2,0.6s0.4,0.3,0.6,0.4c0.3,0.1,0.7,0.3,1.3,0.5l0.5,0.2c1,0.3,1.7,0.7,2.2,1.1s0.7,1,0.7,1.8c0,0.9-0.3,1.6-1,2
			c-0.7,0.4-1.6,0.7-2.9,0.7C90.3-91.2,89.7-91.2,89.1-91.3z"/>
		<path class="st8" d="M87.1-103.7h7.3v1.3h-7.4L87.1-103.7z"/>
		<path class="st8" d="M99.7-91.2c-0.3,0-0.5-0.1-0.7-0.2l-1.4-3.8h-1.2l0.1-1.5h2.4l1.5,3.9c0.8,0,1.5-0.2,2-0.8
			c0.5-0.6,0.8-1.5,0.8-2.7c0-0.8-0.1-1.5-0.3-2s-0.6-0.8-1.1-1c-0.5-0.2-1.2-0.3-2.1-0.3c-1.1,0-2.1,0.2-3,0.5v-1.5
			c1.1-0.4,2.3-0.5,3.5-0.5c1.7,0,2.9,0.4,3.6,1.2c0.8,0.8,1.2,2,1.2,3.6c0,1.1-0.2,2-0.6,2.7c-0.4,0.8-0.9,1.3-1.6,1.7
			c-0.7,0.4-1.4,0.6-2.2,0.6C100.3-91.2,100-91.2,99.7-91.2z"/>
		<path class="st8" d="M110.4-97.4c0-0.5-0.1-0.9-0.2-1.2s-0.3-0.5-0.6-0.7c-0.3-0.2-0.7-0.2-1.3-0.2c-0.4,0-0.8,0-1.2,0.1
			s-0.8,0.2-1.2,0.3v-1.5c0.4-0.2,0.8-0.3,1.3-0.4c0.5-0.1,1-0.2,1.5-0.2c1.3,0,2.2,0.3,2.8,0.8c0.6,0.6,0.9,1.4,0.9,2.6v6.3h-1.9
			V-97.4z"/>
		<path class="st8" d="M114.6-97.4c0-1.2,0.4-2.1,1.1-2.7s1.8-1,3.3-1c1.5,0,2.5,0.3,3.3,1c0.7,0.6,1.1,1.5,1.1,2.7v6.1h-1.9v-6.2
			c0-1.3-0.8-2-2.4-2c-0.8,0-1.4,0.2-1.8,0.5s-0.6,0.8-0.6,1.5v2c0.5-0.4,1.1-0.6,1.9-0.6h1.2l0.1,1.5h-1.3c-0.7,0-1.3,0.2-1.8,0.6
			v2.8h-1.9V-97.4z"/>
	</g>
	<g>
		<defs>
			<path id="SVGID_13_" d="M-125.3,200L-125.3,200c-55.2,0-100-44.8-100-100V100c0-55.2,44.8-100,100-100l0,0
				c55.2,0,100,44.8,100,100v0.1C-25.4,155.2-70.1,200-125.3,200z"/>
		</defs>
		<clipPath id="SVGID_14_">
			<use xlink:href="#SVGID_13_"  style="overflow:visible;"/>
		</clipPath>
		<g class="st40">
			<g>
				<path class="st22" d="M-86.5,183.2h-77.7c-2.8,0-5-2.2-5-5V21.1c0-2.8,2.2-5,5-5h77.7c2.8,0,5,2.2,5,5v157.1
					C-81.5,181-83.7,183.2-86.5,183.2z"/>
				<g>
					<path class="st23" d="M-154.9,178.2L-154.9,178.2c-2,0-3.7-1.6-3.7-3.7V25.8c0-2,1.6-3.7,3.7-3.7h0c2,0,3.7,1.6,3.7,3.7v148.7
						C-151.2,176.5-152.9,178.2-154.9,178.2z"/>
					<path class="st23" d="M-95.7,178.2L-95.7,178.2c-2,0-3.7-1.6-3.7-3.7V25.8c0-2,1.6-3.7,3.7-3.7h0c2,0,3.7,1.6,3.7,3.7v148.7
						C-92.1,176.5-93.7,178.2-95.7,178.2z"/>
				</g>
			</g>
			<g>
				<path id="XMLID_6_" class="st24" d="M-125.3-45.9c0,0-23.3,0-25.3,0s-6.6,3.5-7.1,24.8c-0.5,21.2,6.6,58.2,6.6,72.3
					s-6.6,26-6.6,36.2c0,3.5,0,45.3,0,48.3c0,3,2,13.7,6.6,21.2c4.6,7.6,15.7,17.7,15.7,17.7v5.1h10.1h10.1v-5.1
					c0,0,11.1-10.1,15.7-17.7c4.6-7.6,6.6-18.2,6.6-21.2c0-3,0-44.8,0-48.3c0-10.1-6.6-22-6.6-36.2s7.1-51.1,6.6-72.3
					c-0.5-21.2-5.1-24.8-7.1-24.8C-102-45.9-125.3-45.9-125.3-45.9z"/>
				<path id="XMLID_5_" class="st25" d="M-125.3-45.9c0,0-23.3,0-25.3,0s-6.6,3.5-7.1,24.8c-0.5,21.2,6.6,58.2,6.6,72.3
					s-6.6,26-6.6,36.2c0,3.5,0,45.3,0,48.3c0,3,2,13.7,6.6,21.2c4.6,7.6,15.7,17.7,15.7,17.7v5.1h10.1V-45.9z"/>
				<path id="XMLID_4_" class="st3" d="M-133.7,179.3h16.9c2.2,0,3.9,1.8,3.9,3.9v5.1c0,2.2-1.8,3.9-3.9,3.9h-16.9
					c-2.2,0-3.9-1.8-3.9-3.9v-5.1C-137.7,181.1-135.9,179.3-133.7,179.3z"/>
				<path id="XMLID_3_" class="st26" d="M-125.3,179.3h-9.2c-1.8,0-3.2,1.2-3.2,2.6v7.8c0,1.4,1.4,2.6,3.2,2.6h9.2V179.3z"/>
				<rect id="XMLID_2_" x="-157.7" y="91.8" class="st3" width="64.7" height="43.8"/>
				<rect id="XMLID_1_" x="-157.7" y="91.8" class="st26" width="32.4" height="43.8"/>
				<g>
					<polygon class="st41" points="-143.9,101.4 -135.2,101.4 -135.2,100.5 -144.8,100.5 -144.8,110.3 -143.9,110.3 					"/>
					<polygon class="st41" points="-143.9,124.5 -143.9,116.3 -144.8,116.3 -144.8,125.4 -135.2,125.4 -135.2,124.5 					"/>
					<polygon class="st41" points="-106.8,124.5 -115.6,124.5 -115.6,125.4 -105.9,125.4 -105.9,116.3 -106.8,116.3 					"/>
					<polygon class="st41" points="-106.8,101.4 -106.8,110.3 -105.9,110.3 -105.9,100.5 -115.6,100.5 -115.6,101.4 					"/>
					<rect x="-140.1" y="104" class="st41" width="0.9" height="18.5"/>
					<rect x="-136.9" y="104" class="st41" width="0.9" height="18.5"/>
					<rect x="-133.7" y="104" class="st41" width="0.9" height="18.5"/>
					<rect x="-130.5" y="104" class="st41" width="0.9" height="18.5"/>
					<rect x="-127.4" y="104" class="st41" width="0.9" height="18.5"/>
					<rect x="-124.2" y="104" class="st41" width="0.9" height="18.5"/>
					<rect x="-121" y="104" class="st41" width="0.9" height="18.5"/>
					<rect x="-117.8" y="104" class="st41" width="0.9" height="18.5"/>
					<rect x="-114.6" y="104" class="st41" width="0.9" height="18.5"/>
					<rect x="-111.4" y="104" class="st41" width="0.9" height="18.5"/>
				</g>
			</g>
		</g>
	</g>
	<g class="st42">
		<path class="st3" d="M-189.8,58.8h27.7c0.9,0,1.6-0.7,1.6-1.6v0c0-0.9-0.7-1.6-1.6-1.6H-193c-0.9,0-1.6,0.7-1.6,1.6v31.7
			c0,0.9,0.7,1.6,1.6,1.6l0,0c0.9,0,1.6-0.7,1.6-1.6V60.4C-191.4,59.5-190.7,58.8-189.8,58.8z"/>
		<path class="st3" d="M-191.4,139.6v-26.2c0-0.9-0.7-1.6-1.6-1.6l0,0c-0.9,0-1.6,0.7-1.6,1.6v29.5c0,0.9,0.7,1.6,1.6,1.6h30.9
			c0.9,0,1.6-0.7,1.6-1.6l0,0c0-0.9-0.7-1.6-1.6-1.6h-27.7C-190.7,141.2-191.4,140.5-191.4,139.6z"/>
		<path class="st3" d="M-60.9,141.2H-89c-0.9,0-1.6,0.7-1.6,1.6l0,0c0,0.9,0.7,1.6,1.6,1.6h31.4c0.9,0,1.6-0.7,1.6-1.6v-29.5
			c0-0.9-0.7-1.6-1.6-1.6l0,0c-0.9,0-1.6,0.7-1.6,1.6v26.2C-59.2,140.5-60,141.2-60.9,141.2z"/>
		<path class="st3" d="M-59.2,60.4v28.4c0,0.9,0.7,1.6,1.6,1.6l0,0c0.9,0,1.6-0.7,1.6-1.6V57.2c0-0.9-0.7-1.6-1.6-1.6H-89
			c-0.9,0-1.6,0.7-1.6,1.6v0c0,0.9,0.7,1.6,1.6,1.6h28.1C-60,58.8-59.2,59.5-59.2,60.4z"/>
		<path class="st3" d="M-176.5,134L-176.5,134c-0.9,0-1.6-0.7-1.6-1.6V69.8c0-0.9,0.7-1.6,1.6-1.6l0,0c0.9,0,1.6,0.7,1.6,1.6v62.5
			C-174.9,133.2-175.6,134-176.5,134z"/>
		<path class="st3" d="M-165.2,134L-165.2,134c-0.9,0-1.6-0.7-1.6-1.6V69.8c0-0.9,0.7-1.6,1.6-1.6l0,0c0.9,0,1.6,0.7,1.6,1.6v62.5
			C-163.5,133.2-164.3,134-165.2,134z"/>
		<path class="st3" d="M-153.8,134L-153.8,134c-0.9,0-1.6-0.7-1.6-1.6V69.8c0-0.9,0.7-1.6,1.6-1.6l0,0c0.9,0,1.6,0.7,1.6,1.6v62.5
			C-152.1,133.2-152.9,134-153.8,134z"/>
		<path class="st3" d="M-142.4,134L-142.4,134c-0.9,0-1.6-0.7-1.6-1.6V69.8c0-0.9,0.7-1.6,1.6-1.6h0c0.9,0,1.6,0.7,1.6,1.6v62.5
			C-140.8,133.2-141.5,134-142.4,134z"/>
		<path class="st3" d="M-131,134L-131,134c-0.9,0-1.6-0.7-1.6-1.6V69.8c0-0.9,0.7-1.6,1.6-1.6l0,0c0.9,0,1.6,0.7,1.6,1.6v62.5
			C-129.4,133.2-130.1,134-131,134z"/>
		<path class="st3" d="M-119.6,134L-119.6,134c-0.9,0-1.6-0.7-1.6-1.6V69.8c0-0.9,0.7-1.6,1.6-1.6l0,0c0.9,0,1.6,0.7,1.6,1.6v62.5
			C-118,133.2-118.7,134-119.6,134z"/>
		<path class="st3" d="M-108.2,134L-108.2,134c-0.9,0-1.6-0.7-1.6-1.6V69.8c0-0.9,0.7-1.6,1.6-1.6h0c0.9,0,1.6,0.7,1.6,1.6v62.5
			C-106.6,133.2-107.3,134-108.2,134z"/>
		<path class="st3" d="M-96.8,134L-96.8,134c-0.9,0-1.6-0.7-1.6-1.6V69.8c0-0.9,0.7-1.6,1.6-1.6h0c0.9,0,1.6,0.7,1.6,1.6v62.5
			C-95.2,133.2-95.9,134-96.8,134z"/>
		<path class="st3" d="M-85.5,134L-85.5,134c-0.9,0-1.6-0.7-1.6-1.6V69.8c0-0.9,0.7-1.6,1.6-1.6h0c0.9,0,1.6,0.7,1.6,1.6v62.5
			C-83.8,133.2-84.6,134-85.5,134z"/>
		<path class="st3" d="M-74.1,134L-74.1,134c-0.9,0-1.6-0.7-1.6-1.6V69.8c0-0.9,0.7-1.6,1.6-1.6l0,0c0.9,0,1.6,0.7,1.6,1.6v62.5
			C-72.4,133.2-73.2,134-74.1,134z"/>
	</g>
	<g>
		<g>
			<path class="st3" d="M47.2,161.5c-1.9,0-3.7-0.8-5-2.1c-1.4-1.4-2.1-3.2-2.1-5.1L40,128c0-1.9,0.7-3.7,2.1-5.1
				c1.4-1.4,3.1-2.1,5.1-2.2l105.6-0.4c0,0,0,0,0,0c3.9,0,7.1,3.2,7.2,7.2l0.1,26.3c0,1.9-0.7,3.7-2.1,5.1c-1.4,1.4-3.1,2.1-5.1,2.2
				L47.2,161.5C47.2,161.5,47.2,161.5,47.2,161.5z M47.1,124.5c-0.9,0-1.7,0.4-2.3,1c-0.6,0.7-1,1.5-1,2.4l0.1,26.3
				c0,0.9,0.4,1.8,1,2.4c0.6,0.6,1.5,1,2.3,1c0,0,0,0,0,0l105.6-0.4c0.9,0,1.7-0.4,2.3-1c0.6-0.7,1-1.5,1-2.4l-0.1-26.3
				c0-1.9-1.5-3.4-3.3-3.4c0,0,0,0,0,0L47.1,124.5z"/>
			<path class="st43" d="M47.8,123.1l104.3-0.4c2.8,0,5.2,2.3,5.2,5.2l0.1,25.5c0,2.9-2.3,5.2-5.2,5.2L47.9,159
				c-2.8,0-5.2-2.3-5.2-5.2l-0.1-25.5C42.6,125.5,44.9,123.2,47.8,123.1z"/>
			<path class="st44" d="M47.8,123.1l30.7-0.1l0.1,35.9L47.9,159c-2.8,0-5.2-2.3-5.2-5.2l-0.1-25.5
				C42.6,125.5,44.9,123.2,47.8,123.1z"/>
			<polygon class="st6" points="74.1,143.7 69.3,152.1 53.2,152.1 48.4,143.8 56.4,129.9 66,129.8 			"/>
			<polygon class="st7" points="65.6,130.9 54,151.1 49.6,143.6 56.8,130.9 			"/>
			<polygon class="st7" points="59.5,143.5 72.9,143.5 68.6,151 55.1,151.1 			"/>
			<polygon class="st2" points="66.1,131.9 72.3,142.5 63.6,142.5 61.8,139.4 			"/>
			<g>
				<path class="st8" d="M95.6,138.3c0,1.1-0.3,2-0.9,2.8c-0.6,0.8-1.4,1.3-2.4,1.7l3.7,6.2l-2.7,0l-3.4-5.9l-2.7,0l0,5.9l-2.5,0
					l-0.1-15.4l5.6,0c0.8,0,1.6,0.1,2.3,0.4c0.7,0.2,1.2,0.6,1.7,1c0.5,0.4,0.8,0.9,1,1.5C95.5,137,95.6,137.6,95.6,138.3z
					 M93.1,138.3c0-0.8-0.2-1.4-0.7-1.8c-0.5-0.5-1.2-0.7-2.1-0.7l-3.2,0l0,5.1l3.1,0c0.9,0,1.6-0.2,2.1-0.7
					C92.9,139.7,93.1,139.1,93.1,138.3z"/>
				<path class="st8" d="M98.2,133.6l9.7,0l0,2.2l-7.3,0l0,4.3l6.8,0l0,2.1l-6.8,0l0,4.7l7.4,0l0,2.1l-9.8,0L98.2,133.6z"/>
				<path class="st8" d="M110.8,133.5l9.5,0l0,2.2l-7.1,0l0,4.4l6.6,0l0,2.2l-6.6,0l0,6.6l-2.4,0L110.8,133.5z"/>
				<path class="st8" d="M128.9,149.1c-0.9,0-1.8-0.1-2.5-0.4c-0.7-0.3-1.4-0.7-1.9-1.2c-0.5-0.5-0.9-1.2-1.2-2
					c-0.3-0.8-0.4-1.8-0.4-2.9l0-9.2l2.5,0l0,9.2c0,1.4,0.3,2.5,0.9,3.2c0.6,0.7,1.5,1.1,2.6,1.1c1.1,0,2-0.4,2.6-1.1
					c0.6-0.7,0.9-1.8,0.9-3.2l0-9.2l2.5,0l0,9.2c0,1.1-0.1,2.1-0.4,2.9c-0.3,0.8-0.7,1.5-1.2,2c-0.5,0.5-1.1,0.9-1.9,1.2
					C130.6,149,129.8,149.1,128.9,149.1z"/>
				<path class="st8" d="M147.7,133.4l2.5,0l0.1,15.4l-2.5,0l-5.7-9.3c-0.3-0.5-0.6-1.1-0.9-1.6c-0.3-0.6-0.5-1.1-0.6-1.6l-0.1,0
					c0.1,0.6,0.2,1.2,0.2,1.8c0,0.6,0.1,1.3,0.1,1.8l0,8.9l-2.5,0l-0.1-15.4l2.7,0l5.6,9.3c0.3,0.5,0.6,1.1,0.9,1.6
					c0.3,0.6,0.5,1.1,0.7,1.6l0,0c-0.1-0.6-0.2-1.2-0.2-1.8c0-0.6-0.1-1.3-0.1-1.8L147.7,133.4z"/>
			</g>
		</g>
		<g>
			<path class="st15" d="M57.7,47.8c0-1.2,0.4-2.1,1.1-2.8c0.7-0.6,1.8-1,3.3-1c1.5,0,2.6,0.3,3.3,1c0.7,0.6,1.1,1.6,1.1,2.8V54h-2
				v-6.3c0-1.3-0.8-2-2.4-2c-0.8,0-1.4,0.2-1.8,0.5c-0.4,0.3-0.6,0.8-0.6,1.5v2c0.5-0.4,1.2-0.6,1.9-0.6h1.2l0.1,1.6h-1.3
				c-0.7,0-1.3,0.2-1.8,0.6V54h-2V47.8z"/>
			<path class="st15" d="M68.4,45.7H70v0.9h2.6L72.6,48h-4.2V45.7z M68.4,50.6H70v0.9h2.6l-0.1,1.4h-4.2V50.6z"/>
			<path class="st15" d="M74.5,52.1v-7.8h2v7.4c0,0.3,0.1,0.5,0.2,0.6c0.1,0.1,0.3,0.2,0.6,0.2H78V54h-1.6
				C75.2,54,74.5,53.3,74.5,52.1z M78.9,52.1v-7.8h1.9v7.4c0,0.3,0.1,0.5,0.2,0.6c0.1,0.1,0.3,0.2,0.6,0.2h0.7V54h-1.6
				C79.5,54,78.9,53.3,78.9,52.1z"/>
			<path class="st15" d="M85.1,53.2c-0.6-0.6-0.9-1.5-0.9-2.6v-6.4h2v6.3c0,0.7,0.2,1.2,0.5,1.6c0.3,0.3,0.8,0.5,1.5,0.5
				c0.5,0,1-0.1,1.5-0.3s0.9-0.5,1.2-0.8v-7.2h1.9V54h-1.8L91,52.9c-1,0.8-2.1,1.2-3.4,1.2C86.5,54.1,85.7,53.8,85.1,53.2z"/>
			<path class="st15" d="M96,53.2c-0.6-0.6-0.9-1.5-0.9-2.6v-6.4h2v6.3c0,0.7,0.2,1.2,0.5,1.6c0.3,0.3,0.8,0.5,1.5,0.5
				c0.5,0,1-0.1,1.5-0.3s0.9-0.5,1.2-0.8v-7.2h1.9V54H102l-0.1-1.1c-1,0.8-2.1,1.2-3.4,1.2C97.4,54.1,96.6,53.8,96,53.2z"/>
			<path class="st15" d="M106.6,53.4c-0.6-0.5-0.9-1.2-0.9-2.3c0-1,0.3-1.7,1-2.2c0.6-0.5,1.6-0.8,2.8-0.8h3v-0.6
				c0-0.7-0.2-1.2-0.5-1.5c-0.4-0.3-1-0.4-2-0.4c-1.1,0-2.2,0.2-3.2,0.5v-1.5c0.5-0.2,1-0.3,1.7-0.4c0.6-0.1,1.2-0.2,1.8-0.2
				c0.6,0,1.1,0.1,1.7,0.2h3.3l-0.1,1.5H114c0.2,0.3,0.3,0.5,0.3,0.9s0.1,0.7,0.1,1.1V54h-1.9v-4.3h-2.9c-0.7,0-1.2,0.1-1.5,0.3
				s-0.5,0.6-0.5,1.2c0,0.5,0.1,0.9,0.4,1.1c0.3,0.2,0.8,0.3,1.5,0.3c0.5,0,0.9,0,1.2-0.1v1.5c-0.5,0.1-1.1,0.2-1.7,0.2
				C108,54.1,107.2,53.9,106.6,53.4z"/>
			<path class="st15" d="M116.6,45.7h1.7v0.9h2.6l-0.1,1.5h-4.2V45.7z M116.6,50.6h1.7v0.9h2.6l-0.1,1.4h-4.2V50.6z"/>
			<path class="st15" d="M123.4,53.4c-0.6-0.5-0.9-1.2-0.9-2.3c0-1,0.3-1.7,1-2.2c0.6-0.5,1.6-0.8,2.8-0.8h3v-0.6
				c0-0.7-0.2-1.2-0.5-1.5c-0.4-0.3-1-0.4-2-0.4c-1.1,0-2.2,0.2-3.2,0.5v-1.5c0.5-0.2,1-0.3,1.7-0.4c0.6-0.1,1.2-0.2,1.8-0.2
				c0.6,0,1.1,0.1,1.7,0.2h3.3l-0.1,1.5h-1.1c0.2,0.3,0.3,0.5,0.3,0.9s0.1,0.7,0.1,1.1V54h-1.9v-4.3h-2.9c-0.7,0-1.2,0.1-1.5,0.3
				s-0.5,0.6-0.5,1.2c0,0.5,0.1,0.9,0.4,1.1c0.3,0.2,0.8,0.3,1.5,0.3c0.5,0,0.9,0,1.2-0.1v1.5c-0.5,0.1-1.1,0.2-1.7,0.2
				C124.8,54.1,124,53.9,123.4,53.4z"/>
			<path class="st15" d="M137.1,53.8c-0.5-0.2-1.1-0.5-1.5-0.9l-0.1,1.1h-1.8v-9.7h2v7.2c0.3,0.3,0.7,0.6,1.2,0.8
				c0.5,0.2,1,0.3,1.5,0.3c0.7,0,1.2-0.2,1.5-0.5c0.3-0.3,0.5-0.8,0.5-1.6v-6.3h1.9v6.4c0,1.1-0.3,2-0.9,2.6
				c-0.6,0.6-1.4,0.9-2.4,0.9C138.3,54.1,137.7,54,137.1,53.8z"/>
		</g>
		<g>
			<path class="st15" d="M60.5,73.2l-6.9,1.2v-6l14.1-2.2v43.4h-7.2V73.2z"/>
			<path class="st15" d="M81,109.7c-2.2-0.3-4-0.8-5.4-1.4V102c1.5,0.7,3.2,1.2,5.2,1.5c2,0.4,3.9,0.5,5.7,0.5c3.5,0,6-0.6,7.6-1.8
				c1.6-1.2,2.4-3.1,2.4-5.8c0-2.6-0.6-4.4-1.8-5.6c-1.2-1.2-3.4-1.7-6.7-1.7H75.4v-4.4l1.1-18h24.3l-0.6,5.6H82.6l-0.7,11.2h7.2
				c5,0,8.8,1.1,11.1,3.2c2.4,2.1,3.6,5.4,3.6,9.8c0,4.3-1.4,7.6-4.2,10s-6.8,3.6-12.2,3.6C85.4,110.2,83.3,110,81,109.7z"/>
			<path class="st15" d="M114.7,105.1c-3-3.8-4.5-9.2-4.5-16.4c0-7.4,1.5-13.1,4.4-16.9c2.9-3.8,7.7-5.7,14.4-5.7
				c6.6,0,11.4,1.9,14.3,5.7c2.9,3.8,4.4,9.4,4.4,16.9c0,7.2-1.5,12.6-4.5,16.4c-3,3.8-7.7,5.6-14.2,5.6
				C122.5,110.7,117.7,108.9,114.7,105.1z M137.8,100.5c1.8-2.7,2.7-6.6,2.7-11.8c0-5.5-0.9-9.6-2.6-12.3c-1.7-2.7-4.7-4.1-8.8-4.1
				c-4.2,0-7.2,1.4-8.9,4.1c-1.7,2.7-2.6,6.8-2.6,12.3c0,5.2,0.9,9.2,2.7,11.9c1.8,2.7,4.7,4,8.8,4
				C133.1,104.6,136,103.2,137.8,100.5z"/>
		</g>
	</g>
	<g>
		<defs>
			<path id="SVGID_15_" d="M100,200L100,200C44.8,200,0,155.2,0,100l0-0.1C0,44.8,44.8,0,100,0l0,0c55.2,0,100,44.8,100,100v0.1
				C199.9,155.2,155.2,200,100,200z"/>
		</defs>
		<clipPath id="SVGID_16_">
			<use xlink:href="#SVGID_15_"  style="overflow:visible;"/>
		</clipPath>
		<path class="st45" d="M136.2,154.6c-1.6,0.6-2.5,2.5-4.2,2.5c-1.8,0-3.8-0.1-5.4,0.7c-1.5,0.7-1.8,1.8-3.4,1.7
			c-1.7-0.1-5.7,1-7.2,1.7c-1.8-5-2.5-8.8-5.5-13.2c-2.1-3.2-4.2-5.3-8.2-3.7c-4.8,1.9-3.7,6.7-2.2,11c2.7,7.8,5.7,15.5,8.6,23.2
			c-1.8,0.6-5.9,1.9-5.1,4.1c0.7,1.8,1.3,3.6,2,5.4c1.3,3.5,2.7,7.1,3.9,10.7c1.6,4.2,4.1,5.8,8.8,7.3c1.6,0.5,3.5,0.9,5,1.7
			c1.3,2.4,2,5,2.7,7.6c1.1,3.9,2.2,8.7,5.7,11.1c2.8,1.9,6.4,1.9,9.7,1.5c6.8-0.8,12.3-4.9,15.6-9.7c2.6-3.7,0.3-8.1-1.5-11.9
			c-1.6-3.7-4.2-8.7-3.2-12.9c0.3-1.4,2.2-3.4,2.7-4.8c0.8-2.5,0-3.8-0.9-6.2c-1.5-4.3-2.9-8.6-4.4-12.8
			C147.6,163.1,145.8,151,136.2,154.6"/>
	</g>
</g>
</svg>
