<?xml version="1.0" encoding="utf-8"?>
<!-- Generator: Adobe Illustrator 23.0.3, SVG Export Plug-In . SVG Version: 6.00 Build 0)  -->
<svg version="1.1" xmlns="http://www.w3.org/2000/svg" xmlns:xlink="http://www.w3.org/1999/xlink" x="0px" y="0px"
	 viewBox="0 0 200 200" style="enable-background:new 0 0 200 200;" xml:space="preserve">
<style type="text/css">
	.st0{fill:#FFFFFF;stroke:#231F20;stroke-width:1.1161;stroke-miterlimit:10;}
	.st1{opacity:0.1;fill-rule:evenodd;clip-rule:evenodd;fill:#93D500;}
	.st2{fill-rule:evenodd;clip-rule:evenodd;fill:#93D500;}
	.st3{fill:#93D500;}
	.st4{fill-rule:evenodd;clip-rule:evenodd;fill:#93D500;stroke:#FFFFFF;stroke-width:3.1284;stroke-miterlimit:22.9256;}
	.st5{fill-rule:evenodd;clip-rule:evenodd;fill:#9E9E9F;stroke:#FFFFFF;stroke-width:3.1284;stroke-miterlimit:22.9256;}
	.st6{fill-rule:evenodd;clip-rule:evenodd;fill:#FFFFFF;}
	.st7{fill-rule:evenodd;clip-rule:evenodd;fill:#717171;}
	.st8{fill:#FFFFFF;}
	.st9{fill-rule:evenodd;clip-rule:evenodd;fill:#FAFBFC;}
	.st10{fill:#35CC62;}
	.st11{fill:#3FB401;}
	.st12{fill:#0ECCCC;}
	.st13{fill:#FEB54E;}
	.st14{fill:#FB6557;}
	.st15{fill:#333333;}
	.st16{fill:#666666;}
	.st17{fill:#999999;}
	.st18{fill:#262626;}
	.st19{fill:#E6E6E6;}
	.st20{fill:#FAFAFA;}
	.st21{fill:#FAFBFC;}
	.st22{fill-rule:evenodd;clip-rule:evenodd;fill:#E6E6E6;}
	.st23{fill-rule:evenodd;clip-rule:evenodd;fill:#FB6557;}
	.st24{fill:#E0F3FC;}
	.st25{fill:#CDEBF7;}
	.st26{opacity:0.1;fill:#231F20;}
	.st27{fill:#231F20;stroke:#231F20;stroke-width:0.3;stroke-miterlimit:10;}
	.st28{fill-rule:evenodd;clip-rule:evenodd;fill:#93D500;stroke:#FFFFFF;stroke-width:1.8468;stroke-miterlimit:22.9256;}
	.st29{fill-rule:evenodd;clip-rule:evenodd;fill:#9E9E9F;stroke:#FFFFFF;stroke-width:1.8468;stroke-miterlimit:22.9256;}
	.st30{fill:#2F4D7C;}
	.st31{fill:#EAE8DF;}
	.st32{clip-path:url(#SVGID_2_);fill:#F9CD98;}
	.st33{clip-path:url(#SVGID_4_);fill:#F9CD98;}
	.st34{fill-rule:evenodd;clip-rule:evenodd;fill:#93D500;stroke:#FFFFFF;stroke-width:2.5022;stroke-miterlimit:22.9256;}
	.st35{fill-rule:evenodd;clip-rule:evenodd;fill:#9E9E9F;stroke:#FFFFFF;stroke-width:2.5022;stroke-miterlimit:22.9256;}
	.st36{clip-path:url(#SVGID_6_);fill:#F9CD98;}
	.st37{clip-path:url(#SVGID_8_);fill:#F9CD98;}
	.st38{clip-path:url(#SVGID_10_);}
	.st39{fill:#FFFFFF;stroke:#FFFFFF;stroke-width:0.3526;stroke-miterlimit:10;}
	.st40{opacity:0.2;}
	.st41{fill-rule:evenodd;clip-rule:evenodd;fill:#93D500;stroke:#FFFFFF;stroke-width:2.0284;stroke-miterlimit:22.9256;}
	.st42{fill-rule:evenodd;clip-rule:evenodd;fill:#9E9E9F;stroke:#FFFFFF;stroke-width:2.0284;stroke-miterlimit:22.9256;}
	.st43{clip-path:url(#SVGID_12_);fill:#F9CD98;}
	.st44{fill:none;stroke:#93D500;stroke-width:0.9108;stroke-miterlimit:10;}
	.st45{clip-path:url(#SVGID_14_);fill:#F9CD98;}
</style>
<g id="Layer_1">
</g>
<g id="Layer_2">
	<path class="st9" d="M100,200L100,200c-55.2,0-100-44.8-100-100V100C0.1,44.8,44.8,0,100,0l0,0c55.2,0,100,44.8,100,100v0.1
		C200,155.2,155.2,200,100,200z"/>
	<g>
		<path class="st2" d="M20.3,40.3h-0.4c-10.9,0-19.8-8.9-19.8-19.8v-0.4C0.1,9.2,8.9,0.3,19.9,0.3h0.4c10.9,0,19.8,8.9,19.8,19.8
			v0.4C40.1,31.4,31.2,40.3,20.3,40.3z"/>
		<g>
			<path class="st8" d="M20.3,31.3c-0.8,0-1.7-0.1-2.4-0.3s-1.5-0.6-2.1-1c-0.6-0.5-1.2-1-1.7-1.7c-0.5-0.7-0.9-1.5-1.1-2.4l3.7-1.5
				c0.3,1,0.7,1.8,1.3,2.3s1.4,0.8,2.4,0.8c0.4,0,0.8-0.1,1.2-0.2c0.4-0.1,0.7-0.3,1-0.6s0.5-0.5,0.7-0.9c0.2-0.3,0.3-0.7,0.3-1.1
				c0-0.9-0.3-1.6-1-2.1c-0.7-0.5-1.6-0.8-2.7-0.8H18v-3.6h1.6c0.4,0,0.8,0,1.2-0.2c0.4-0.1,0.7-0.3,1-0.5s0.5-0.5,0.7-0.8
				s0.3-0.7,0.3-1.2c0-0.7-0.2-1.2-0.7-1.7c-0.5-0.4-1.1-0.7-2-0.7c-0.9,0-1.6,0.2-2,0.7c-0.5,0.5-0.8,1-1,1.6l-3.6-1.5
				c0.2-0.5,0.5-1,0.8-1.6c0.4-0.5,0.8-1,1.4-1.5c0.6-0.4,1.2-0.8,2-1.1c0.7-0.3,1.6-0.4,2.6-0.4c1,0,1.9,0.1,2.7,0.4
				c0.8,0.3,1.5,0.7,2.1,1.2c0.6,0.5,1,1.1,1.4,1.8c0.3,0.7,0.5,1.4,0.5,2.2c0,0.6-0.1,1.2-0.2,1.6s-0.3,0.9-0.6,1.3
				c-0.2,0.4-0.5,0.7-0.8,1c-0.3,0.3-0.6,0.5-1,0.7v0.2c1,0.4,1.8,1,2.4,1.8s1,1.9,1,3.2c0,0.9-0.2,1.7-0.5,2.5s-0.8,1.4-1.5,2
				s-1.4,1-2.3,1.3C22.4,31.1,21.4,31.3,20.3,31.3z"/>
		</g>
	</g>
	<g>
		<path class="st8" d="M140.5,172.3h-81c-4.8,0-8.7-3.9-8.7-8.7V36.4c0-4.8,3.9-8.7,8.7-8.7h81c4.8,0,8.7,3.9,8.7,8.7v127.1
			C149.2,168.4,145.3,172.3,140.5,172.3z"/>
		<g>
			<path class="st44" d="M131.1,67.4h-61c-4.7,0-8.6-3.8-8.6-8.6v-1.5c0-4.7,3.8-8.6,8.6-8.6h61c4.7,0,8.6,3.8,8.6,8.6v1.5
				C139.7,63.6,135.8,67.4,131.1,67.4z"/>
			<g>
				<circle class="st19" cx="73.8" cy="84" r="9.5"/>
				<circle class="st19" cx="127.4" cy="84" r="9.5"/>
				<circle class="st19" cx="101.1" cy="84" r="9.5"/>
				<circle class="st19" cx="73.8" cy="108.4" r="9.5"/>
				<circle class="st19" cx="127.4" cy="108.4" r="9.5"/>
				<circle class="st19" cx="101.1" cy="108.4" r="9.5"/>
				<circle class="st19" cx="73.8" cy="132.9" r="9.5"/>
				<circle class="st19" cx="127.4" cy="132.9" r="9.5"/>
				<circle class="st19" cx="101.1" cy="132.9" r="9.5"/>
				<circle class="st14" cx="73.8" cy="157.4" r="9.5"/>
				<circle class="st3" cx="127.4" cy="157.4" r="9.5"/>
				<circle class="st19" cx="101.1" cy="157.4" r="9.5"/>
			</g>
		</g>
		<g>
			<path d="M66.6,40.8v-2c0-0.3,0.1-0.5,0.2-0.7c0.1-0.2,0.3-0.4,0.5-0.6c0.1-0.1,0.2-0.2,0.3-0.3c0.1-0.1,0.1-0.2,0.1-0.2
				c0-0.2,0-0.3-0.1-0.3c-0.1-0.1-0.2-0.1-0.4-0.1c-0.3,0-0.6,0.1-0.9,0.3v-0.7c0.2-0.1,0.4-0.2,0.6-0.2c0.2-0.1,0.4-0.1,0.7-0.1
				c0.4,0,0.7,0.1,0.9,0.3c0.2,0.2,0.3,0.4,0.3,0.7c0,0.2,0,0.4-0.1,0.5c-0.1,0.1-0.2,0.3-0.4,0.5c-0.2,0.2-0.3,0.4-0.4,0.6
				c-0.1,0.2-0.1,0.4-0.1,0.6v1.7c0,0.2,0,0.3,0.1,0.3c0,0.1,0.1,0.1,0.3,0.1h0.4v0.7h-0.8C66.9,41.7,66.6,41.4,66.6,40.8z"/>
			<path d="M69.6,41.5c-0.3-0.2-0.4-0.6-0.4-1.1c0-0.5,0.2-0.8,0.5-1c0.3-0.2,0.7-0.4,1.3-0.4h1.4v-0.3c0-0.3-0.1-0.6-0.3-0.7
				c-0.2-0.1-0.5-0.2-0.9-0.2c-0.5,0-1,0.1-1.5,0.2v-0.7c0.2-0.1,0.5-0.1,0.8-0.2c0.3,0,0.6-0.1,0.9-0.1c0.3,0,0.5,0,0.8,0.1h1.5
				l-0.1,0.7H73c0.1,0.1,0.1,0.3,0.2,0.4s0,0.3,0,0.5v2.9h-0.9v-2H71c-0.3,0-0.6,0.1-0.7,0.2C70.1,40,70,40.1,70,40.4
				c0,0.2,0.1,0.4,0.2,0.5c0.1,0.1,0.4,0.1,0.7,0.1c0.2,0,0.4,0,0.6-0.1v0.7c-0.2,0.1-0.5,0.1-0.8,0.1
				C70.2,41.8,69.9,41.7,69.6,41.5z"/>
			<path d="M72.3,35h0.9v1.4h-0.9V35z"/>
			<path d="M74.5,37.1h0.9v1.4h1.3c0.3,0,0.5-0.1,0.7-0.2c0.1-0.1,0.2-0.3,0.2-0.6v-0.6h0.9v0.6c0,0.6-0.2,1-0.7,1.2
				c0.2,0.1,0.4,0.2,0.5,0.4c0.1,0.2,0.1,0.4,0.1,0.7v1.7h-0.9v-1.6c0-0.3-0.1-0.6-0.2-0.7c-0.1-0.1-0.4-0.2-0.7-0.2h-1.3v2.4h-0.9
				V37.1z"/>
			<path d="M81.3,41.6c-0.3-0.1-0.5-0.2-0.7-0.4l-0.1,0.5h-0.8v-4.6h0.9v3.4c0.2,0.2,0.3,0.3,0.6,0.4c0.2,0.1,0.5,0.2,0.7,0.2
				c0.3,0,0.6-0.1,0.7-0.2c0.2-0.2,0.2-0.4,0.2-0.7v-3h0.9v3c0,0.5-0.1,0.9-0.4,1.2c-0.3,0.3-0.7,0.4-1.1,0.4
				C81.9,41.8,81.6,41.7,81.3,41.6z"/>
			<path d="M86.6,38.8c0-0.2,0-0.4-0.1-0.6c-0.1-0.1-0.1-0.3-0.3-0.3c-0.1-0.1-0.4-0.1-0.6-0.1c-0.2,0-0.4,0-0.6,0.1
				c-0.2,0-0.4,0.1-0.6,0.2v-0.7c0.2-0.1,0.4-0.1,0.6-0.2c0.2,0,0.5-0.1,0.7-0.1c0.6,0,1.1,0.1,1.3,0.4c0.3,0.3,0.4,0.7,0.4,1.3v3
				h-0.9V38.8z"/>
			<path d="M89.1,41.4c-0.4-0.2-0.6-0.6-0.6-1.1c0-0.2,0.1-0.4,0.2-0.6c0.1-0.2,0.3-0.3,0.5-0.4c-0.2-0.1-0.3-0.2-0.4-0.4
				c-0.1-0.2-0.2-0.4-0.2-0.6c0-0.4,0.1-0.7,0.4-1c0.3-0.2,0.6-0.3,1-0.3c0.3,0,0.5,0,0.7,0.1v0.7c-0.2,0-0.4-0.1-0.6-0.1
				c-0.5,0-0.7,0.2-0.7,0.6c0,0.4,0.3,0.6,0.8,0.6h0.5l0,0.7h-0.5c-0.5,0-0.8,0.2-0.8,0.7c0,0.2,0.1,0.4,0.3,0.5
				c0.2,0.1,0.5,0.2,0.9,0.2c0.4,0,0.7-0.1,0.9-0.2c0.2-0.2,0.3-0.4,0.3-0.7v-2.9h0.9V40c0,0.6-0.2,1.1-0.5,1.4
				c-0.3,0.3-0.9,0.4-1.5,0.4C90,41.8,89.5,41.7,89.1,41.4z"/>
			<path d="M93.8,40.8v-3.7h0.9v3.5c0,0.1,0,0.2,0.1,0.3c0.1,0.1,0.2,0.1,0.3,0.1h0.4v0.7h-0.8C94.1,41.7,93.8,41.4,93.8,40.8z"/>
			<path d="M96.8,41.4c-0.3-0.2-0.4-0.6-0.4-1.1c0-0.5,0.2-0.8,0.5-1s0.7-0.4,1.3-0.4h1.4v-0.3c0-0.2,0-0.4-0.1-0.5
				c-0.1-0.1-0.2-0.2-0.4-0.3c-0.2-0.1-0.4-0.1-0.7-0.1c-0.5,0-1,0.1-1.5,0.2v-0.7c0.2-0.1,0.5-0.1,0.8-0.2c0.3,0,0.6-0.1,0.9-0.1
				c0.7,0,1.2,0.1,1.5,0.4c0.3,0.3,0.5,0.7,0.5,1.3v2.9h-0.9v-2h-1.3c-0.3,0-0.6,0.1-0.7,0.2c-0.2,0.1-0.2,0.3-0.2,0.5
				c0,0.2,0.1,0.4,0.2,0.5c0.1,0.1,0.4,0.1,0.7,0.1c0.2,0,0.4,0,0.6-0.1v0.7c-0.2,0.1-0.5,0.1-0.8,0.1
				C97.5,41.8,97.1,41.7,96.8,41.4z"/>
			<path d="M102,41.3c-0.3-0.3-0.5-0.7-0.5-1.3v-0.4c0-0.2,0-0.3,0.1-0.5c0.1-0.2,0.2-0.3,0.3-0.5c0.1-0.1,0.2-0.2,0.2-0.3
				c0-0.1,0.1-0.2,0.1-0.2c0-0.1,0-0.1-0.1-0.2s-0.1,0-0.2,0h-0.6l0.1-0.7h1.1c0.4,0,0.6,0.2,0.6,0.6c0,0.2,0,0.3-0.1,0.5
				c-0.1,0.1-0.2,0.3-0.3,0.5c-0.1,0.2-0.2,0.3-0.3,0.5c-0.1,0.1-0.1,0.3-0.1,0.4v0.5c0,0.3,0.1,0.5,0.3,0.7
				c0.2,0.1,0.4,0.2,0.8,0.2c0.7,0,1-0.3,1-0.9v-3h0.9v2.9c0,0.5-0.2,1-0.5,1.3c-0.3,0.3-0.8,0.5-1.4,0.5
				C102.9,41.8,102.4,41.6,102,41.3z"/>
			<path d="M107.1,41.4c-0.1-0.2-0.2-0.4-0.2-0.8v-2.8c0-0.3-0.1-0.6-0.2-0.8c-0.1-0.2-0.4-0.3-0.7-0.5v-0.7h2.5v0.7h-1.4
				c0.2,0.1,0.4,0.3,0.5,0.5c0.1,0.2,0.1,0.5,0.1,0.8v2.7c0,0.2,0,0.3,0.1,0.3s0.1,0.1,0.3,0.1h0.4v0.7h-0.8
				C107.5,41.7,107.2,41.6,107.1,41.4z"/>
			<path d="M109.3,37.1h0.8l0.1,0.5c0.5-0.4,1-0.6,1.6-0.6c0.5,0,0.9,0.1,1.1,0.4s0.4,0.7,0.4,1.2v3h-0.9v-3c0-0.3-0.1-0.6-0.2-0.7
				c-0.2-0.1-0.4-0.2-0.7-0.2c-0.2,0-0.5,0.1-0.7,0.2c-0.2,0.1-0.4,0.2-0.6,0.4v3.4h-0.9V37.1z"/>
			<path d="M115.2,41.7c-0.3,0-0.5-0.1-0.7-0.2v-0.8c0.2,0.1,0.4,0.1,0.7,0.2c0.2,0,0.5,0.1,0.7,0.1c0.4,0,0.7,0,0.9-0.1
				c0.2-0.1,0.3-0.2,0.3-0.4c0-0.1,0-0.2-0.1-0.3c-0.1-0.1-0.2-0.1-0.3-0.2c-0.1-0.1-0.3-0.1-0.6-0.2l-0.3-0.1
				c-0.5-0.2-0.8-0.3-1-0.5c-0.2-0.2-0.3-0.5-0.3-0.8c0-0.4,0.2-0.7,0.5-1c0.3-0.2,0.8-0.3,1.4-0.3c0.2,0,0.5,0,0.8,0.1
				c0.3,0,0.5,0.1,0.6,0.1V38c-0.2-0.1-0.4-0.1-0.6-0.2c-0.2,0-0.4-0.1-0.6-0.1c-0.4,0-0.6,0-0.8,0.1s-0.3,0.2-0.3,0.4
				c0,0.1,0,0.2,0.1,0.3c0.1,0.1,0.2,0.1,0.3,0.2c0.1,0.1,0.3,0.1,0.6,0.2l0.2,0.1c0.5,0.2,0.8,0.3,1,0.5c0.2,0.2,0.3,0.5,0.3,0.9
				c0,0.4-0.2,0.8-0.5,1c-0.3,0.2-0.8,0.3-1.4,0.3C115.7,41.8,115.4,41.8,115.2,41.7z"/>
			<path d="M118.9,38.8c0-0.6,0.2-1,0.5-1.3c0.3-0.3,0.9-0.5,1.6-0.5c0.3,0,0.5,0,0.8,0.1h1.7l0,0.7h-0.6c0.1,0.1,0.2,0.3,0.2,0.4
				c0,0.2,0.1,0.3,0.1,0.5v2.9h-0.9v-3c0-0.6-0.4-0.9-1.1-0.9c-0.4,0-0.7,0.1-0.9,0.2c-0.2,0.2-0.3,0.4-0.3,0.7v0.9
				c0.2-0.2,0.5-0.3,0.9-0.3h0.6l0,0.7h-0.6c-0.3,0-0.6,0.1-0.9,0.3v1.3h-0.9V38.8z"/>
			<path d="M121,35.2h0.8v0.6h2.2l0,0.6H121V35.2z"/>
			<path d="M124.1,37.1h0.9l0.7,3.3l0.8-2.6v-0.7h0.7l0.9,3.3l0.7-3.3h0.9l-1,4.6h-0.8l-0.8-2.9l-0.9,2.9h-0.8L124.1,37.1z"/>
			<path d="M130.6,37.1h0.8l0.1,0.5c0.5-0.4,1-0.6,1.6-0.6c0.5,0,0.9,0.1,1.1,0.4c0.3,0.3,0.4,0.7,0.4,1.2v3h-0.9v-3
				c0-0.3-0.1-0.6-0.2-0.7c-0.2-0.1-0.4-0.2-0.7-0.2c-0.2,0-0.5,0.1-0.7,0.2c-0.2,0.1-0.4,0.2-0.6,0.4v3.4h-0.9V37.1z"/>
			<path d="M132.6,35.2h2.5l0,0.6h-1.7v0.6h-0.8V35.2z"/>
		</g>
	</g>
	<g>
		<defs>
			<path id="SVGID_13_" d="M100,200L100,200C44.8,200,0,155.2,0,100l0-0.1C0,44.8,44.8,0,100,0l0,0c55.2,0,100,44.8,100,100v0.1
				C199.9,155.2,155.2,200,100,200z"/>
		</defs>
		<clipPath id="SVGID_2_">
			<use xlink:href="#SVGID_13_"  style="overflow:visible;"/>
		</clipPath>
		<path class="st32" d="M167.9,122.4c-1.7,0.6-2.7,2.6-4.5,2.7c-1.9,0-4-0.1-5.8,0.7c-1.6,0.7-1.9,1.9-3.7,1.8
			c-1.8-0.1-6.1,1.1-7.8,1.8c-2-5.4-2.7-9.5-5.9-14.2c-2.3-3.4-4.6-5.7-8.8-4c-5.2,2-4,7.3-2.4,11.8c2.9,8.4,6.2,16.7,9.2,25
			c-1.9,0.7-6.4,2-5.5,4.4c0.7,2,1.4,3.9,2.2,5.9c1.4,3.8,2.9,7.6,4.2,11.5c1.7,4.6,4.5,6.2,9.5,7.8c1.8,0.6,3.8,1,5.4,1.9
			c1.4,2.6,2.1,5.4,2.9,8.2c1.2,4.2,2.3,9.3,6.2,12c3,2.1,6.9,2,10.4,1.6c7.3-0.9,13.2-5.3,16.9-10.4c2.8-3.9,0.3-8.7-1.6-12.8
			c-1.8-3.9-4.6-9.4-3.5-13.9c0.4-1.6,2.4-3.6,2.9-5.2c0.8-2.7,0-4.1-0.9-6.6c-1.6-4.6-3.1-9.2-4.7-13.8
			C180.2,131.6,178.3,118.5,167.9,122.4"/>
	</g>
</g>
</svg>
