<?xml version="1.0" encoding="utf-8"?>
<!-- Generator: Adobe Illustrator 23.0.3, SVG Export Plug-In . SVG Version: 6.00 Build 0)  -->
<svg version="1.1" xmlns="http://www.w3.org/2000/svg" xmlns:xlink="http://www.w3.org/1999/xlink" x="0px" y="0px"
	 viewBox="0 0 200 200" style="enable-background:new 0 0 200 200;" xml:space="preserve">
<style type="text/css">
	.st0{fill:#FFFFFF;stroke:#231F20;stroke-width:1.1161;stroke-miterlimit:10;}
	.st1{opacity:0.1;fill-rule:evenodd;clip-rule:evenodd;fill:#93D500;}
	.st2{fill-rule:evenodd;clip-rule:evenodd;fill:#93D500;}
	.st3{fill:#93D500;}
	.st4{fill-rule:evenodd;clip-rule:evenodd;fill:#93D500;stroke:#FFFFFF;stroke-width:3.1284;stroke-miterlimit:22.9256;}
	.st5{fill-rule:evenodd;clip-rule:evenodd;fill:#9E9E9F;stroke:#FFFFFF;stroke-width:3.1284;stroke-miterlimit:22.9256;}
	.st6{fill-rule:evenodd;clip-rule:evenodd;fill:#FFFFFF;}
	.st7{fill-rule:evenodd;clip-rule:evenodd;fill:#717171;}
	.st8{fill:#FFFFFF;}
	.st9{fill-rule:evenodd;clip-rule:evenodd;fill:#FAFBFC;}
	.st10{fill:#35CC62;}
	.st11{fill:#3FB401;}
	.st12{fill:#0ECCCC;}
	.st13{fill:#FEB54E;}
	.st14{fill:#FB6557;}
	.st15{fill:#333333;}
	.st16{fill:#666666;}
	.st17{fill:#999999;}
	.st18{fill:#262626;}
	.st19{fill:#E6E6E6;}
	.st20{fill:#FAFAFA;}
	.st21{fill:#FAFBFC;}
	.st22{fill-rule:evenodd;clip-rule:evenodd;fill:#E6E6E6;}
	.st23{fill-rule:evenodd;clip-rule:evenodd;fill:#FB6557;}
	.st24{fill:#E0F3FC;}
	.st25{fill:#CDEBF7;}
	.st26{opacity:0.1;fill:#231F20;}
	.st27{fill:#231F20;stroke:#231F20;stroke-width:0.3;stroke-miterlimit:10;}
	.st28{fill-rule:evenodd;clip-rule:evenodd;fill:#93D500;stroke:#FFFFFF;stroke-width:1.8468;stroke-miterlimit:22.9256;}
	.st29{fill-rule:evenodd;clip-rule:evenodd;fill:#9E9E9F;stroke:#FFFFFF;stroke-width:1.8468;stroke-miterlimit:22.9256;}
	.st30{fill:#2F4D7C;}
	.st31{fill:#EAE8DF;}
	.st32{clip-path:url(#SVGID_2_);fill:#F9CD98;}
	.st33{clip-path:url(#SVGID_4_);fill:#F9CD98;}
	.st34{fill-rule:evenodd;clip-rule:evenodd;fill:#93D500;stroke:#FFFFFF;stroke-width:2.5022;stroke-miterlimit:22.9256;}
	.st35{fill-rule:evenodd;clip-rule:evenodd;fill:#9E9E9F;stroke:#FFFFFF;stroke-width:2.5022;stroke-miterlimit:22.9256;}
	.st36{clip-path:url(#SVGID_6_);fill:#F9CD98;}
	.st37{clip-path:url(#SVGID_8_);fill:#F9CD98;}
	.st38{clip-path:url(#SVGID_10_);fill:#F9CD98;}
	.st39{clip-path:url(#SVGID_12_);}
	.st40{fill:#FFFFFF;stroke:#FFFFFF;stroke-width:0.3526;stroke-miterlimit:10;}
	.st41{opacity:0.2;}
	.st42{fill-rule:evenodd;clip-rule:evenodd;fill:#93D500;stroke:#FFFFFF;stroke-width:2.0284;stroke-miterlimit:22.9256;}
	.st43{fill-rule:evenodd;clip-rule:evenodd;fill:#9E9E9F;stroke:#FFFFFF;stroke-width:2.0284;stroke-miterlimit:22.9256;}
	.st44{clip-path:url(#SVGID_14_);fill:#F9CD98;}
</style>
<g id="Layer_1">
	<rect x="579.3" y="232.8" class="st0" width="250" height="250"/>
	<rect x="869.1" y="232.8" class="st0" width="250" height="250"/>
	<rect x="1158.9" y="232.8" class="st0" width="250" height="250"/>
	<rect x="579.3" y="519" class="st0" width="250" height="250"/>
	<rect x="869.1" y="519" class="st0" width="250" height="250"/>
	<rect x="1158.9" y="519" class="st0" width="250" height="250"/>
	<rect x="579.3" y="805.2" class="st0" width="250" height="250"/>
	<rect x="869.1" y="805.2" class="st0" width="250" height="250"/>
	<rect x="1158.9" y="805.2" class="st0" width="250" height="250"/>
</g>
<g id="Layer_2">
	<path class="st1" d="M704.3,482.8L704.3,482.8c-69,0-125-56-125-125v0c0-69,56-125,125-125h0c69,0,125,56,125,125v0
		C829.3,426.8,773.4,482.8,704.3,482.8z"/>
	<path class="st2" d="M605.6,283h-0.5c-13.7,0-24.8-11.1-24.8-24.8v-0.5c0-13.7,11.1-24.8,24.8-24.8h0.5c13.7,0,24.8,11.1,24.8,24.8
		v0.5C630.4,271.9,619.3,283,605.6,283z"/>
	<text transform="matrix(1 0 0 1 637.7657 217.9307)" style="font-family:'ArialUnicodeMS'; font-size:23.1896px;">กดปุ่ม REFUN</text>
	<text transform="matrix(1 0 0 1 932.8768 267.1157)" style="font-family:'ArialUnicodeMS'; font-size:23.1896px;">เลือกรายการ</text>
	<g>
		<path class="st3" d="M625.5,386.2c-2.9,0-5.7-1.2-7.8-3.3c-2.1-2.1-3.2-4.9-3.2-7.9l-0.1-40.5c0-3,1.1-5.8,3.2-7.9
			c2.1-2.1,4.9-3.3,7.8-3.3l163-0.6c0,0,0,0,0,0c6.1,0,11,5,11,11.1l0.1,40.5c0,3-1.1,5.8-3.2,7.9c-2.1,2.1-4.9,3.3-7.8,3.3
			L625.5,386.2C625.6,386.2,625.6,386.2,625.5,386.2z M625.4,329.3c-1.4,0-2.6,0.6-3.6,1.5c-1,1-1.5,2.3-1.5,3.8l0.1,40.5
			c0,1.4,0.6,2.7,1.5,3.7c1,1,2.3,1.5,3.6,1.5c0,0,0,0,0,0l163-0.6c1.4,0,2.6-0.6,3.6-1.5c1-1,1.5-2.3,1.5-3.8l-0.1-40.5
			c0-2.9-2.3-5.3-5.2-5.3c0,0,0,0,0,0L625.4,329.3z"/>
		<path class="st4" d="M626.4,327.1l161-0.6c4.4,0,8,3.6,8,8l0.1,39.3c0,4.4-3.6,8-8,8l-161,0.6c-4.4,0-8-3.6-8-8l-0.1-39.3
			C618.4,330.7,622,327.1,626.4,327.1z"/>
		<path class="st5" d="M626.4,327.1l47.3-0.2l0.2,55.3l-47.3,0.2c-4.4,0-8-3.6-8-8l-0.1-39.3C618.4,330.7,622,327.1,626.4,327.1z"/>
		<polygon class="st6" points="667,358.9 659.6,371.8 634.8,371.8 627.4,359 639.7,337.5 654.5,337.4 		"/>
		<polygon class="st7" points="653.8,339 636,370.2 629.2,358.6 640.4,339.1 		"/>
		<polygon class="st7" points="644.4,358.5 665.1,358.5 658.5,370.1 637.8,370.2 		"/>
		<polygon class="st2" points="654.7,340.6 664.2,356.9 650.8,357 648,352.3 		"/>
		<g>
			<path class="st8" d="M700.2,350.5c0,1.6-0.5,3.1-1.4,4.3c-0.9,1.2-2.2,2.1-3.8,2.6l5.6,9.6l-4.1,0l-5.3-9.1l-4.1,0l0,9.1l-3.8,0
				l-0.1-23.8l8.7,0c1.3,0,2.5,0.2,3.5,0.6c1,0.4,1.9,0.9,2.6,1.5c0.7,0.7,1.2,1.4,1.6,2.3S700.2,349.5,700.2,350.5z M696.4,350.5
				c0-1.2-0.4-2.1-1.1-2.8c-0.7-0.7-1.8-1.1-3.3-1l-4.9,0l0,7.9l4.8,0c1.4,0,2.5-0.4,3.3-1.1C696,352.7,696.4,351.7,696.4,350.5z"/>
			<path class="st8" d="M704.2,343.2l15-0.1l0,3.3l-11.2,0l0,6.6l10.5,0l0,3.3l-10.5,0l0,7.2l11.5,0l0,3.3l-15.2,0.1L704.2,343.2z"
				/>
			<path class="st8" d="M723.6,343.2l14.7-0.1l0,3.3l-11,0l0,6.8l10.3,0l0,3.4l-10.3,0l0,10.2l-3.7,0L723.6,343.2z"/>
			<path class="st8" d="M751.5,367.2c-1.4,0-2.7-0.2-3.9-0.6c-1.2-0.4-2.1-1-2.9-1.8c-0.8-0.8-1.4-1.9-1.9-3.1
				c-0.4-1.3-0.7-2.7-0.7-4.4l0-14.2l3.8,0l0,14.2c0,2.2,0.5,3.9,1.5,5c1,1.1,2.3,1.6,4.1,1.6s3.1-0.6,4-1.7c1-1.1,1.4-2.8,1.4-5
				l0-14.2l3.8,0l0,14.2c0,1.7-0.2,3.2-0.6,4.4c-0.4,1.3-1,2.3-1.8,3.1c-0.8,0.8-1.8,1.4-2.9,1.8C754.2,367,752.9,367.2,751.5,367.2
				z"/>
			<path class="st8" d="M780.6,343l3.8,0l0.1,23.8l-3.9,0l-8.8-14.3c-0.5-0.8-0.9-1.6-1.3-2.5c-0.4-0.9-0.7-1.7-1-2.4l-0.1,0
				c0.2,0.9,0.3,1.8,0.4,2.8c0.1,1,0.1,1.9,0.1,2.8l0,13.7l-3.8,0l-0.1-23.8l4.1,0l8.7,14.4c0.5,0.8,0.9,1.6,1.3,2.5
				c0.4,0.9,0.8,1.7,1,2.4l0.1,0c-0.1-0.9-0.3-1.8-0.3-2.8s-0.1-1.9-0.1-2.8L780.6,343z"/>
		</g>
	</g>
	<path class="st9" d="M1091.3,438.5h-193c-8.1,0-14.6-6.5-14.6-14.6v-113c0-8.1,6.5-14.6,14.6-14.6h193c8.1,0,14.6,6.5,14.6,14.6
		v113C1105.9,432,1099.4,438.5,1091.3,438.5z"/>
	<circle class="st10" cx="121.7" cy="289.7" r="40.6"/>
	<circle class="st11" cx="212.9" cy="289.7" r="40.6"/>
	<circle class="st3" cx="304.1" cy="289.7" r="40.6"/>
	<circle class="st12" cx="121.7" cy="381.7" r="40.6"/>
	<circle class="st13" cx="212.9" cy="381.7" r="40.6"/>
	<circle class="st14" cx="304.1" cy="381.7" r="40.6"/>
	<circle class="st15" cx="121.7" cy="473.7" r="40.6"/>
	<circle class="st16" cx="212.9" cy="473.7" r="40.6"/>
	<circle class="st17" cx="304.1" cy="473.7" r="40.6"/>
	<circle class="st18" cx="121.7" cy="569.1" r="40.6"/>
	<circle class="st19" cx="212.9" cy="569.1" r="40.6"/>
	<circle class="st20" cx="304.1" cy="569.1" r="40.6"/>
	<circle class="st21" cx="395.4" cy="569.1" r="40.6"/>
	<path class="st2" d="M982.3,347.9h-76.8c-3.2,0-5.7-2.6-5.7-5.7v-14.8c0-3.2,2.6-5.7,5.7-5.7h76.8c3.2,0,5.7,2.6,5.7,5.7v14.8
		C988,345.3,985.5,347.9,982.3,347.9z"/>
	<path class="st2" d="M1082.7,347.9h-76.8c-3.2,0-5.7-2.6-5.7-5.7v-14.8c0-3.2,2.6-5.7,5.7-5.7h76.8c3.2,0,5.7,2.6,5.7,5.7v14.8
		C1088.5,345.3,1085.9,347.9,1082.7,347.9z"/>
	<path class="st2" d="M982.3,383.1h-76.8c-3.2,0-5.7-2.6-5.7-5.7v-14.8c0-3.2,2.6-5.7,5.7-5.7h76.8c3.2,0,5.7,2.6,5.7,5.7v14.8
		C988,380.6,985.5,383.1,982.3,383.1z"/>
	<path class="st2" d="M1082.7,383.1h-76.8c-3.2,0-5.7-2.6-5.7-5.7v-14.8c0-3.2,2.6-5.7,5.7-5.7h76.8c3.2,0,5.7,2.6,5.7,5.7v14.8
		C1088.5,380.6,1085.9,383.1,1082.7,383.1z"/>
	<path class="st2" d="M982.3,418.4h-76.8c-3.2,0-5.7-2.6-5.7-5.7v-14.8c0-3.2,2.6-5.7,5.7-5.7h76.8c3.2,0,5.7,2.6,5.7,5.7v14.8
		C988,415.8,985.5,418.4,982.3,418.4z"/>
	<text transform="matrix(1 0 0 1 911.8401 337.8538)" style="font-family:'Kanit-Regular'; font-size:8.8771px;">สะสมแต้มสมาชิก</text>
	<text transform="matrix(1 0 0 1 1026.5068 337.8538)" style="font-family:'Kanit-Regular'; font-size:8.8771px;">บริจาค</text>
	
		<image style="overflow:visible;" width="1440" height="900" xlink:href="../../620720 แจ้งปรับการใช้งาน.jpg"  transform="matrix(1 0 0 1 268.037 1223.1063)">
	</image>
	<rect x="1246.5" y="295.9" class="st22" width="74.7" height="142.2"/>
	<g>
		<path class="st23" d="M1258.7,433.8L1258.7,433.8c-1.7,0-3.1-1.4-3.1-3.1V304.1c0-1.7,1.4-3.1,3.1-3.1l0,0c1.7,0,3.1,1.4,3.1,3.1
			v126.5C1261.8,432.4,1260.4,433.8,1258.7,433.8z"/>
		<path class="st23" d="M1309.1,433.8L1309.1,433.8c-1.7,0-3.1-1.4-3.1-3.1V304.1c0-1.7,1.4-3.1,3.1-3.1l0,0c1.7,0,3.1,1.4,3.1,3.1
			v126.5C1312.2,432.4,1310.8,433.8,1309.1,433.8z"/>
	</g>
	<rect x="1597.9" y="540.4" class="st8" width="13.1" height="7.4"/>
	<g>
		<rect x="1599" y="541.1" width="0.2" height="6"/>
	</g>
	<g>
		<rect x="1599.7" y="541.1" width="0.1" height="6"/>
	</g>
	<g>
		<rect x="1600" y="541.1" width="0.1" height="6"/>
	</g>
	<g>
		<rect x="1598.7" y="541.1" width="0.1" height="6"/>
	</g>
	<g>
		<rect x="1598.4" y="541.1" width="0.1" height="6"/>
	</g>
	<g>
		<rect x="1600.5" y="541.1" width="0.1" height="6"/>
	</g>
	<g>
		<rect x="1602" y="541.1" width="0.2" height="6"/>
	</g>
	<g>
		<rect x="1601.2" y="541.1" width="0.4" height="6"/>
	</g>
	<g>
		<rect x="1605.3" y="541.1" width="0.2" height="6"/>
	</g>
	<g>
		<rect x="1607.6" y="541.1" width="0.4" height="6"/>
	</g>
	<g>
		<rect x="1603.5" y="541.1" width="0.1" height="6"/>
	</g>
	<g>
		<rect x="1604.5" y="541.1" width="0.1" height="6"/>
	</g>
	<g>
		<rect x="1604" y="541.1" width="0.1" height="6"/>
	</g>
	<g>
		<rect x="1606.4" y="541.1" width="0.1" height="6"/>
	</g>
	<g>
		<rect x="1606.9" y="541.1" width="0.1" height="6"/>
	</g>
	<g>
		<rect x="1608.1" y="541.1" width="0.1" height="6"/>
	</g>
	<g>
		<rect x="1608.4" y="541.1" width="0.1" height="6"/>
	</g>
	<g>
		<rect x="1605.9" y="541.1" width="0.1" height="6"/>
	</g>
	<g>
		<rect x="1604.8" y="541.1" width="0.2" height="6"/>
	</g>
	<g>
		<rect x="1603" y="541.1" width="0.1" height="6"/>
	</g>
	<g>
		<rect x="1602.6" y="541.1" width="0.1" height="6"/>
	</g>
	<g>
		<rect x="1609.3" y="541.1" width="0.1" height="6"/>
	</g>
	<g>
		<rect x="1609.8" y="541.1" width="0.1" height="6"/>
	</g>
	<g>
		<rect x="1610.3" y="541.1" width="0" height="6"/>
	</g>
	<g>
		<rect x="1608.6" y="541.1" width="0.2" height="6"/>
	</g>
	<g>
		<rect x="1585.7" y="514" width="0.7" height="7.2"/>
	</g>
	<g>
		<rect x="1587.3" y="514" width="0.3" height="9.1"/>
	</g>
	<g>
		<rect x="1588.5" y="514" width="0.3" height="9.1"/>
	</g>
	<g>
		<rect x="1609.2" y="514" width="0.2" height="9.1"/>
	</g>
	<g>
		<rect x="1610" y="514" width="0.2" height="9.1"/>
	</g>
	<g>
		<rect x="1592.3" y="514" width="0.7" height="7.2"/>
	</g>
	<g>
		<rect x="1590.4" y="514" width="1.2" height="7.2"/>
	</g>
	<g>
		<rect x="1599.4" y="514" width="0.7" height="7.2"/>
	</g>
	<g>
		<rect x="1604.3" y="514" width="1.2" height="7.2"/>
	</g>
	<g>
		<rect x="1595.6" y="514" width="0.3" height="7.2"/>
	</g>
	<g>
		<rect x="1597.8" y="514" width="0.2" height="7.2"/>
	</g>
	<g>
		<rect x="1596.8" y="514" width="0.2" height="7.2"/>
	</g>
	<g>
		<rect x="1601.9" y="514" width="0.2" height="7.2"/>
	</g>
	<g>
		<rect x="1603" y="514" width="0.3" height="7.2"/>
	</g>
	<g>
		<rect x="1600.9" y="514" width="0.2" height="7.2"/>
	</g>
	<g>
		<rect x="1594.5" y="514" width="0.3" height="7.2"/>
	</g>
	<g>
		<rect x="1593.5" y="514" width="0.5" height="7.2"/>
	</g>
	<g>
		<rect x="1608.3" y="514" width="0.3" height="7.2"/>
	</g>
	<g>
		<rect x="1606.8" y="514" width="0.7" height="7.2"/>
	</g>
	<g>
		<path d="M1589.8,521.5h1.1v0.1l-0.8,0.8h-0.2l0.8-0.8L1589.8,521.5L1589.8,521.5z"/>
		<path d="M1592.5,522.3h0.4v0.1h-0.9v-0.1h0.4v-0.7l-0.3,0.1v-0.1l0.4-0.1h0.1V522.3z"/>
		<path d="M1594.4,522.3L1594.4,522.3l-1.1,0.1v-0.1l0.6-0.3c0.1,0,0.1-0.1,0.2-0.1c0,0,0.1-0.1,0.1-0.1c0,0,0-0.1-0.1-0.1
			c-0.1,0-0.1,0-0.2,0c-0.2,0-0.3,0-0.5,0.1l-0.1-0.1c0.1,0,0.1-0.1,0.2-0.1c0.1,0,0.2,0,0.3,0c0.2,0,0.3,0,0.4,0.1
			c0.1,0,0.1,0.1,0.1,0.2c0,0.1,0,0.1-0.1,0.1c0,0-0.1,0.1-0.2,0.2l-0.5,0.3H1594.4z"/>
		<path d="M1595.7,522c0.1,0,0.1,0.1,0.1,0.1c0,0.1,0,0.1-0.1,0.2c-0.1,0-0.2,0.1-0.4,0.1c-0.1,0-0.2,0-0.3,0c-0.1,0-0.2,0-0.3-0.1
			l0.1-0.1c0.2,0.1,0.3,0.1,0.5,0.1c0.1,0,0.2,0,0.3,0s0.1-0.1,0.1-0.1c0-0.1-0.1-0.2-0.4-0.2h-0.2v-0.1h0.2c0.1,0,0.2,0,0.3,0
			c0.1,0,0.1-0.1,0.1-0.1c0,0,0-0.1-0.1-0.1c-0.1,0-0.1,0-0.2,0c-0.2,0-0.3,0-0.5,0.1l-0.1-0.1c0.1,0,0.2-0.1,0.2-0.1
			c0.1,0,0.2,0,0.3,0c0.2,0,0.3,0,0.4,0.1c0.1,0,0.1,0.1,0.1,0.2c0,0.1,0,0.1-0.1,0.1s-0.1,0.1-0.2,0.1
			C1595.5,521.9,1595.6,521.9,1595.7,522z"/>
		<path d="M1597.3,522.1L1597.3,522.1l-0.3,0.1v0.2h-0.2v-0.2h-0.8v-0.1l0.8-0.6h0.2v0.6H1597.3z M1596.2,522.1h0.6v-0.4
			L1596.2,522.1z"/>
		<path d="M1598.8,522.2c-0.1-0.1-0.1-0.2-0.1-0.3c0-0.1,0-0.3,0.1-0.3c0.1-0.1,0.2-0.1,0.4-0.1c0.2,0,0.3,0,0.4,0.1
			c0.1,0.1,0.1,0.2,0.1,0.3c0,0.1,0,0.3-0.1,0.3c-0.1,0.1-0.2,0.1-0.4,0.1C1599.1,522.3,1598.9,522.3,1598.8,522.2z M1599.6,522.2
			c0.1-0.1,0.1-0.2,0.1-0.3c0-0.1,0-0.2-0.1-0.3c-0.1-0.1-0.2-0.1-0.3-0.1c-0.1,0-0.2,0-0.3,0.1s-0.1,0.1-0.1,0.3
			c0,0.1,0,0.2,0.1,0.3s0.2,0.1,0.3,0.1C1599.4,522.3,1599.5,522.2,1599.6,522.2z"/>
		<path d="M1601.1,522c0.1,0,0.1,0.1,0.1,0.1c0,0.1,0,0.1-0.1,0.2c-0.1,0-0.2,0.1-0.4,0.1c-0.1,0-0.2,0-0.3,0c-0.1,0-0.2,0-0.3-0.1
			l0.1-0.1c0.2,0.1,0.3,0.1,0.5,0.1c0.1,0,0.2,0,0.3,0s0.1-0.1,0.1-0.1c0-0.1-0.1-0.2-0.4-0.2h-0.2v-0.1h0.2c0.1,0,0.2,0,0.3,0
			c0.1,0,0.1-0.1,0.1-0.1c0,0,0-0.1-0.1-0.1c-0.1,0-0.1,0-0.2,0c-0.2,0-0.3,0-0.5,0.1l-0.1-0.1c0.1,0,0.2-0.1,0.2-0.1
			c0.1,0,0.2,0,0.3,0c0.2,0,0.3,0,0.4,0.1c0.1,0,0.1,0.1,0.1,0.2c0,0.1,0,0.1-0.1,0.1s-0.1,0.1-0.2,0.1
			C1601,521.9,1601.1,521.9,1601.1,522z"/>
		<path d="M1601.5,521.5h1.1v0.1l-0.8,0.8h-0.2l0.8-0.8L1601.5,521.5L1601.5,521.5z"/>
		<path d="M1604,522c0.1,0,0.1,0.1,0.1,0.1c0,0.1,0,0.1-0.1,0.2c-0.1,0-0.2,0.1-0.4,0.1c-0.1,0-0.2,0-0.3,0s-0.2,0-0.3-0.1l0.1-0.1
			c0.2,0.1,0.3,0.1,0.5,0.1c0.1,0,0.2,0,0.3,0c0.1,0,0.1-0.1,0.1-0.1c0-0.1-0.1-0.2-0.4-0.2h-0.2v-0.1h0.2c0.1,0,0.2,0,0.3,0
			c0.1,0,0.1-0.1,0.1-0.1c0,0,0-0.1-0.1-0.1c-0.1,0-0.1,0-0.2,0c-0.2,0-0.3,0-0.5,0.1l-0.1-0.1c0.1,0,0.2-0.1,0.2-0.1
			c0.1,0,0.2,0,0.3,0c0.2,0,0.3,0,0.4,0.1c0.1,0,0.1,0.1,0.1,0.2c0,0.1,0,0.1-0.1,0.1s-0.1,0.1-0.2,0.1
			C1603.8,521.9,1603.9,521.9,1604,522z"/>
		<path d="M1605.5,522.1L1605.5,522.1l-0.3,0.1v0.2h-0.2v-0.2h-0.8v-0.1l0.8-0.6h0.2v0.6H1605.5z M1604.5,522.1h0.6v-0.4
			L1604.5,522.1z"/>
		<path d="M1606.8,522c0.1,0,0.1,0.1,0.1,0.1c0,0.1-0.1,0.1-0.2,0.2c-0.1,0-0.3,0.1-0.4,0.1c-0.2,0-0.3,0-0.4-0.1
			c-0.1,0-0.2-0.1-0.2-0.2c0-0.1,0-0.1,0.1-0.1c0.1,0,0.1-0.1,0.3-0.1c-0.1,0-0.2,0-0.2-0.1c-0.1,0-0.1-0.1-0.1-0.1
			c0,0,0-0.1,0.1-0.1c0,0,0.1-0.1,0.2-0.1c0.1,0,0.2,0,0.3,0c0.1,0,0.2,0,0.3,0c0.1,0,0.2,0,0.2,0.1c0,0,0.1,0.1,0.1,0.1
			c0,0,0,0.1-0.1,0.1c-0.1,0-0.1,0.1-0.2,0.1C1606.7,521.9,1606.8,521.9,1606.8,522z M1606.6,522.2c0.1,0,0.1-0.1,0.1-0.1
			c0,0,0-0.1-0.1-0.1c-0.1,0-0.2,0-0.3-0.1c-0.1,0-0.2,0-0.3,0.1c-0.1,0-0.1,0.1-0.1,0.1c0,0.1,0,0.1,0.1,0.1c0.1,0,0.2,0,0.3,0
			S1606.6,522.3,1606.6,522.2z M1606.1,521.8c0.1,0,0.2,0,0.3,0.1c0.1,0,0.2,0,0.3-0.1c0.1,0,0.1-0.1,0.1-0.1c0,0,0-0.1-0.1-0.1
			c-0.1,0-0.2,0-0.3,0c-0.1,0-0.2,0-0.3,0c-0.1,0-0.1,0.1-0.1,0.1C1606,521.7,1606,521.8,1606.1,521.8z"/>
		<path d="M1608.3,522.3L1608.3,522.3l-1.1,0.1v-0.1l0.6-0.3c0.1,0,0.1-0.1,0.2-0.1c0,0,0.1-0.1,0.1-0.1c0,0,0-0.1-0.1-0.1
			s-0.1,0-0.2,0c-0.2,0-0.3,0-0.5,0.1l-0.1-0.1c0.1,0,0.1-0.1,0.2-0.1c0.1,0,0.2,0,0.3,0c0.2,0,0.3,0,0.4,0.1c0.1,0,0.1,0.1,0.1,0.2
			c0,0.1,0,0.1-0.1,0.1c0,0-0.1,0.1-0.2,0.2l-0.5,0.3H1608.3z"/>
	</g>
	<g>
		<path d="M1586.3,521.6c0.1,0.1,0.2,0.2,0.2,0.3c0,0.1-0.1,0.3-0.2,0.3c-0.1,0.1-0.3,0.1-0.5,0.1c-0.1,0-0.2,0-0.3,0
			c-0.1,0-0.2,0-0.2-0.1l0.1-0.1c0.1,0,0.2,0.1,0.2,0.1c0.1,0,0.1,0,0.2,0c0.1,0,0.3,0,0.3-0.1c0.1-0.1,0.1-0.2,0.1-0.3v0
			c0,0-0.1,0.1-0.2,0.1c-0.1,0-0.2,0-0.3,0c-0.1,0-0.2,0-0.3,0s-0.1-0.1-0.2-0.1c0,0-0.1-0.1-0.1-0.1c0-0.1,0-0.1,0.1-0.1
			c0,0,0.1-0.1,0.2-0.1c0.1,0,0.2,0,0.3,0C1586.1,521.5,1586.2,521.5,1586.3,521.6z M1586.2,521.9c0.1,0,0.1-0.1,0.1-0.1
			c0-0.1,0-0.1-0.1-0.1c-0.1,0-0.2-0.1-0.3-0.1c-0.1,0-0.2,0-0.3,0.1c-0.1,0-0.1,0.1-0.1,0.1c0,0.1,0,0.1,0.1,0.1s0.2,0.1,0.3,0.1
			C1586,521.9,1586.1,521.9,1586.2,521.9z"/>
	</g>
	
		<image style="overflow:visible;" width="116" height="76" xlink:href="9C40AD5.jpg"  transform="matrix(1 0 0 1 1777.6987 542.3704)">
	</image>
	<path id="XMLID_4706_" class="st24" d="M1283.9,256.4c0,0-19.8,0-21.5,0s-5.6,3-6,21.1c-0.4,18.1,5.6,49.5,5.6,61.5
		s-5.6,22.1-5.6,30.8c0,3,0,38.5,0,41.1c0,2.6,1.7,11.6,5.6,18.1c3.9,6.5,13.3,15.1,13.3,15.1v4.3h8.6h8.6v-4.3
		c0,0,9.5-8.6,13.3-15.1c3.9-6.5,5.6-15.5,5.6-18.1c0-2.6,0-38.1,0-41.1c0-8.6-5.6-18.7-5.6-30.8s6-43.5,5.6-61.5
		c-0.4-18.1-4.3-21.1-6-21.1S1283.9,256.4,1283.9,256.4z"/>
	<path id="XMLID_4705_" class="st25" d="M1283.9,256.4c0,0-19.8,0-21.5,0s-5.6,3-6,21.1c-0.4,18.1,5.6,49.5,5.6,61.5
		s-5.6,22.1-5.6,30.8c0,3,0,38.5,0,41.1c0,2.6,1.7,11.6,5.6,18.1c3.9,6.5,13.3,15.1,13.3,15.1v4.3h8.6V256.4z"/>
	<path id="XMLID_4704_" class="st3" d="M1276.7,448.1h14.3c1.9,0,3.4,1.5,3.4,3.4v4.3c0,1.9-1.5,3.4-3.4,3.4h-14.3
		c-1.9,0-3.4-1.5-3.4-3.4v-4.3C1273.4,449.6,1274.9,448.1,1276.7,448.1z"/>
	<path id="XMLID_4703_" class="st26" d="M1283.9,448.1h-7.8c-1.5,0-2.7,1-2.7,2.2v6.6c0,1.2,1.2,2.2,2.7,2.2h7.8V448.1z"/>
	<rect id="XMLID_4702_" x="1256.3" y="373.7" class="st3" width="55.1" height="37.3"/>
	<rect id="XMLID_4701_" x="1256.3" y="373.7" class="st26" width="27.5" height="37.3"/>
	<g>
		<polygon class="st27" points="1268.1,381.8 1275.5,381.8 1275.5,381 1267.3,381 1267.3,389.4 1268.1,389.4 		"/>
		<polygon class="st27" points="1268.1,401.5 1268.1,394.4 1267.3,394.4 1267.3,402.3 1275.5,402.3 1275.5,401.5 		"/>
		<polygon class="st27" points="1299.7,401.5 1292.2,401.5 1292.2,402.3 1300.4,402.3 1300.4,394.4 1299.7,394.4 		"/>
		<polygon class="st27" points="1299.7,381.8 1299.7,389.4 1300.4,389.4 1300.4,381 1292.2,381 1292.2,381.8 		"/>
		<rect x="1271.3" y="384.1" class="st27" width="0.8" height="15.7"/>
		<rect x="1274" y="384.1" class="st27" width="0.8" height="15.7"/>
		<rect x="1276.7" y="384.1" class="st27" width="0.8" height="15.7"/>
		<rect x="1279.4" y="384.1" class="st27" width="0.8" height="15.7"/>
		<rect x="1282.1" y="384.1" class="st27" width="0.8" height="15.7"/>
		<rect x="1284.9" y="384.1" class="st27" width="0.8" height="15.7"/>
		<rect x="1287.6" y="384.1" class="st27" width="0.8" height="15.7"/>
		<rect x="1290.3" y="384.1" class="st27" width="0.8" height="15.7"/>
		<rect x="1293" y="384.1" class="st27" width="0.8" height="15.7"/>
		<rect x="1295.7" y="384.1" class="st27" width="0.8" height="15.7"/>
	</g>
	<path class="st9" d="M800.9,710.3h-193c-8.1,0-14.6-6.5-14.6-14.6v-113c0-8.1,6.5-14.6,14.6-14.6h193c8.1,0,14.6,6.5,14.6,14.6v113
		C815.4,703.8,808.9,710.3,800.9,710.3z"/>
	<text transform="matrix(1 0 0 1 649.9059 587.6565)" style="font-family:'Kanit-Regular'; font-size:20.8875px;">คะแนนสะสม</text>
	<text transform="matrix(1 0 0 1 661.0544 649.5008)" style="font-family:'Kanit-Regular'; font-size:66.2389px;">150</text>
	<g>
		<path class="st3" d="M621.3,694c-1.7,0-3.4-0.7-4.6-1.9c-1.2-1.2-1.9-2.9-1.9-4.6l-0.1-23.9c0-1.8,0.7-3.4,1.9-4.7
			c1.2-1.3,2.9-2,4.6-2l166.1-0.3c0,0,0,0,0,0c3.6,0,6.5,2.9,6.5,6.6l0.1,23.9c0,1.8-0.7,3.4-1.9,4.7c-1.2,1.3-2.9,2-4.6,2
			L621.3,694C621.4,694,621.4,694,621.3,694z M621.3,660.4c-0.8,0-1.6,0.3-2.1,0.9c-0.6,0.6-0.9,1.4-0.9,2.2l0.1,23.9
			c0,0.8,0.3,1.6,0.9,2.2c0.6,0.6,1.3,0.9,2.1,0.9c0,0,0,0,0,0l166.1-0.3c0.8,0,1.6-0.3,2.1-0.9c0.6-0.6,0.9-1.4,0.9-2.2l-0.1-23.9
			c0-1.7-1.4-3.1-3-3.1c0,0,0,0,0,0L621.3,660.4z"/>
		<path class="st28" d="M621.8,659.1l164.9-0.3c2.6,0,4.7,2.1,4.7,4.7l0.1,23.2c0,2.6-2.1,4.7-4.7,4.7L622,691.8
			c-2.6,0-4.7-2.1-4.7-4.7l-0.1-23.2C617.1,661.3,619.3,659.1,621.8,659.1z"/>
		<path class="st29" d="M621.8,659.1l27.9-0.1l0.1,32.7l-27.9,0.1c-2.6,0-4.7-2.1-4.7-4.7l-0.1-23.2
			C617.1,661.3,619.3,659.1,621.8,659.1z"/>
		<polygon class="st6" points="645.8,677.9 641.5,685.5 626.8,685.5 622.4,677.9 629.7,665.2 638.5,665.2 		"/>
		<polygon class="st7" points="638,666.2 627.5,684.6 623.5,677.7 630.1,666.2 		"/>
		<polygon class="st7" points="632.5,677.7 644.7,677.6 640.8,684.5 628.6,684.6 		"/>
		<polygon class="st2" points="638.6,667.1 644.2,676.7 636.3,676.7 634.6,674 		"/>
		<text transform="matrix(1 0 0 1 678.4525 681.09)" style="font-family:'Kanit-Regular'; font-size:20.8875px;">สะสมแต้ม</text>
	</g>
	<path class="st30" d="M1069.3,633.8H918.9c-1.4,0-2.7-0.5-3.7-1.4c-1.1-1-1.8-2.5-1.8-4.1v0c0-0.9,0.2-1.8,0.6-2.6
		c0.9-1.7,2.8-2.9,4.9-2.9h150.4c2.1,0,3.9,1.2,4.9,2.9c0.4,0.8,0.6,1.6,0.6,2.6v0c0,1.6-0.7,3.1-1.8,4.1
		C1072,633.3,1070.7,633.8,1069.3,633.8z"/>
	<path class="st15" d="M1069.3,633.8H918.9c-1.4,0-2.7-0.5-3.7-1.4c-1.1-1-1.8-2.5-1.8-4.1v0c0-0.9,0.2-1.8,0.6-2.6
		c0.9-1.7,2.8-2.9,4.9-2.9h150.4c2.1,0,3.9,1.2,4.9,2.9c0.4,0.8,0.6,1.6,0.6,2.6v0c0,1.6-0.7,3.1-1.8,4.1
		C1072,633.3,1070.7,633.8,1069.3,633.8z"/>
	<path class="st3" d="M1069.3,635.6H918.9c-1.8,0-3.5-0.7-4.9-1.9c-1.5-1.4-2.4-3.4-2.4-5.4c0-1.2,0.3-2.4,0.8-3.4
		c1.3-2.4,3.7-3.9,6.4-3.9h150.4c2.7,0,5.2,1.5,6.4,3.9c0.6,1,0.8,2.2,0.8,3.4c0,2.1-0.9,4.1-2.4,5.4
		C1072.8,634.9,1071.1,635.6,1069.3,635.6z M918.9,624.6c-1.4,0-2.6,0.8-3.3,2c-0.3,0.5-0.4,1.1-0.4,1.7c0,1.1,0.5,2.1,1.2,2.8
		c0.7,0.6,1.6,0.9,2.5,0.9h150.4c0.9,0,1.8-0.3,2.5-0.9c0.8-0.7,1.2-1.7,1.2-2.8c0-0.6-0.1-1.2-0.4-1.7c-0.6-1.2-1.9-2-3.3-2H918.9z
		"/>
	<polygon class="st17" points="932.5,647.1 936.1,643.5 939.7,647.1 943.4,643.5 947,647.1 950.7,643.5 954.3,647.1 957.9,643.5 
		961.6,647.1 965.2,643.5 968.8,647.1 972.5,643.5 976.1,647.1 979.8,643.5 983.4,647.1 987,643.5 990.7,647.1 994.3,643.5 
		997.9,647.1 1001.6,643.5 1005.2,647.1 1008.9,643.5 1012.5,647.1 1016.1,643.5 1019.8,647.1 1023.4,643.5 1027,647.1 
		1030.7,643.5 1034.3,647.1 1038,643.5 1041.6,647.1 1045.2,643.5 1048.9,647.1 1052.4,643.6 1052.4,624.6 928.9,624.6 928.9,643.6 
			"/>
	<polygon class="st8" points="935.9,647.1 939.5,643.5 943.2,647.1 946.8,643.5 950.5,647.1 954.1,643.5 957.7,647.1 961.4,643.5 
		965,647.1 968.6,643.5 972.3,647.1 975.9,643.5 979.6,647.1 983.2,643.5 986.8,647.1 990.5,643.5 994.1,647.1 997.7,643.5 
		1001.4,647.1 1005,643.5 1008.7,647.1 1012.3,643.5 1015.9,647.1 1019.6,643.5 1023.2,647.1 1026.8,643.5 1030.5,647.1 
		1034.1,643.5 1037.8,647.1 1041.4,643.5 1045,647.1 1048.7,643.5 1052.3,647.1 1055.8,643.6 1055.8,624.6 932.4,624.6 932.4,643.6 
			"/>
	<rect x="932.4" y="624.6" class="st31" width="123.5" height="4.7"/>
	<polygon class="st17" points="1048.9,654.9 1045.2,651.1 1041.6,654.9 1038,651.1 1034.3,654.9 1030.7,651.1 1027,654.9 
		1023.4,651.1 1019.8,654.9 1016.1,651.1 1012.5,654.9 1008.9,651.1 1005.2,654.9 1001.6,651.1 997.9,654.9 994.3,651.1 
		990.7,654.9 987,651.1 983.4,654.9 979.8,651.1 976.1,654.9 972.5,651.1 968.8,654.9 965.2,651.1 961.6,654.9 957.9,651.1 
		954.3,654.9 950.7,651.1 947,654.9 943.4,651.1 939.7,654.9 936.1,651.1 932.5,654.9 928.9,651 928.9,721.8 932.5,725.3 
		936.1,721.7 939.7,725.3 943.4,721.7 947,725.3 950.7,721.7 954.3,725.3 957.9,721.7 961.6,725.3 965.2,721.7 968.8,725.3 
		972.5,721.7 976.1,725.3 979.8,721.7 983.4,725.3 987,721.7 990.7,725.3 994.3,721.7 997.9,725.3 1001.6,721.7 1005.2,725.3 
		1008.9,721.7 1012.5,725.3 1016.1,721.7 1019.8,725.3 1023.4,721.7 1027,725.3 1030.7,721.7 1034.3,725.3 1038,721.7 1041.6,725.3 
		1045.2,721.7 1048.9,725.3 1052.4,721.8 1052.4,651 	"/>
	<polygon class="st8" points="1052.3,654.9 1048.7,651.1 1045,654.9 1041.4,651.1 1037.8,654.9 1034.1,651.1 1030.5,654.9 
		1026.8,651.1 1023.2,654.9 1019.6,651.1 1015.9,654.9 1012.3,651.1 1008.7,654.9 1005,651.1 1001.4,654.9 997.7,651.1 994.1,654.9 
		990.5,651.1 986.8,654.9 983.2,651.1 979.6,654.9 975.9,651.1 972.3,654.9 968.6,651.1 965,654.9 961.4,651.1 957.7,654.9 
		954.1,651.1 950.5,654.9 946.8,651.1 943.2,654.9 939.5,651.1 935.9,654.9 932.4,651 932.4,721.8 935.9,725.3 939.5,721.7 
		943.2,725.3 946.8,721.7 950.5,725.3 954.1,721.7 957.7,725.3 961.4,721.7 965,725.3 968.6,721.7 972.3,725.3 975.9,721.7 
		979.6,725.3 983.2,721.7 986.8,725.3 990.5,721.7 994.1,725.3 997.7,721.7 1001.4,725.3 1005,721.7 1008.7,725.3 1012.3,721.7 
		1015.9,725.3 1019.6,721.7 1023.2,725.3 1026.8,721.7 1030.5,725.3 1034.1,721.7 1037.8,725.3 1041.4,721.7 1045,725.3 
		1048.7,721.7 1052.3,725.3 1055.8,721.8 1055.8,651 	"/>
	<path class="st17" d="M1069.8,592.2H916.6c-2.8,0-5,2.2-5,5v16.3h163.2v-16.3C1074.8,594.5,1072.6,592.2,1069.8,592.2z"/>
	<text transform="matrix(1 0 0 1 949.4817 607.1113)"><tspan x="0" y="0" class="st8" style="font-family:'Kanit-Regular'; font-size:12px;">ใบเสร็จ</tspan><tspan x="35.5" y="0" class="st8" style="font-family:'Montserrat-Bold'; font-size:12px;"> </tspan><tspan x="39" y="0" class="st8" style="font-family:'Maledpan-Regular'; font-size:12px;">(RECEIPT)</tspan></text>
	<text transform="matrix(1 0 0 1 595.0686 271.0916)" class="st8" style="font-family:'ProductSans-Bold'; font-size:37.8609px;">1</text>
	<path class="st2" d="M894.9,283h-0.5c-13.7,0-24.8-11.1-24.8-24.8v-0.5c0-13.7,11.1-24.8,24.8-24.8h0.5c13.7,0,24.8,11.1,24.8,24.8
		v0.5C919.6,271.9,908.5,283,894.9,283z"/>
	<text transform="matrix(1 0 0 1 884.3308 271.0916)" class="st8" style="font-family:'ProductSans-Bold'; font-size:37.8609px;">2</text>
	<g>
		<defs>
			<path id="SVGID_1_" d="M704.2,482.8L704.2,482.8c-69,0-125-56-125-125v0c0-69,56-125,125-125h0c69,0,125,56,125,125v0
				C829.2,426.8,773.3,482.8,704.2,482.8z"/>
		</defs>
		<clipPath id="SVGID_2_">
			<use xlink:href="#SVGID_1_"  style="overflow:visible;"/>
		</clipPath>
		<path class="st32" d="M748.6,385.7c-2.2,0.8-3.4,3.3-5.7,3.3c-2.4,0-5.1-0.1-7.2,0.9c-2,0.9-2.4,2.4-4.6,2.3
			c-2.3-0.1-7.6,1.4-9.7,2.3c-2.5-6.7-3.4-11.8-7.4-17.8c-2.9-4.2-5.7-7.1-11.1-5.1c-6.5,2.5-5,9.1-3,14.8
			c3.6,10.5,7.7,20.9,11.5,31.3c-2.4,0.8-7.9,2.5-6.8,5.5c0.9,2.4,1.8,4.9,2.7,7.3c1.8,4.8,3.7,9.5,5.3,14.4
			c2.1,5.7,5.6,7.8,11.9,9.8c2.2,0.7,4.8,1.2,6.8,2.3c1.7,3.2,2.7,6.8,3.6,10.3c1.4,5.3,2.9,11.7,7.7,15c3.8,2.6,8.6,2.5,13,2
			c9.1-1.1,16.6-6.6,21.1-13c3.5-4.9,0.4-10.9-2-16c-2.2-4.9-5.7-11.7-4.4-17.3c0.5-1.9,3-4.6,3.6-6.5c1-3.3,0-5.2-1.2-8.3
			c-2.1-5.7-3.9-11.5-5.9-17.3C764.1,397.3,761.6,381,748.6,385.7"/>
	</g>
	<path class="st9" d="M100,200L100,200c-55.2,0-100-44.8-100-100V100C0.1,44.8,44.8,0,100,0l0,0c55.2,0,100,44.8,100,100v0.1
		C200,155.2,155.2,200,100,200z"/>
	<path class="st9" d="M-130.6,200L-130.6,200c-55.2,0-100-44.8-100-100V100c0-55.2,44.8-100,100-100l0,0c55.2,0,100,44.8,100,100
		v0.1C-30.7,155.2-75.4,200-130.6,200z"/>
	<path class="st9" d="M-356,200L-356,200c-55.2,0-100-44.8-100-100V100c0-55.2,44.8-100,100-100l0,0c55.2,0,100,44.8,100,100v0.1
		C-256,155.2-300.8,200-356,200z"/>
	<g>
		<defs>
			<path id="SVGID_3_" d="M-549.4,320.6L-549.4,320.6c-55.2,0-100-44.8-100-100v-0.1c0-55.2,44.8-100,100-100h0
				c55.2,0,100,44.8,100,100v0.1C-449.4,275.9-494.2,320.6-549.4,320.6z"/>
		</defs>
		<clipPath id="SVGID_4_">
			<use xlink:href="#SVGID_3_"  style="overflow:visible;"/>
		</clipPath>
		<path class="st33" d="M-513.9,243c-1.7,0.6-2.7,2.6-4.5,2.7c-1.9,0-4-0.1-5.8,0.7c-1.6,0.7-1.9,1.9-3.7,1.8
			c-1.8-0.1-6.1,1.1-7.8,1.8c-2-5.4-2.7-9.5-5.9-14.2c-2.3-3.4-4.6-5.7-8.8-4c-5.2,2-4,7.3-2.4,11.8c2.9,8.4,6.2,16.7,9.2,25
			c-1.9,0.7-6.4,2-5.5,4.4c0.7,2,1.4,3.9,2.2,5.9c1.4,3.8,2.9,7.6,4.2,11.5c1.7,4.6,4.5,6.2,9.5,7.8c1.8,0.6,3.8,1,5.4,1.9
			c1.4,2.6,2.1,5.4,2.9,8.2c1.2,4.2,2.3,9.3,6.2,12c3,2.1,6.9,2,10.4,1.6c7.3-0.9,13.2-5.3,16.9-10.4c2.8-3.9,0.3-8.7-1.6-12.8
			c-1.8-3.9-4.6-9.4-3.5-13.9c0.4-1.6,2.4-3.6,2.9-5.2c0.8-2.7,0-4.1-0.9-6.6c-1.6-4.6-3.1-9.2-4.7-13.8
			C-501.5,252.2-503.5,239.2-513.9,243"/>
	</g>
	<path class="st9" d="M328-22.7L328-22.7c-55.2,0-100-44.8-100-100v-0.1c0-55.2,44.8-100,100-100h0c55.2,0,100,44.8,100,100v0.1
		C428-67.4,383.2-22.7,328-22.7z"/>
	<path class="st2" d="M248.3-182.5h-0.4c-10.9,0-19.8-8.9-19.8-19.8v-0.4c0-10.9,8.9-19.8,19.8-19.8h0.4c10.9,0,19.8,8.9,19.8,19.8
		v0.4C268.1-191.4,259.2-182.5,248.3-182.5z"/>
	<g>
		<path class="st3" d="M262.9-97.3c-2.3,0-4.6-0.9-6.2-2.6c-1.7-1.7-2.6-3.9-2.6-6.3l-0.1-32.4c0-2.4,0.9-4.6,2.6-6.3
			c1.7-1.7,3.9-2.6,6.2-2.7l130.3-0.5c0,0,0,0,0,0c4.9,0,8.8,4,8.8,8.9l0.1,32.4c0,2.4-0.9,4.6-2.6,6.3c-1.7,1.7-3.9,2.6-6.2,2.7
			L262.9-97.3C262.9-97.3,262.9-97.3,262.9-97.3z M262.8-142.9c-1.1,0-2.1,0.4-2.9,1.2c-0.8,0.8-1.2,1.9-1.2,3l0.1,32.4
			c0,1.1,0.4,2.2,1.2,3c0.8,0.8,1.8,1.2,2.9,1.2c0,0,0,0,0,0l130.3-0.5c1.1,0,2.1-0.4,2.9-1.2c0.8-0.8,1.2-1.9,1.2-3l-0.1-32.4
			c0-2.3-1.9-4.2-4.1-4.2c0,0,0,0,0,0L262.8-142.9z"/>
		<path class="st34" d="M263.6-144.6l128.7-0.4c3.5,0,6.4,2.9,6.4,6.4l0.1,31.5c0,3.5-2.9,6.4-6.4,6.4l-128.7,0.4
			c-3.5,0-6.4-2.9-6.4-6.4l-0.1-31.5C257.2-141.7,260.1-144.6,263.6-144.6z"/>
		<path class="st35" d="M263.6-144.6l37.9-0.1l0.2,44.3l-37.9,0.1c-3.5,0-6.4-2.9-6.4-6.4l-0.1-31.5
			C257.2-141.7,260.1-144.6,263.6-144.6z"/>
		<polygon class="st6" points="296.1,-119.2 290.2,-108.9 270.3,-108.8 264.3,-119.1 274.2,-136.3 286.1,-136.3 		"/>
		<polygon class="st7" points="285.5,-135 271.2,-110.1 265.8,-119.4 274.8,-135 		"/>
		<polygon class="st7" points="278,-119.4 294.6,-119.5 289.2,-110.2 272.7,-110.1 		"/>
		<polygon class="st2" points="286.2,-133.8 293.8,-120.7 283.1,-120.7 280.9,-124.5 		"/>
		<g>
			<path class="st8" d="M322.6-125.9c0,1.3-0.4,2.5-1.1,3.4c-0.7,1-1.8,1.7-3,2.1l4.5,7.7l-3.3,0l-4.3-7.3l-3.3,0l0,7.3l-3,0
				l-0.1-19l7,0c1,0,2,0.1,2.8,0.4c0.8,0.3,1.5,0.7,2.1,1.2c0.6,0.5,1,1.1,1.3,1.8S322.6-126.7,322.6-125.9z M319.5-125.9
				c0-0.9-0.3-1.7-0.9-2.3c-0.6-0.6-1.5-0.8-2.6-0.8l-3.9,0l0,6.3l3.8,0c1.1,0,2-0.3,2.6-0.9C319.2-124.1,319.5-124.9,319.5-125.9z"
				/>
			<path class="st8" d="M325.8-131.7l12,0l0,2.7l-9,0l0,5.2l8.4,0l0,2.6l-8.4,0l0,5.8l9.2,0l0,2.7l-12.1,0L325.8-131.7z"/>
			<path class="st8" d="M341.3-131.7l11.8,0l0,2.7l-8.8,0l0,5.5l8.2,0l0,2.7l-8.2,0l0,8.1l-3,0L341.3-131.7z"/>
			<path class="st8" d="M363.6-112.5c-1.1,0-2.2-0.2-3.1-0.5c-0.9-0.3-1.7-0.8-2.3-1.5c-0.6-0.7-1.1-1.5-1.5-2.5
				c-0.4-1-0.5-2.2-0.5-3.5l0-11.3l3,0l0,11.4c0,1.8,0.4,3.1,1.2,4c0.8,0.9,1.9,1.3,3.2,1.3s2.5-0.5,3.2-1.3c0.8-0.9,1.1-2.2,1.1-4
				l0-11.4l3,0l0,11.3c0,1.4-0.2,2.5-0.5,3.5c-0.3,1-0.8,1.8-1.5,2.5c-0.6,0.7-1.4,1.2-2.3,1.5C365.8-112.7,364.8-112.5,363.6-112.5
				z"/>
			<path class="st8" d="M386.9-131.9l3,0l0.1,19l-3.1,0l-7.1-11.5c-0.4-0.6-0.8-1.3-1.1-2c-0.3-0.7-0.6-1.4-0.8-1.9l-0.1,0
				c0.1,0.7,0.2,1.5,0.3,2.3c0.1,0.8,0.1,1.5,0.1,2.2l0,11l-3,0l-0.1-19l3.3,0l6.9,11.5c0.4,0.6,0.7,1.3,1.1,2
				c0.3,0.7,0.6,1.4,0.8,2l0.1,0c-0.1-0.7-0.2-1.5-0.3-2.3c-0.1-0.8-0.1-1.6-0.1-2.3L386.9-131.9z"/>
		</g>
	</g>
	<g>
		<path class="st8" d="M246.2-192v-16.1l-3.7,1.5l-1.5-3.4l6.1-2.8h3v20.7H246.2z"/>
	</g>
	<g>
		<defs>
			<path id="SVGID_5_" d="M328-22.7L328-22.7c-55.2,0-100-44.8-100-100v-0.1c0-55.2,44.8-100,100-100h0c55.2,0,100,44.8,100,100v0.1
				C427.9-67.4,383.2-22.7,328-22.7z"/>
		</defs>
		<clipPath id="SVGID_6_">
			<use xlink:href="#SVGID_5_"  style="overflow:visible;"/>
		</clipPath>
		<path class="st36" d="M363.5-100.3c-1.7,0.6-2.7,2.6-4.5,2.7c-1.9,0-4-0.1-5.8,0.7c-1.6,0.7-1.9,1.9-3.7,1.8
			c-1.8-0.1-6.1,1.1-7.8,1.8c-2-5.4-2.7-9.5-5.9-14.2c-2.3-3.4-4.6-5.7-8.8-4c-5.2,2-4,7.3-2.4,11.8c2.9,8.4,6.2,16.7,9.2,25
			c-1.9,0.7-6.4,2-5.5,4.4c0.7,2,1.4,3.9,2.2,5.9c1.4,3.8,2.9,7.6,4.2,11.5c1.7,4.6,4.5,6.2,9.5,7.8c1.8,0.6,3.8,1,5.4,1.9
			c1.4,2.6,2.1,5.4,2.9,8.2c1.2,4.2,2.3,9.3,6.2,12c3,2.1,6.9,2,10.4,1.6c7.3-0.9,13.2-5.3,16.9-10.4c2.8-3.9,0.3-8.7-1.6-12.8
			c-1.8-3.9-4.6-9.4-3.5-13.9c0.4-1.6,2.4-3.6,2.9-5.2c0.8-2.7,0-4.1-0.9-6.6c-1.6-4.6-3.1-9.2-4.7-13.8
			C375.8-91.1,373.8-104.1,363.5-100.3"/>
	</g>
	<path class="st9" d="M100-22.7L100-22.7c-55.2,0-100-44.8-100-100v-0.1c0-55.2,44.8-100,100-100h0c55.2,0,100,44.8,100,100v0.1
		C200-67.4,155.2-22.7,100-22.7z"/>
	<g>
		<defs>
			<path id="SVGID_7_" d="M100-22.7L100-22.7c-55.2,0-100-44.8-100-100l0-0.1c0-55.2,44.8-100,100-100h0c55.2,0,100,44.8,100,100
				v0.1C199.9-67.4,155.2-22.7,100-22.7z"/>
		</defs>
		<clipPath id="SVGID_8_">
			<use xlink:href="#SVGID_7_"  style="overflow:visible;"/>
		</clipPath>
		<path class="st37" d="M135.5-100.3c-1.7,0.6-2.7,2.6-4.5,2.7c-1.9,0-4-0.1-5.8,0.7c-1.6,0.7-1.9,1.9-3.7,1.8
			c-1.8-0.1-6.1,1.1-7.8,1.8c-2-5.4-2.7-9.5-5.9-14.2c-2.3-3.4-4.6-5.7-8.8-4c-5.2,2-4,7.3-2.4,11.8c2.9,8.4,6.2,16.7,9.2,25
			c-1.9,0.7-6.4,2-5.5,4.4c0.7,2,1.4,3.9,2.2,5.9c1.4,3.8,2.9,7.6,4.2,11.5c1.7,4.6,4.5,6.2,9.5,7.8c1.8,0.6,3.8,1,5.4,1.9
			c1.4,2.6,2.1,5.4,2.9,8.2c1.2,4.2,2.3,9.3,6.2,12c3,2.1,6.9,2,10.4,1.6c7.3-0.9,13.2-5.3,16.9-10.4c2.8-3.9,0.3-8.7-1.6-12.8
			c-1.8-3.9-4.6-9.4-3.5-13.9c0.4-1.6,2.4-3.6,2.9-5.2c0.8-2.7,0-4.1-0.9-6.6c-1.6-4.6-3.1-9.2-4.7-13.8
			C147.8-91.1,145.8-104.1,135.5-100.3"/>
	</g>
	<path class="st9" d="M-130.6-22.7L-130.6-22.7c-55.2,0-100-44.8-100-100v-0.1c0-55.2,44.8-100,100-100h0c55.2,0,100,44.8,100,100
		v0.1C-30.7-67.4-75.4-22.7-130.6-22.7z"/>
	<g id="_x30_1">
		<path class="st9" d="M-356-22.7L-356-22.7c-55.2,0-100-44.8-100-100v-0.1c0-55.2,44.8-100,100-100h0c55.2,0,100,44.8,100,100v0.1
			C-256-67.4-300.8-22.7-356-22.7z"/>
		<path class="st2" d="M-435.7-182.5h-0.4c-10.9,0-19.8-8.9-19.8-19.8v-0.4c0-10.9,8.9-19.8,19.8-19.8h0.4
			c10.9,0,19.8,8.9,19.8,19.8v0.4C-415.9-191.4-424.8-182.5-435.7-182.5z"/>
		<g>
			<path class="st3" d="M-421.1-97.3c-2.3,0-4.6-0.9-6.2-2.6c-1.7-1.7-2.6-3.9-2.6-6.3l-0.1-32.4c0-2.4,0.9-4.6,2.6-6.3
				c1.7-1.7,3.9-2.6,6.2-2.7l130.3-0.5c0,0,0,0,0,0c4.9,0,8.8,4,8.8,8.9l0.1,32.4c0,2.4-0.9,4.6-2.6,6.3c-1.7,1.7-3.9,2.6-6.2,2.7
				L-421.1-97.3C-421.1-97.3-421.1-97.3-421.1-97.3z M-421.2-142.9c-1.1,0-2.1,0.4-2.9,1.2c-0.8,0.8-1.2,1.9-1.2,3l0.1,32.4
				c0,1.1,0.4,2.2,1.2,3c0.8,0.8,1.8,1.2,2.9,1.2c0,0,0,0,0,0l130.3-0.5c1.1,0,2.1-0.4,2.9-1.2c0.8-0.8,1.2-1.9,1.2-3l-0.1-32.4
				c0-2.3-1.9-4.2-4.1-4.2c0,0,0,0,0,0L-421.2-142.9z"/>
			<path class="st34" d="M-420.4-144.6l128.7-0.4c3.5,0,6.4,2.9,6.4,6.4l0.1,31.5c0,3.5-2.9,6.4-6.4,6.4l-128.7,0.4
				c-3.5,0-6.4-2.9-6.4-6.4l-0.1-31.5C-426.8-141.7-423.9-144.6-420.4-144.6z"/>
			<path class="st35" d="M-420.4-144.6l37.9-0.1l0.2,44.3l-37.9,0.1c-3.5,0-6.4-2.9-6.4-6.4l-0.1-31.5
				C-426.8-141.7-423.9-144.6-420.4-144.6z"/>
			<polygon class="st6" points="-387.9,-119.2 -393.8,-108.9 -413.7,-108.8 -419.7,-119.1 -409.8,-136.3 -397.9,-136.3 			"/>
			<polygon class="st7" points="-398.5,-135 -412.8,-110.1 -418.2,-119.4 -409.2,-135 			"/>
			<polygon class="st7" points="-406,-119.4 -389.4,-119.5 -394.8,-110.2 -411.3,-110.1 			"/>
			<polygon class="st2" points="-397.8,-133.8 -390.2,-120.7 -400.9,-120.7 -403.1,-124.5 			"/>
			<g>
				<path class="st8" d="M-361.4-125.9c0,1.3-0.4,2.5-1.1,3.4c-0.7,1-1.8,1.7-3,2.1l4.5,7.7l-3.3,0l-4.3-7.3l-3.3,0l0,7.3l-3,0
					l-0.1-19l7,0c1,0,2,0.1,2.8,0.4c0.8,0.3,1.5,0.7,2.1,1.2c0.6,0.5,1,1.1,1.3,1.8S-361.4-126.7-361.4-125.9z M-364.5-125.9
					c0-0.9-0.3-1.7-0.9-2.3c-0.6-0.6-1.5-0.8-2.6-0.8l-3.9,0l0,6.3l3.8,0c1.1,0,2-0.3,2.6-0.9C-364.8-124.1-364.5-124.9-364.5-125.9
					z"/>
				<path class="st8" d="M-358.2-131.7l12,0l0,2.7l-9,0l0,5.2l8.4,0l0,2.6l-8.4,0l0,5.8l9.2,0l0,2.7l-12.1,0L-358.2-131.7z"/>
				<path class="st8" d="M-342.7-131.7l11.8,0l0,2.7l-8.8,0l0,5.5l8.2,0l0,2.7l-8.2,0l0,8.1l-3,0L-342.7-131.7z"/>
				<path class="st8" d="M-320.4-112.5c-1.1,0-2.2-0.2-3.1-0.5c-0.9-0.3-1.7-0.8-2.3-1.5c-0.6-0.7-1.1-1.5-1.5-2.5
					c-0.4-1-0.5-2.2-0.5-3.5l0-11.3l3,0l0,11.4c0,1.8,0.4,3.1,1.2,4c0.8,0.9,1.9,1.3,3.2,1.3s2.5-0.5,3.2-1.3c0.8-0.9,1.1-2.2,1.1-4
					l0-11.4l3,0l0,11.3c0,1.4-0.2,2.5-0.5,3.5c-0.3,1-0.8,1.8-1.5,2.5c-0.6,0.7-1.4,1.2-2.3,1.5
					C-318.2-112.7-319.2-112.5-320.4-112.5z"/>
				<path class="st8" d="M-297.1-131.9l3,0l0.1,19l-3.1,0l-7.1-11.5c-0.4-0.6-0.8-1.3-1.1-2c-0.3-0.7-0.6-1.4-0.8-1.9l-0.1,0
					c0.1,0.7,0.2,1.5,0.3,2.3c0.1,0.8,0.1,1.5,0.1,2.2l0,11l-3,0l-0.1-19l3.3,0l6.9,11.5c0.4,0.6,0.7,1.3,1.1,2
					c0.3,0.7,0.6,1.4,0.8,2l0.1,0c-0.1-0.7-0.2-1.5-0.3-2.3c-0.1-0.8-0.1-1.6-0.1-2.3L-297.1-131.9z"/>
			</g>
		</g>
		<g>
			<path class="st8" d="M-437.8-192v-16.1l-3.7,1.5l-1.5-3.4l6.1-2.8h3v20.7H-437.8z"/>
		</g>
		<g>
			<defs>
				<path id="SVGID_9_" d="M-356-22.7L-356-22.7c-55.2,0-100-44.8-100-100v-0.1c0-55.2,44.8-100,100-100h0c55.2,0,100,44.8,100,100
					v0.1C-256.1-67.4-300.8-22.7-356-22.7z"/>
			</defs>
			<clipPath id="SVGID_10_">
				<use xlink:href="#SVGID_9_"  style="overflow:visible;"/>
			</clipPath>
			<path class="st38" d="M-320.5-100.3c-1.7,0.6-2.7,2.6-4.5,2.7c-1.9,0-4-0.1-5.8,0.7c-1.6,0.7-1.9,1.9-3.7,1.8
				c-1.8-0.1-6.1,1.1-7.8,1.8c-2-5.4-2.7-9.5-5.9-14.2c-2.3-3.4-4.6-5.7-8.8-4c-5.2,2-4,7.3-2.4,11.8c2.9,8.4,6.2,16.7,9.2,25
				c-1.9,0.7-6.4,2-5.5,4.4c0.7,2,1.4,3.9,2.2,5.9c1.4,3.8,2.9,7.6,4.2,11.5c1.7,4.6,4.5,6.2,9.5,7.8c1.8,0.6,3.8,1,5.4,1.9
				c1.4,2.6,2.1,5.4,2.9,8.2c1.2,4.2,2.3,9.3,6.2,12c3,2.1,6.9,2,10.4,1.6c7.3-0.9,13.2-5.3,16.9-10.4c2.8-3.9,0.3-8.7-1.6-12.8
				c-1.8-3.9-4.6-9.4-3.5-13.9c0.4-1.6,2.4-3.6,2.9-5.2c0.8-2.7,0-4.1-0.9-6.6c-1.6-4.6-3.1-9.2-4.7-13.8
				C-308.2-91.1-310.2-104.1-320.5-100.3"/>
		</g>
	</g>
	<path class="st2" d="M-210.4-182.5h-0.4c-10.9,0-19.8-8.9-19.8-19.8v-0.4c0-10.9,8.9-19.8,19.8-19.8h0.4c10.9,0,19.8,8.9,19.8,19.8
		v0.4C-190.6-191.4-199.5-182.5-210.4-182.5z"/>
	<g>
		<path class="st8" d="M-217.4-192v-3.6c1.2-1.2,2.3-2.3,3.3-3.3c0.4-0.4,0.9-0.9,1.3-1.3c0.4-0.4,0.9-0.9,1.2-1.2
			c0.4-0.4,0.7-0.7,1-1s0.5-0.6,0.7-0.7c0.3-0.4,0.6-0.7,0.9-1s0.5-0.6,0.6-0.9c0.2-0.3,0.3-0.6,0.3-0.9c0.1-0.3,0.1-0.6,0.1-1
			c0-0.7-0.3-1.2-0.8-1.7c-0.5-0.5-1.2-0.7-2.1-0.7s-1.6,0.3-2.1,0.8s-0.8,1.1-1,1.7l-3.6-1.5c0.2-0.5,0.4-1.1,0.8-1.7
			c0.4-0.6,0.8-1.1,1.4-1.5c0.6-0.5,1.2-0.8,2-1.1c0.8-0.3,1.7-0.4,2.6-0.4c1,0,2,0.2,2.8,0.5c0.8,0.3,1.6,0.7,2.1,1.3
			c0.6,0.5,1,1.2,1.4,1.9c0.3,0.7,0.5,1.5,0.5,2.4c0,1.3-0.3,2.5-1,3.6c-0.6,1.1-1.4,2.1-2.3,3l-2.6,2.6c-0.7,0.7-1.5,1.5-2.3,2.3
			l0.1,0.2h8.4v3.5H-217.4z"/>
	</g>
	<g>
		<path class="st2" d="M20.3-182.4h-0.4c-10.9,0-19.8-8.9-19.8-19.8v-0.4c0-10.9,8.9-19.8,19.8-19.8h0.4c10.9,0,19.8,8.9,19.8,19.8
			v0.4C40.1-191.2,31.2-182.4,20.3-182.4z"/>
		<text transform="matrix(1 0 0 1 11.8379 -191.8897)" class="st8" style="font-family:'ProductSans-Bold'; font-size:30.2767px;">3</text>
	</g>
	<g>
		<path class="st2" d="M20.2,40h-0.4C8.9,40,0,31.1,0,20.2l0-0.4C0,8.9,8.9,0,19.8,0l0.4,0C31.1,0,40,8.9,40,19.8v0.4
			C40,31.1,31.1,40,20.2,40z"/>
		<g>
			<path class="st8" d="M21.5,17.2c0.8,0,1.6,0.2,2.3,0.5c0.7,0.3,1.4,0.8,2,1.4s1.1,1.3,1.4,2.1s0.5,1.7,0.5,2.7c0,1-0.2,2-0.6,2.8
				c-0.4,0.9-0.9,1.6-1.6,2.2s-1.5,1.1-2.3,1.5c-0.9,0.4-1.8,0.5-2.8,0.5c-1.1,0-2.1-0.2-3.1-0.6s-1.7-0.9-2.3-1.6
				c-0.7-0.7-1.2-1.4-1.5-2.3c-0.4-0.9-0.5-1.8-0.5-2.8c0-1.4,0.3-2.7,0.8-3.8s1.3-2.3,2.1-3.5l5-7.1l3.1,2.1l-4.2,6l0.2,0.2
				C20.4,17.3,20.9,17.2,21.5,17.2z M20.4,27.3c0.4,0,0.9-0.1,1.3-0.2c0.4-0.2,0.8-0.4,1.1-0.7c0.3-0.3,0.6-0.7,0.8-1.1
				c0.2-0.4,0.3-0.9,0.3-1.4c0-0.5-0.1-1-0.3-1.4c-0.2-0.4-0.4-0.8-0.8-1.1c-0.3-0.3-0.7-0.5-1.1-0.7c-0.4-0.2-0.9-0.2-1.3-0.2
				c-0.5,0-0.9,0.1-1.3,0.2c-0.4,0.2-0.8,0.4-1.1,0.7c-0.3,0.3-0.6,0.7-0.8,1.1c-0.2,0.4-0.3,0.9-0.3,1.4c0,0.5,0.1,1,0.3,1.4
				s0.5,0.8,0.8,1.1c0.3,0.3,0.7,0.5,1.1,0.7C19.5,27.2,19.9,27.3,20.4,27.3z"/>
		</g>
	</g>
	<g>
		<path class="st2" d="M-210.4,40h-0.4c-10.9,0-19.8-8.9-19.8-19.8v-0.4c0-10.9,8.9-19.8,19.8-19.8l0.4,0c10.9,0,19.8,8.9,19.8,19.8
			v0.4C-190.6,31.1-199.5,40-210.4,40z"/>
		<g>
			<path class="st8" d="M-210.3,31c-0.8,0-1.6-0.1-2.3-0.3s-1.5-0.6-2.2-1s-1.2-1-1.7-1.7c-0.5-0.7-0.9-1.5-1.1-2.5l3.6-1.4
				c0.2,1,0.7,1.8,1.3,2.4s1.4,0.9,2.4,0.9c0.5,0,0.9-0.1,1.3-0.3c0.4-0.2,0.8-0.4,1.1-0.7s0.6-0.7,0.7-1.1c0.2-0.4,0.3-0.9,0.3-1.4
				c0-0.5-0.1-0.9-0.3-1.3c-0.2-0.4-0.4-0.8-0.7-1.1c-0.3-0.3-0.7-0.6-1.1-0.7c-0.4-0.2-0.9-0.3-1.4-0.3c-0.6,0-1.2,0.1-1.7,0.4
				c-0.5,0.3-0.9,0.6-1.2,1l-3.8-1.8l1.2-10.4h11.7v3.5h-8.4l-0.8,4.8l0.2,0.1c0.4-0.3,0.9-0.6,1.5-0.9c0.6-0.2,1.3-0.4,2.1-0.4
				c0.9,0,1.7,0.2,2.5,0.5c0.8,0.3,1.5,0.8,2.1,1.4c0.6,0.6,1.1,1.3,1.5,2.2c0.4,0.9,0.5,1.8,0.5,2.9c0,1-0.2,2-0.5,2.8
				c-0.4,0.9-0.9,1.6-1.5,2.2c-0.7,0.6-1.4,1.1-2.3,1.5C-208.2,30.8-209.2,31-210.3,31z"/>
		</g>
	</g>
	<g>
		<path class="st2" d="M-435.7,40h-0.4c-10.9,0-19.8-8.9-19.8-19.8v-0.4c0-10.9,8.9-19.8,19.8-19.8l0.4,0c10.9,0,19.8,8.9,19.8,19.8
			v0.4C-415.9,31.1-424.8,40-435.7,40z"/>
		<g>
			<path class="st8" d="M-436.2,30.5v-3.8h-9.6v-3.2l9.2-13.7h4.3V23h2.6v3.7h-2.6v3.8H-436.2z M-436.2,15.7h-0.2l-4.9,7.3h5.2V15.7
				z"/>
		</g>
	</g>
	<path class="st2" d="M-67.7-126.5h-125.9c-5.2,0-9.4-4.2-9.4-9.4v-24.3c0-5.2,4.2-9.4,9.4-9.4h125.9c5.2,0,9.4,4.2,9.4,9.4v24.3
		C-58.3-130.7-62.5-126.5-67.7-126.5z"/>
	<g>
		<path class="st8" d="M-189-142.7c-0.6-0.5-0.9-1.2-0.9-2.2c0-0.9,0.3-1.7,0.9-2.2s1.6-0.8,2.8-0.8h2.9v-0.6c0-0.7-0.2-1.2-0.5-1.5
			s-1-0.4-1.9-0.4c-1.1,0-2.2,0.2-3.1,0.5v-1.5c0.5-0.2,1-0.3,1.6-0.4c0.6-0.1,1.2-0.2,1.8-0.2c0.6,0,1.1,0.1,1.6,0.2h3.2l-0.1,1.5
			h-1.1c0.2,0.2,0.3,0.5,0.3,0.8c0.1,0.3,0.1,0.7,0.1,1.1v6.1h-1.9v-4.2h-2.8c-0.7,0-1.2,0.1-1.5,0.3s-0.5,0.6-0.5,1.1
			c0,0.5,0.1,0.9,0.4,1.1c0.3,0.2,0.8,0.3,1.5,0.3c0.5,0,0.9,0,1.2-0.1v1.5c-0.5,0.1-1.1,0.2-1.7,0.2
			C-187.6-142-188.4-142.3-189-142.7z"/>
		<path class="st8" d="M-179.2-150.4h1.6v0.9h2.6l-0.1,1.4h-4.2V-150.4z M-179.2-145.6h1.6v0.9h2.6l-0.1,1.4h-4.2V-145.6z"/>
		<path class="st8" d="M-172.5-142.7c-0.6-0.5-0.9-1.2-0.9-2.2c0-0.9,0.3-1.7,0.9-2.2s1.6-0.8,2.8-0.8h2.9v-0.6
			c0-0.7-0.2-1.2-0.5-1.5s-1-0.4-1.9-0.4c-1.1,0-2.2,0.2-3.1,0.5v-1.5c0.5-0.2,1-0.3,1.6-0.4c0.6-0.1,1.2-0.2,1.8-0.2
			c0.6,0,1.1,0.1,1.6,0.2h3.2l-0.1,1.5h-1.1c0.2,0.2,0.3,0.5,0.3,0.8c0.1,0.3,0.1,0.7,0.1,1.1v6.1h-1.9v-4.2h-2.8
			c-0.7,0-1.2,0.1-1.5,0.3s-0.5,0.6-0.5,1.1c0,0.5,0.1,0.9,0.4,1.1c0.3,0.2,0.8,0.3,1.5,0.3c0.5,0,0.9,0,1.2-0.1v1.5
			c-0.5,0.1-1.1,0.2-1.7,0.2C-171.1-142-171.9-142.3-172.5-142.7z"/>
		<path class="st8" d="M-159-142.3c-0.5-0.2-1-0.5-1.5-0.9l-0.1,1h-1.8v-9.6h1.9v7.1c0.3,0.3,0.7,0.6,1.2,0.8
			c0.5,0.2,0.9,0.3,1.5,0.3c0.7,0,1.2-0.2,1.5-0.5c0.3-0.3,0.5-0.8,0.5-1.5v-6.2h1.9v6.3c0,1.1-0.3,2-0.9,2.6
			c-0.6,0.6-1.4,0.9-2.4,0.9C-157.8-142-158.4-142.1-159-142.3z"/>
		<path class="st8" d="M-151.6-144v-7.7h1.9v7.3c0,0.3,0.1,0.5,0.2,0.6c0.1,0.1,0.3,0.2,0.6,0.2h0.7v1.5h-1.6
			C-151-142.2-151.6-142.8-151.6-144z M-147.3-144v-7.7h1.9v7.3c0,0.3,0.1,0.5,0.2,0.6c0.1,0.1,0.3,0.2,0.6,0.2h0.7v1.5h-1.6
			C-146.7-142.2-147.3-142.8-147.3-144z"/>
		<path class="st8" d="M-141.3-143.2c-0.7-0.8-1.1-2-1.1-3.6c0-1.6,0.3-2.9,0.8-3.8c0.5-0.9,1.3-1.3,2.3-1.3c0.5,0,0.8,0.1,1.1,0.2
			c0.3,0.2,0.6,0.4,0.8,0.7c0.2-0.3,0.6-0.5,1-0.7s0.8-0.3,1.2-0.3c0.7,0,1.3,0.2,1.7,0.7c0.4,0.4,0.6,1.1,0.6,1.9v7.2h-1.9v-6.9
			c0-0.5-0.1-0.8-0.2-1c-0.1-0.2-0.4-0.3-0.7-0.3c-0.2,0-0.5,0.1-0.7,0.2c-0.2,0.1-0.3,0.3-0.4,0.6h-1.1c-0.2-0.3-0.3-0.5-0.5-0.6
			c-0.2-0.1-0.4-0.2-0.6-0.2c-0.6,0-1,0.3-1.2,0.9c-0.2,0.6-0.3,1.5-0.3,2.6c0,1.2,0.2,2,0.6,2.5s1,0.8,1.8,0.8c0.5,0,1,0,1.2-0.1
			v1.5c-0.4,0.1-0.9,0.2-1.6,0.2C-139.7-142-140.6-142.4-141.3-143.2z"/>
		<path class="st8" d="M-136.9-154.9h-1.4v-1.3h2.7v1.6h3.8l-0.1,1.3h-5.1V-154.9z"/>
		<path class="st8" d="M-127.2-142.3c-0.5-0.2-1-0.5-1.5-0.9l-0.1,1h-1.8v-9.6h1.9v7.1c0.3,0.3,0.7,0.6,1.2,0.8
			c0.5,0.2,0.9,0.3,1.5,0.3c0.7,0,1.2-0.2,1.5-0.5c0.3-0.3,0.5-0.8,0.5-1.5v-6.2h1.9v6.3c0,1.1-0.3,2-0.9,2.6
			c-0.6,0.6-1.4,0.9-2.4,0.9C-126.1-142-126.7-142.1-127.2-142.3z"/>
		<path class="st8" d="M-119.3-142.7c-0.6-0.5-0.9-1.2-0.9-2.2c0-0.9,0.3-1.7,0.9-2.2s1.6-0.8,2.8-0.8h2.9v-0.6
			c0-0.7-0.2-1.2-0.5-1.5s-1-0.4-1.9-0.4c-1.1,0-2.2,0.2-3.1,0.5v-1.5c0.5-0.2,1-0.3,1.6-0.4c0.6-0.1,1.2-0.2,1.8-0.2
			c0.6,0,1.1,0.1,1.6,0.2h3.2l-0.1,1.5h-1.1c0.2,0.2,0.3,0.5,0.3,0.8c0.1,0.3,0.1,0.7,0.1,1.1v6.1h-1.9v-4.2h-2.8
			c-0.7,0-1.2,0.1-1.5,0.3s-0.5,0.6-0.5,1.1c0,0.5,0.1,0.9,0.4,1.1c0.3,0.2,0.8,0.3,1.5,0.3c0.5,0,0.9,0,1.2-0.1v1.5
			c-0.5,0.1-1.1,0.2-1.7,0.2C-117.9-142-118.7-142.3-119.3-142.7z"/>
		<path class="st8" d="M-105.8-142.3c-0.5-0.2-1-0.5-1.5-0.9l-0.1,1h-1.8v-9.6h1.9v7.1c0.3,0.3,0.7,0.6,1.2,0.8
			c0.5,0.2,0.9,0.3,1.5,0.3c0.7,0,1.2-0.2,1.5-0.5c0.3-0.3,0.5-0.8,0.5-1.5v-6.2h1.9v6.3c0,1.1-0.3,2-0.9,2.6
			c-0.6,0.6-1.4,0.9-2.4,0.9C-104.6-142-105.2-142.1-105.8-142.3z"/>
		<path class="st8" d="M-94.8-148.2c0-0.5-0.1-0.9-0.2-1.2s-0.3-0.5-0.6-0.7c-0.3-0.2-0.7-0.2-1.3-0.2c-0.4,0-0.8,0-1.2,0.1
			s-0.8,0.2-1.2,0.3v-1.5c0.4-0.2,0.8-0.3,1.3-0.4c0.5-0.1,1-0.2,1.5-0.2c1.3,0,2.2,0.3,2.8,0.8c0.6,0.6,0.9,1.4,0.9,2.6v6.3h-1.9
			V-148.2z"/>
		<path class="st8" d="M-89.7-143c-0.7-0.6-1-1.5-1-2.7v-0.9c0-0.4,0.1-0.7,0.2-1.1c0.2-0.3,0.4-0.7,0.7-1.1
			c0.2-0.3,0.4-0.5,0.5-0.7c0.1-0.2,0.1-0.3,0.1-0.5c0-0.2,0-0.3-0.1-0.4s-0.2-0.1-0.4-0.1H-91l0.2-1.5h2.2c0.9,0,1.3,0.4,1.3,1.3
			c0,0.4-0.1,0.7-0.2,1c-0.1,0.3-0.3,0.6-0.6,1.1c-0.3,0.4-0.5,0.7-0.6,1c-0.1,0.3-0.2,0.6-0.2,0.9v1.1c0,1.3,0.7,1.9,2.2,1.9
			c1.5,0,2.2-0.6,2.2-1.9v-1.2c0-0.6-0.1-0.9-0.3-1.2c-0.2-0.2-0.5-0.3-1-0.3h-0.5l0.1-1.4h0.4c0.5,0,0.8-0.1,1-0.3
			c0.2-0.2,0.3-0.6,0.3-1.1v-0.9h1.9v0.9c0,0.6-0.1,1.1-0.3,1.4c-0.2,0.3-0.5,0.6-1,0.8c0.5,0.2,0.8,0.5,1,0.8s0.3,0.8,0.3,1.4v1
			c0,1.1-0.4,2-1.1,2.7c-0.7,0.6-1.7,0.9-3,0.9C-88-142-89-142.3-89.7-143z"/>
		<path class="st8" d="M-89.9-154.6h7.3v1.3H-90L-89.9-154.6z"/>
		<path class="st8" d="M-80.2-145.7c0-1.2,0.5-1.9,1.4-2.2l-1.9-0.5v-2c0.5-0.5,1.2-0.9,2-1.2c0.8-0.3,1.7-0.5,2.6-0.5
			c1.5,0,2.5,0.3,3.3,0.9c0.7,0.6,1.1,1.6,1.1,2.9v5.9h-1.9v-6c0-0.8-0.2-1.4-0.6-1.7c-0.4-0.3-1-0.5-2-0.5c-0.6,0-1.1,0.1-1.6,0.2
			s-0.9,0.4-1.2,0.7v0.3l2,0.5v1.3c-0.5,0.1-0.8,0.3-1,0.6c-0.2,0.3-0.3,0.7-0.3,1.2v3.4h-1.9V-145.7z"/>
	</g>
	<path class="st2" d="M-67.7-75.7h-125.9c-5.2,0-9.4-4.2-9.4-9.4v-24.3c0-5.2,4.2-9.4,9.4-9.4h125.9c5.2,0,9.4,4.2,9.4,9.4v24.3
		C-58.3-79.9-62.5-75.7-67.7-75.7z"/>
	<g>
		<path class="st8" d="M-152.7-92.1c-0.8-0.7-1.1-1.6-1.1-2.9v-5.9h1.9v5.9c0,0.8,0.2,1.4,0.6,1.7c0.4,0.4,1,0.6,1.8,0.6
			s1.4-0.2,1.8-0.6c0.4-0.4,0.6-0.9,0.6-1.7v-5.9h1.9v5.9c0,1.3-0.4,2.3-1.1,2.9c-0.8,0.7-1.8,1-3.2,1
			C-150.9-91.2-152-91.5-152.7-92.1z"/>
		<path class="st8" d="M-141.6-91.3c-0.6-0.1-1.1-0.2-1.4-0.4v-1.6c0.4,0.2,0.9,0.3,1.4,0.4c0.5,0.1,1,0.1,1.5,0.1
			c0.9,0,1.5-0.1,1.8-0.2c0.4-0.2,0.5-0.5,0.5-0.9c0-0.3-0.1-0.5-0.2-0.7c-0.1-0.2-0.3-0.3-0.6-0.4c-0.2-0.1-0.6-0.2-1.2-0.4
			l-0.7-0.2c-1-0.3-1.7-0.7-2.2-1.1c-0.5-0.4-0.7-1-0.7-1.7c0-0.9,0.3-1.5,1-2c0.6-0.5,1.6-0.7,2.9-0.7c0.5,0,1,0,1.6,0.1
			c0.5,0.1,1,0.2,1.3,0.3v1.6c-0.4-0.1-0.8-0.3-1.3-0.3c-0.5-0.1-0.9-0.1-1.4-0.1c-0.7,0-1.3,0.1-1.7,0.2c-0.4,0.2-0.6,0.5-0.6,0.9
			c0,0.2,0.1,0.5,0.2,0.6s0.4,0.3,0.6,0.4c0.3,0.1,0.7,0.3,1.3,0.5l0.5,0.2c1,0.3,1.7,0.7,2.2,1.1s0.7,1,0.7,1.8c0,0.9-0.3,1.6-1,2
			c-0.7,0.4-1.6,0.7-2.9,0.7C-140.4-91.2-141-91.2-141.6-91.3z"/>
		<path class="st8" d="M-143.5-103.7h7.3v1.3h-7.4L-143.5-103.7z"/>
		<path class="st8" d="M-131-91.2c-0.3,0-0.5-0.1-0.7-0.2l-1.4-3.8h-1.2l0.1-1.5h2.4l1.5,3.9c0.8,0,1.5-0.2,2-0.8
			c0.5-0.6,0.8-1.5,0.8-2.7c0-0.8-0.1-1.5-0.3-2s-0.6-0.8-1.1-1c-0.5-0.2-1.2-0.3-2.1-0.3c-1.1,0-2.1,0.2-3,0.5v-1.5
			c1.1-0.4,2.3-0.5,3.5-0.5c1.7,0,2.9,0.4,3.6,1.2c0.8,0.8,1.2,2,1.2,3.6c0,1.1-0.2,2-0.6,2.7c-0.4,0.8-0.9,1.3-1.6,1.7
			c-0.7,0.4-1.4,0.6-2.2,0.6C-130.4-91.2-130.7-91.2-131-91.2z"/>
		<path class="st8" d="M-120.3-97.4c0-0.5-0.1-0.9-0.2-1.2s-0.3-0.5-0.6-0.7c-0.3-0.2-0.7-0.2-1.3-0.2c-0.4,0-0.8,0-1.2,0.1
			s-0.8,0.2-1.2,0.3v-1.5c0.4-0.2,0.8-0.3,1.3-0.4c0.5-0.1,1-0.2,1.5-0.2c1.3,0,2.2,0.3,2.8,0.8c0.6,0.6,0.9,1.4,0.9,2.6v6.3h-1.9
			V-97.4z"/>
		<path class="st8" d="M-116.1-97.4c0-1.2,0.4-2.1,1.1-2.7s1.8-1,3.3-1c1.5,0,2.5,0.3,3.3,1c0.7,0.6,1.1,1.5,1.1,2.7v6.1h-1.9v-6.2
			c0-1.3-0.8-2-2.4-2c-0.8,0-1.4,0.2-1.8,0.5s-0.6,0.8-0.6,1.5v2c0.5-0.4,1.1-0.6,1.9-0.6h1.2l0.1,1.5h-1.3c-0.7,0-1.3,0.2-1.8,0.6
			v2.8h-1.9V-97.4z"/>
	</g>
	<g>
		<defs>
			<path id="SVGID_11_" d="M-356,200L-356,200c-55.2,0-100-44.8-100-100V100c0-55.2,44.8-100,100-100l0,0c55.2,0,100,44.8,100,100
				v0.1C-256,155.2-300.8,200-356,200z"/>
		</defs>
		<clipPath id="SVGID_12_">
			<use xlink:href="#SVGID_11_"  style="overflow:visible;"/>
		</clipPath>
		<g class="st39">
			<g>
				<path class="st22" d="M-317.1,183.2h-77.7c-2.8,0-5-2.2-5-5V21.1c0-2.8,2.2-5,5-5h77.7c2.8,0,5,2.2,5,5v157.1
					C-312.1,181-314.4,183.2-317.1,183.2z"/>
				<g>
					<path class="st23" d="M-385.6,178.2L-385.6,178.2c-2,0-3.7-1.6-3.7-3.7V25.8c0-2,1.6-3.7,3.7-3.7l0,0c2,0,3.7,1.6,3.7,3.7
						v148.7C-381.9,176.5-383.6,178.2-385.6,178.2z"/>
					<path class="st23" d="M-326.4,178.2L-326.4,178.2c-2,0-3.7-1.6-3.7-3.7V25.8c0-2,1.6-3.7,3.7-3.7l0,0c2,0,3.7,1.6,3.7,3.7
						v148.7C-322.7,176.5-324.4,178.2-326.4,178.2z"/>
				</g>
			</g>
			<g>
				<path id="XMLID_6_" class="st24" d="M-356-45.9c0,0-23.3,0-25.3,0c-2,0-6.6,3.5-7.1,24.8c-0.5,21.2,6.6,58.2,6.6,72.3
					s-6.6,26-6.6,36.2c0,3.5,0,45.3,0,48.3c0,3,2,13.7,6.6,21.2s15.7,17.7,15.7,17.7v5.1h10.1h10.1v-5.1c0,0,11.1-10.1,15.7-17.7
					c4.6-7.6,6.6-18.2,6.6-21.2c0-3,0-44.8,0-48.3c0-10.1-6.6-22-6.6-36.2s7.1-51.1,6.6-72.3c-0.5-21.2-5.1-24.8-7.1-24.8
					S-356-45.9-356-45.9z"/>
				<path id="XMLID_5_" class="st25" d="M-356-45.9c0,0-23.3,0-25.3,0c-2,0-6.6,3.5-7.1,24.8c-0.5,21.2,6.6,58.2,6.6,72.3
					s-6.6,26-6.6,36.2c0,3.5,0,45.3,0,48.3c0,3,2,13.7,6.6,21.2s15.7,17.7,15.7,17.7v5.1h10.1V-45.9z"/>
				<path id="XMLID_4_" class="st3" d="M-364.4,179.3h16.9c2.2,0,3.9,1.8,3.9,3.9v5.1c0,2.2-1.8,3.9-3.9,3.9h-16.9
					c-2.2,0-3.9-1.8-3.9-3.9v-5.1C-368.3,181.1-366.6,179.3-364.4,179.3z"/>
				<path id="XMLID_3_" class="st26" d="M-356,179.3h-9.2c-1.8,0-3.2,1.2-3.2,2.6v7.8c0,1.4,1.4,2.6,3.2,2.6h9.2V179.3z"/>
				<rect id="XMLID_2_" x="-388.3" y="91.8" class="st3" width="64.7" height="43.8"/>
				<rect id="XMLID_1_" x="-388.4" y="91.8" class="st26" width="32.4" height="43.8"/>
				<g>
					<polygon class="st40" points="-374.5,101.4 -365.8,101.4 -365.8,100.5 -375.4,100.5 -375.4,110.3 -374.5,110.3 					"/>
					<polygon class="st40" points="-374.5,124.5 -374.5,116.3 -375.4,116.3 -375.4,125.4 -365.8,125.4 -365.8,124.5 					"/>
					<polygon class="st40" points="-337.4,124.5 -346.2,124.5 -346.2,125.4 -336.5,125.4 -336.5,116.3 -337.4,116.3 					"/>
					<polygon class="st40" points="-337.4,101.4 -337.4,110.3 -336.5,110.3 -336.5,100.5 -346.2,100.5 -346.2,101.4 					"/>
					<rect x="-370.8" y="104" class="st40" width="0.9" height="18.5"/>
					<rect x="-367.6" y="104" class="st40" width="0.9" height="18.5"/>
					<rect x="-364.4" y="104" class="st40" width="0.9" height="18.5"/>
					<rect x="-361.2" y="104" class="st40" width="0.9" height="18.5"/>
					<rect x="-358" y="104" class="st40" width="0.9" height="18.5"/>
					<rect x="-354.8" y="104" class="st40" width="0.9" height="18.5"/>
					<rect x="-351.6" y="104" class="st40" width="0.9" height="18.5"/>
					<rect x="-348.4" y="104" class="st40" width="0.9" height="18.5"/>
					<rect x="-345.2" y="104" class="st40" width="0.9" height="18.5"/>
					<rect x="-342" y="104" class="st40" width="0.9" height="18.5"/>
				</g>
			</g>
		</g>
	</g>
	<g class="st41">
		<path class="st3" d="M-420.5,58.8h27.7c0.9,0,1.6-0.7,1.6-1.6v0c0-0.9-0.7-1.6-1.6-1.6h-30.9c-0.9,0-1.6,0.7-1.6,1.6v31.7
			c0,0.9,0.7,1.6,1.6,1.6l0,0c0.9,0,1.6-0.7,1.6-1.6V60.4C-422.1,59.5-421.4,58.8-420.5,58.8z"/>
		<path class="st3" d="M-422.1,139.6v-26.2c0-0.9-0.7-1.6-1.6-1.6l0,0c-0.9,0-1.6,0.7-1.6,1.6v29.5c0,0.9,0.7,1.6,1.6,1.6h30.9
			c0.9,0,1.6-0.7,1.6-1.6l0,0c0-0.9-0.7-1.6-1.6-1.6h-27.7C-421.4,141.2-422.1,140.5-422.1,139.6z"/>
		<path class="st3" d="M-291.5,141.2h-28.1c-0.9,0-1.6,0.7-1.6,1.6l0,0c0,0.9,0.7,1.6,1.6,1.6h31.4c0.9,0,1.6-0.7,1.6-1.6v-29.5
			c0-0.9-0.7-1.6-1.6-1.6l0,0c-0.9,0-1.6,0.7-1.6,1.6v26.2C-289.9,140.5-290.6,141.2-291.5,141.2z"/>
		<path class="st3" d="M-289.9,60.4v28.4c0,0.9,0.7,1.6,1.6,1.6l0,0c0.9,0,1.6-0.7,1.6-1.6V57.2c0-0.9-0.7-1.6-1.6-1.6h-31.4
			c-0.9,0-1.6,0.7-1.6,1.6v0c0,0.9,0.7,1.6,1.6,1.6h28.1C-290.6,58.8-289.9,59.5-289.9,60.4z"/>
		<path class="st3" d="M-407.2,134L-407.2,134c-0.9,0-1.6-0.7-1.6-1.6V69.8c0-0.9,0.7-1.6,1.6-1.6l0,0c0.9,0,1.6,0.7,1.6,1.6v62.5
			C-405.6,133.2-406.3,134-407.2,134z"/>
		<path class="st3" d="M-395.8,134L-395.8,134c-0.9,0-1.6-0.7-1.6-1.6V69.8c0-0.9,0.7-1.6,1.6-1.6l0,0c0.9,0,1.6,0.7,1.6,1.6v62.5
			C-394.2,133.2-394.9,134-395.8,134z"/>
		<path class="st3" d="M-384.4,134L-384.4,134c-0.9,0-1.6-0.7-1.6-1.6V69.8c0-0.9,0.7-1.6,1.6-1.6l0,0c0.9,0,1.6,0.7,1.6,1.6v62.5
			C-382.8,133.2-383.5,134-384.4,134z"/>
		<path class="st3" d="M-373,134L-373,134c-0.9,0-1.6-0.7-1.6-1.6V69.8c0-0.9,0.7-1.6,1.6-1.6l0,0c0.9,0,1.6,0.7,1.6,1.6v62.5
			C-371.4,133.2-372.2,134-373,134z"/>
		<path class="st3" d="M-361.7,134L-361.7,134c-0.9,0-1.6-0.7-1.6-1.6V69.8c0-0.9,0.7-1.6,1.6-1.6l0,0c0.9,0,1.6,0.7,1.6,1.6v62.5
			C-360,133.2-360.8,134-361.7,134z"/>
		<path class="st3" d="M-350.3,134L-350.3,134c-0.9,0-1.6-0.7-1.6-1.6V69.8c0-0.9,0.7-1.6,1.6-1.6l0,0c0.9,0,1.6,0.7,1.6,1.6v62.5
			C-348.7,133.2-349.4,134-350.3,134z"/>
		<path class="st3" d="M-338.9,134L-338.9,134c-0.9,0-1.6-0.7-1.6-1.6V69.8c0-0.9,0.7-1.6,1.6-1.6l0,0c0.9,0,1.6,0.7,1.6,1.6v62.5
			C-337.3,133.2-338,134-338.9,134z"/>
		<path class="st3" d="M-327.5,134L-327.5,134c-0.9,0-1.6-0.7-1.6-1.6V69.8c0-0.9,0.7-1.6,1.6-1.6l0,0c0.9,0,1.6,0.7,1.6,1.6v62.5
			C-325.9,133.2-326.6,134-327.5,134z"/>
		<path class="st3" d="M-316.1,134L-316.1,134c-0.9,0-1.6-0.7-1.6-1.6V69.8c0-0.9,0.7-1.6,1.6-1.6h0c0.9,0,1.6,0.7,1.6,1.6v62.5
			C-314.5,133.2-315.2,134-316.1,134z"/>
		<path class="st3" d="M-304.7,134L-304.7,134c-0.9,0-1.6-0.7-1.6-1.6V69.8c0-0.9,0.7-1.6,1.6-1.6l0,0c0.9,0,1.6,0.7,1.6,1.6v62.5
			C-303.1,133.2-303.8,134-304.7,134z"/>
	</g>
	<g>
		<path class="st3" d="M-183.4,161.5c-1.9,0-3.7-0.8-5-2.1c-1.4-1.4-2.1-3.2-2.1-5.1l-0.1-26.3c0-1.9,0.7-3.7,2.1-5.1
			c1.4-1.4,3.1-2.1,5.1-2.2l105.6-0.4c0,0,0,0,0,0c3.9,0,7.1,3.2,7.2,7.2l0.1,26.3c0,1.9-0.7,3.7-2.1,5.1c-1.4,1.4-3.1,2.1-5.1,2.2
			L-183.4,161.5C-183.4,161.5-183.4,161.5-183.4,161.5z M-183.5,124.5c-0.9,0-1.7,0.4-2.3,1c-0.6,0.7-1,1.5-1,2.4l0.1,26.3
			c0,0.9,0.4,1.8,1,2.4c0.6,0.6,1.5,1,2.3,1c0,0,0,0,0,0l105.6-0.4c0.9,0,1.7-0.4,2.3-1c0.6-0.7,1-1.5,1-2.4l-0.1-26.3
			c0-1.9-1.5-3.4-3.3-3.4c0,0,0,0,0,0L-183.5,124.5z"/>
		<path class="st42" d="M-182.9,123.1l104.3-0.4c2.8,0,5.2,2.3,5.2,5.2l0.1,25.5c0,2.9-2.3,5.2-5.2,5.2l-104.3,0.4
			c-2.8,0-5.2-2.3-5.2-5.2l-0.1-25.5C-188.1,125.5-185.7,123.2-182.9,123.1z"/>
		<path class="st43" d="M-182.9,123.1l30.7-0.1l0.1,35.9l-30.7,0.1c-2.8,0-5.2-2.3-5.2-5.2l-0.1-25.5
			C-188.1,125.5-185.7,123.2-182.9,123.1z"/>
		<polygon class="st6" points="-156.6,143.7 -161.3,152.1 -177.4,152.1 -182.3,143.8 -174.3,129.9 -164.7,129.8 		"/>
		<polygon class="st7" points="-165.1,130.9 -176.7,151.1 -181.1,143.6 -173.8,130.9 		"/>
		<polygon class="st7" points="-171.2,143.5 -157.8,143.5 -162.1,151 -175.5,151.1 		"/>
		<polygon class="st2" points="-164.5,131.9 -158.4,142.5 -167.1,142.5 -168.9,139.4 		"/>
		<g>
			<path class="st8" d="M-135.1,138.3c0,1.1-0.3,2-0.9,2.8c-0.6,0.8-1.4,1.3-2.4,1.7l3.7,6.2l-2.7,0l-3.4-5.9l-2.7,0l0,5.9l-2.5,0
				l-0.1-15.4l5.6,0c0.8,0,1.6,0.1,2.3,0.4c0.7,0.2,1.2,0.6,1.7,1c0.5,0.4,0.8,0.9,1,1.5C-135.2,137-135.1,137.6-135.1,138.3z
				 M-137.5,138.3c0-0.8-0.2-1.4-0.7-1.8c-0.5-0.5-1.2-0.7-2.1-0.7l-3.2,0l0,5.1l3.1,0c0.9,0,1.6-0.2,2.1-0.7
				C-137.8,139.7-137.5,139.1-137.5,138.3z"/>
			<path class="st8" d="M-132.4,133.6l9.7,0l0,2.2l-7.3,0l0,4.3l6.8,0l0,2.1l-6.8,0l0,4.7l7.4,0l0,2.1l-9.8,0L-132.4,133.6z"/>
			<path class="st8" d="M-119.9,133.5l9.5,0l0,2.2l-7.1,0l0,4.4l6.6,0l0,2.2l-6.6,0l0,6.6l-2.4,0L-119.9,133.5z"/>
			<path class="st8" d="M-101.8,149.1c-0.9,0-1.8-0.1-2.5-0.4c-0.7-0.3-1.4-0.7-1.9-1.2c-0.5-0.5-0.9-1.2-1.2-2
				c-0.3-0.8-0.4-1.8-0.4-2.9l0-9.2l2.5,0l0,9.2c0,1.4,0.3,2.5,0.9,3.2c0.6,0.7,1.5,1.1,2.6,1.1c1.1,0,2-0.4,2.6-1.1
				c0.6-0.7,0.9-1.8,0.9-3.2l0-9.2l2.5,0l0,9.2c0,1.1-0.1,2.1-0.4,2.9c-0.3,0.8-0.7,1.5-1.2,2c-0.5,0.5-1.1,0.9-1.9,1.2
				C-100,149-100.9,149.1-101.8,149.1z"/>
			<path class="st8" d="M-82.9,133.4l2.5,0l0.1,15.4l-2.5,0l-5.7-9.3c-0.3-0.5-0.6-1.1-0.9-1.6c-0.3-0.6-0.5-1.1-0.6-1.6l-0.1,0
				c0.1,0.6,0.2,1.2,0.2,1.8c0,0.6,0.1,1.3,0.1,1.8l0,8.9l-2.5,0l-0.1-15.4l2.7,0l5.6,9.3c0.3,0.5,0.6,1.1,0.9,1.6
				c0.3,0.6,0.5,1.1,0.7,1.6l0,0c-0.1-0.6-0.2-1.2-0.2-1.8c0-0.6-0.1-1.3-0.1-1.8L-82.9,133.4z"/>
		</g>
	</g>
	<g>
		<path class="st15" d="M-173,47.8c0-1.2,0.4-2.1,1.1-2.8c0.7-0.6,1.8-1,3.3-1c1.5,0,2.6,0.3,3.3,1c0.7,0.6,1.1,1.6,1.1,2.8V54h-2
			v-6.3c0-1.3-0.8-2-2.4-2c-0.8,0-1.4,0.2-1.8,0.5c-0.4,0.3-0.6,0.8-0.6,1.5v2c0.5-0.4,1.2-0.6,1.9-0.6h1.2l0.1,1.6h-1.3
			c-0.7,0-1.3,0.2-1.8,0.6V54h-2V47.8z"/>
		<path class="st15" d="M-162.3,45.7h1.7v0.9h2.6l-0.1,1.5h-4.2V45.7z M-162.3,50.6h1.7v0.9h2.6l-0.1,1.4h-4.2V50.6z"/>
		<path class="st15" d="M-156.1,52.1v-7.8h2v7.4c0,0.3,0.1,0.5,0.2,0.6c0.1,0.1,0.3,0.2,0.6,0.2h0.7V54h-1.6
			C-155.5,54-156.1,53.3-156.1,52.1z M-151.8,52.1v-7.8h1.9v7.4c0,0.3,0.1,0.5,0.2,0.6c0.1,0.1,0.3,0.2,0.6,0.2h0.7V54h-1.6
			C-151.1,54-151.8,53.3-151.8,52.1z"/>
		<path class="st15" d="M-145.5,53.2c-0.6-0.6-0.9-1.5-0.9-2.6v-6.4h2v6.3c0,0.7,0.2,1.2,0.5,1.6c0.3,0.3,0.8,0.5,1.5,0.5
			c0.5,0,1-0.1,1.5-0.3s0.9-0.5,1.2-0.8v-7.2h1.9V54h-1.8l-0.1-1.1c-1,0.8-2.1,1.2-3.4,1.2C-144.1,54.1-144.9,53.8-145.5,53.2z"/>
		<path class="st15" d="M-134.6,53.2c-0.6-0.6-0.9-1.5-0.9-2.6v-6.4h2v6.3c0,0.7,0.2,1.2,0.5,1.6c0.3,0.3,0.8,0.5,1.5,0.5
			c0.5,0,1-0.1,1.5-0.3s0.9-0.5,1.2-0.8v-7.2h1.9V54h-1.8l-0.1-1.1c-1,0.8-2.1,1.2-3.4,1.2C-133.2,54.1-134.1,53.8-134.6,53.2z"/>
		<path class="st15" d="M-124,53.4c-0.6-0.5-0.9-1.2-0.9-2.3c0-1,0.3-1.7,1-2.2c0.6-0.5,1.6-0.8,2.8-0.8h3v-0.6
			c0-0.7-0.2-1.2-0.5-1.5c-0.4-0.3-1-0.4-2-0.4c-1.1,0-2.2,0.2-3.2,0.5v-1.5c0.5-0.2,1-0.3,1.7-0.4c0.6-0.1,1.2-0.2,1.8-0.2
			c0.6,0,1.1,0.1,1.7,0.2h3.3l-0.1,1.5h-1.1c0.2,0.3,0.3,0.5,0.3,0.9s0.1,0.7,0.1,1.1V54h-1.9v-4.3h-2.9c-0.7,0-1.2,0.1-1.5,0.3
			s-0.5,0.6-0.5,1.2c0,0.5,0.1,0.9,0.4,1.1c0.3,0.2,0.8,0.3,1.5,0.3c0.5,0,0.9,0,1.2-0.1v1.5c-0.5,0.1-1.1,0.2-1.7,0.2
			C-122.6,54.1-123.4,53.9-124,53.4z"/>
		<path class="st15" d="M-114.1,45.7h1.7v0.9h2.6l-0.1,1.5h-4.2V45.7z M-114.1,50.6h1.7v0.9h2.6l-0.1,1.4h-4.2V50.6z"/>
		<path class="st15" d="M-107.3,53.4c-0.6-0.5-0.9-1.2-0.9-2.3c0-1,0.3-1.7,1-2.2c0.6-0.5,1.6-0.8,2.8-0.8h3v-0.6
			c0-0.7-0.2-1.2-0.5-1.5c-0.4-0.3-1-0.4-2-0.4c-1.1,0-2.2,0.2-3.2,0.5v-1.5c0.5-0.2,1-0.3,1.7-0.4c0.6-0.1,1.2-0.2,1.8-0.2
			c0.6,0,1.1,0.1,1.7,0.2h3.3l-0.1,1.5h-1.1c0.2,0.3,0.3,0.5,0.3,0.9s0.1,0.7,0.1,1.1V54h-1.9v-4.3h-2.9c-0.7,0-1.2,0.1-1.5,0.3
			s-0.5,0.6-0.5,1.2c0,0.5,0.1,0.9,0.4,1.1c0.3,0.2,0.8,0.3,1.5,0.3c0.5,0,0.9,0,1.2-0.1v1.5c-0.5,0.1-1.1,0.2-1.7,0.2
			C-105.9,54.1-106.7,53.9-107.3,53.4z"/>
		<path class="st15" d="M-93.5,53.8c-0.5-0.2-1.1-0.5-1.5-0.9l-0.1,1.1h-1.8v-9.7h2v7.2c0.3,0.3,0.7,0.6,1.2,0.8
			c0.5,0.2,1,0.3,1.5,0.3c0.7,0,1.2-0.2,1.5-0.5c0.3-0.3,0.5-0.8,0.5-1.6v-6.3h1.9v6.4c0,1.1-0.3,2-0.9,2.6
			c-0.6,0.6-1.4,0.9-2.4,0.9C-92.4,54.1-93,54-93.5,53.8z"/>
	</g>
	<g>
		<path class="st15" d="M-170.2,73.2l-6.9,1.2v-6l14.1-2.2v43.4h-7.2V73.2z"/>
		<path class="st15" d="M-149.6,109.7c-2.2-0.3-4-0.8-5.4-1.4V102c1.5,0.7,3.2,1.2,5.2,1.5c2,0.4,3.9,0.5,5.7,0.5
			c3.5,0,6-0.6,7.6-1.8c1.6-1.2,2.4-3.1,2.4-5.8c0-2.6-0.6-4.4-1.8-5.6c-1.2-1.2-3.4-1.7-6.7-1.7h-12.6v-4.4l1.1-18h24.3l-0.6,5.6
			H-148l-0.7,11.2h7.2c5,0,8.8,1.1,11.1,3.2c2.4,2.1,3.6,5.4,3.6,9.8c0,4.3-1.4,7.6-4.2,10s-6.8,3.6-12.2,3.6
			C-145.3,110.2-147.4,110-149.6,109.7z"/>
		<path class="st15" d="M-115.9,105.1c-3-3.8-4.5-9.2-4.5-16.4c0-7.4,1.5-13.1,4.4-16.9c2.9-3.8,7.7-5.7,14.4-5.7
			c6.6,0,11.4,1.9,14.3,5.7c2.9,3.8,4.4,9.4,4.4,16.9c0,7.2-1.5,12.6-4.5,16.4c-3,3.8-7.7,5.6-14.2,5.6
			C-108.2,110.7-112.9,108.9-115.9,105.1z M-92.9,100.5c1.8-2.7,2.7-6.6,2.7-11.8c0-5.5-0.9-9.6-2.6-12.3c-1.7-2.7-4.7-4.1-8.8-4.1
			c-4.2,0-7.2,1.4-8.9,4.1c-1.7,2.7-2.6,6.8-2.6,12.3c0,5.2,0.9,9.2,2.7,11.9c1.8,2.7,4.7,4,8.8,4
			C-97.5,104.6-94.6,103.2-92.9,100.5z"/>
	</g>
	<g>
		<defs>
			<path id="SVGID_13_" d="M-130.7,200L-130.7,200c-55.2,0-100-44.8-100-100V100c0-55.2,44.8-100,100-100l0,0
				c55.2,0,100,44.8,100,100v0.1C-30.7,155.2-75.5,200-130.7,200z"/>
		</defs>
		<clipPath id="SVGID_14_">
			<use xlink:href="#SVGID_13_"  style="overflow:visible;"/>
		</clipPath>
		<path class="st44" d="M-94.5,154.6c-1.6,0.6-2.5,2.5-4.2,2.5c-1.8,0-3.8-0.1-5.4,0.7c-1.5,0.7-1.8,1.8-3.4,1.7
			c-1.7-0.1-5.7,1-7.2,1.7c-1.8-5-2.5-8.8-5.5-13.2c-2.1-3.2-4.2-5.3-8.2-3.7c-4.8,1.9-3.7,6.7-2.2,11c2.7,7.8,5.7,15.5,8.6,23.2
			c-1.8,0.6-5.9,1.9-5.1,4.1c0.7,1.8,1.3,3.6,2,5.4c1.3,3.5,2.7,7.1,3.9,10.7c1.6,4.2,4.1,5.8,8.8,7.3c1.6,0.5,3.5,0.9,5,1.7
			c1.3,2.4,2,5,2.7,7.6c1.1,3.9,2.2,8.7,5.7,11.1c2.8,1.9,6.4,1.9,9.7,1.5c6.8-0.8,12.3-4.9,15.6-9.7c2.6-3.7,0.3-8.1-1.5-11.9
			c-1.6-3.7-4.2-8.7-3.2-12.9c0.3-1.4,2.2-3.4,2.7-4.8c0.8-2.5,0-3.8-0.9-6.2c-1.5-4.3-2.9-8.6-4.4-12.8
			C-83,163.1-84.8,151-94.5,154.6"/>
	</g>
	<path class="st30" d="M166,78.1H34c-1.2,0-2.4-0.5-3.2-1.2c-1-0.9-1.6-2.2-1.6-3.6v0c0-0.8,0.2-1.6,0.6-2.3
		c0.8-1.5,2.4-2.6,4.3-2.6h132c1.8,0,3.5,1,4.3,2.6c0.4,0.7,0.6,1.4,0.6,2.3v0c0,1.4-0.6,2.7-1.6,3.6
		C168.4,77.6,167.2,78.1,166,78.1z"/>
	<path class="st15" d="M166,78.1H34c-1.2,0-2.4-0.5-3.2-1.2c-1-0.9-1.6-2.2-1.6-3.6v0c0-0.8,0.2-1.6,0.6-2.3
		c0.8-1.5,2.4-2.6,4.3-2.6h132c1.8,0,3.5,1,4.3,2.6c0.4,0.7,0.6,1.4,0.6,2.3v0c0,1.4-0.6,2.7-1.6,3.6
		C168.4,77.6,167.2,78.1,166,78.1z"/>
	<path class="st3" d="M166,79.6H34c-1.6,0-3.1-0.6-4.3-1.6c-1.4-1.2-2.1-3-2.1-4.8c0-1,0.3-2.1,0.7-3c1.1-2.1,3.3-3.4,5.7-3.4h132
		c2.4,0,4.5,1.3,5.7,3.4c0.5,0.9,0.7,2,0.7,3c0,1.8-0.8,3.6-2.1,4.8C169.1,79.1,167.6,79.6,166,79.6z M34,70c-1.2,0-2.3,0.7-2.9,1.7
		c-0.2,0.5-0.4,1-0.4,1.5c0,0.9,0.4,1.8,1.1,2.4c0.6,0.5,1.4,0.8,2.2,0.8h132c0.8,0,1.6-0.3,2.2-0.8c0.7-0.6,1.1-1.5,1.1-2.4
		c0-0.5-0.1-1-0.4-1.5c-0.6-1.1-1.7-1.7-2.9-1.7H34z"/>
	<polygon class="st17" points="45.9,89.8 49.1,86.6 52.3,89.8 55.5,86.6 58.7,89.8 61.9,86.6 65,89.8 68.2,86.6 71.4,89.8 
		74.6,86.6 77.8,89.8 81,86.6 84.2,89.8 87.4,86.6 90.6,89.8 93.8,86.6 97,89.8 100.2,86.6 103.4,89.8 106.6,86.6 109.7,89.8 
		112.9,86.6 116.1,89.8 119.3,86.6 122.5,89.8 125.7,86.6 128.9,89.8 132.1,86.6 135.3,89.8 138.5,86.6 141.7,89.8 144.9,86.6 
		148.1,89.8 151.2,86.7 151.2,70 42.8,70 42.8,86.7 	"/>
	<polygon class="st8" points="48.9,89.8 52.1,86.6 55.3,89.8 58.5,86.6 61.7,89.8 64.9,86.6 68.1,89.8 71.3,86.6 74.5,89.8 
		77.7,86.6 80.8,89.8 84,86.6 87.2,89.8 90.4,86.6 93.6,89.8 96.8,86.6 100,89.8 103.2,86.6 106.4,89.8 109.6,86.6 112.8,89.8 
		116,86.6 119.2,89.8 122.3,86.6 125.5,89.8 128.7,86.6 131.9,89.8 135.1,86.6 138.3,89.8 141.5,86.6 144.7,89.8 147.9,86.6 
		151.1,89.8 154.2,86.7 154.2,70 45.8,70 45.8,86.7 	"/>
	<rect x="45.8" y="70" class="st31" width="108.4" height="4.2"/>
	<polygon class="st17" points="148.1,96.6 144.9,93.3 141.7,96.6 138.5,93.3 135.3,96.6 132.1,93.3 128.9,96.6 125.7,93.3 
		122.5,96.6 119.3,93.3 116.1,96.6 112.9,93.3 109.7,96.6 106.6,93.3 103.4,96.6 100.2,93.3 97,96.6 93.8,93.3 90.6,96.6 87.4,93.3 
		84.2,96.6 81,93.3 77.8,96.6 74.6,93.3 71.4,96.6 68.2,93.3 65,96.6 61.9,93.3 58.7,96.6 55.5,93.3 52.3,96.6 49.1,93.3 45.9,96.6 
		42.8,93.2 42.8,176.5 45.9,179.6 49.1,176.4 52.3,179.6 55.5,176.4 58.7,179.6 61.9,176.4 65,179.6 68.2,176.4 71.4,179.6 
		74.6,176.4 77.8,179.6 81,176.4 84.2,179.6 87.4,176.4 90.6,179.6 93.8,176.4 97,179.6 100.2,176.4 103.4,179.6 106.6,176.4 
		109.7,179.6 112.9,176.4 116.1,179.6 119.3,176.4 122.5,179.6 125.7,176.4 128.9,179.6 132.1,176.4 135.3,179.6 138.5,176.4 
		141.7,179.6 144.9,176.4 148.1,179.6 151.2,176.5 151.2,93.2 	"/>
	<polygon class="st8" points="151.1,96.6 147.9,93.3 144.7,96.6 141.5,93.3 138.3,96.6 135.1,93.3 131.9,96.6 128.7,93.3 
		125.5,96.6 122.3,93.3 119.2,96.6 116,93.3 112.8,96.6 109.6,93.3 106.4,96.6 103.2,93.3 100,96.6 96.8,93.3 93.6,96.6 90.4,93.3 
		87.2,96.6 84,93.3 80.8,96.6 77.7,93.3 74.5,96.6 71.3,93.3 68.1,96.6 64.9,93.3 61.7,96.6 58.5,93.3 55.3,96.6 52.1,93.3 
		48.9,96.6 45.8,93.2 45.8,176.5 48.9,179.6 52.1,176.4 55.3,179.6 58.5,176.4 61.7,179.6 64.9,176.4 68.1,179.6 71.3,176.4 
		74.5,179.6 77.7,176.4 80.8,179.6 84,176.4 87.2,179.6 90.4,176.4 93.6,179.6 96.8,176.4 100,179.6 103.2,176.4 106.4,179.6 
		109.6,176.4 112.8,179.6 116,176.4 119.2,179.6 122.3,176.4 125.5,179.6 128.7,176.4 131.9,179.6 135.1,176.4 138.3,179.6 
		141.5,176.4 144.7,179.6 147.9,176.4 151.1,179.6 154.2,176.5 154.2,93.2 	"/>
	<path class="st16" d="M166.4,41.6H32c-2.4,0-4.4,2-4.4,4.4v14.3h143.3V46C170.8,43.6,168.9,41.6,166.4,41.6z"/>
	<g>
		<path class="st8" d="M62.2,53.5v-2.4c0-0.4,0.1-0.7,0.2-0.9c0.1-0.2,0.3-0.5,0.6-0.8c0.2-0.2,0.3-0.3,0.3-0.4
			c0.1-0.1,0.1-0.2,0.1-0.3c0-0.2-0.1-0.3-0.2-0.4c-0.1-0.1-0.3-0.1-0.5-0.1c-0.4,0-0.8,0.1-1.1,0.3v-0.8c0.2-0.1,0.4-0.2,0.7-0.3
			c0.3-0.1,0.5-0.1,0.8-0.1c0.5,0,0.9,0.1,1.1,0.3c0.2,0.2,0.4,0.5,0.4,0.9c0,0.2-0.1,0.4-0.2,0.6c-0.1,0.2-0.3,0.4-0.5,0.6
			c-0.2,0.3-0.4,0.5-0.5,0.7c-0.1,0.2-0.2,0.4-0.2,0.7v2.1c0,0.2,0,0.3,0.1,0.4c0.1,0.1,0.2,0.1,0.4,0.1h0.5v0.9h-1
			C62.5,54.6,62.2,54.3,62.2,53.5z"/>
		<path class="st8" d="M66.2,54.2c-0.5-0.4-0.7-1-0.7-1.7V49h1.1v3.5c0,0.5,0.1,0.8,0.4,1c0.2,0.2,0.6,0.3,1.1,0.3
			c0.5,0,0.8-0.1,1.1-0.3c0.2-0.2,0.4-0.6,0.4-1V49h1.1v3.5c0,0.8-0.2,1.3-0.7,1.7c-0.4,0.4-1.1,0.6-1.9,0.6
			C67.3,54.7,66.6,54.5,66.2,54.2z"/>
		<path class="st8" d="M72.1,53.5V49h1.1v4.3c0,0.2,0,0.3,0.1,0.4c0.1,0.1,0.2,0.1,0.4,0.1h0.5v0.9h-1
			C72.5,54.6,72.1,54.3,72.1,53.5z"/>
		<path class="st8" d="M75.8,54.3c-0.4-0.3-0.5-0.7-0.5-1.3c0-0.6,0.2-1,0.6-1.3c0.4-0.3,0.9-0.5,1.6-0.5h1.7v-0.4
			c0-0.4-0.1-0.7-0.3-0.9c-0.2-0.2-0.6-0.2-1.2-0.2c-0.7,0-1.3,0.1-1.9,0.3v-0.9c0.3-0.1,0.6-0.2,1-0.2s0.7-0.1,1.1-0.1
			c0.3,0,0.7,0,1,0.1h1.9l-0.1,0.9h-0.7c0.1,0.1,0.2,0.3,0.2,0.5s0.1,0.4,0.1,0.6v3.6h-1.1v-2.5h-1.7c-0.4,0-0.7,0.1-0.9,0.2
			c-0.2,0.1-0.3,0.4-0.3,0.7c0,0.3,0.1,0.5,0.3,0.6c0.2,0.1,0.5,0.2,0.9,0.2c0.3,0,0.5,0,0.7-0.1v0.9c-0.3,0.1-0.6,0.1-1,0.1
			C76.6,54.7,76.2,54.6,75.8,54.3z"/>
		<path class="st8" d="M82.7,54.7c-0.3,0-0.6-0.1-0.8-0.2v-1c0.3,0.1,0.5,0.2,0.9,0.2c0.3,0.1,0.6,0.1,0.9,0.1c0.5,0,0.9,0,1.1-0.1
			s0.3-0.3,0.3-0.5c0-0.2,0-0.3-0.1-0.4c-0.1-0.1-0.2-0.2-0.3-0.2c-0.1-0.1-0.4-0.1-0.7-0.2l-0.4-0.1c-0.6-0.2-1-0.4-1.3-0.6
			c-0.3-0.2-0.4-0.6-0.4-1c0-0.5,0.2-0.9,0.6-1.2c0.4-0.3,1-0.4,1.7-0.4c0.3,0,0.6,0,0.9,0.1c0.3,0,0.6,0.1,0.8,0.2V50
			c-0.2-0.1-0.5-0.2-0.8-0.2s-0.6-0.1-0.8-0.1c-0.4,0-0.8,0-1,0.1c-0.2,0.1-0.3,0.3-0.3,0.5c0,0.1,0,0.3,0.1,0.4s0.2,0.2,0.4,0.2
			s0.4,0.2,0.7,0.3l0.3,0.1c0.6,0.2,1,0.4,1.3,0.7c0.3,0.2,0.4,0.6,0.4,1.1c0,0.5-0.2,0.9-0.6,1.2c-0.4,0.3-1,0.4-1.7,0.4
			C83.4,54.7,83.1,54.7,82.7,54.7z"/>
		<path class="st8" d="M81.9,47.8c-0.2-0.2-0.4-0.5-0.4-0.9c0-0.4,0.1-0.7,0.4-0.9c0.2-0.2,0.6-0.3,1-0.3h2.6l-0.1,0.7H83
			c-0.2,0-0.4,0-0.5,0.1c-0.1,0.1-0.2,0.2-0.2,0.5c0,0.4,0.2,0.6,0.6,0.6c0.4,0,0.6-0.1,0.6-0.4v-0.2h0.7V47c0,0.1,0,0.3,0.1,0.3
			c0.1,0.1,0.2,0.1,0.4,0.1h0.7v0.7h-0.7c-0.2,0-0.3,0-0.5-0.1c-0.1-0.1-0.2-0.1-0.3-0.2c-0.1,0.1-0.2,0.2-0.4,0.3s-0.4,0.1-0.6,0.1
			C82.4,48.1,82.1,48,81.9,47.8z"/>
		<path class="st8" d="M89.1,54.7c-0.2,0-0.3-0.1-0.4-0.1l-0.8-2.2h-0.7l0.1-0.9h1.4l0.9,2.3c0.5,0,0.9-0.1,1.2-0.5s0.5-0.9,0.5-1.6
			c0-0.5-0.1-0.9-0.2-1.2c-0.1-0.3-0.3-0.5-0.6-0.6c-0.3-0.1-0.7-0.2-1.2-0.2c-0.6,0-1.2,0.1-1.8,0.3v-0.9c0.7-0.2,1.4-0.3,2.1-0.3
			c1,0,1.7,0.2,2.2,0.7s0.7,1.2,0.7,2.2c0,0.6-0.1,1.2-0.4,1.6c-0.2,0.5-0.6,0.8-0.9,1c-0.4,0.2-0.8,0.3-1.3,0.3
			C89.5,54.7,89.3,54.7,89.1,54.7z"/>
		<path class="st8" d="M97.6,53.7c-0.2-0.7-0.3-1.5-0.3-2.2s0.1-1.5,0.3-2.2c0.2-0.7,0.6-1.3,1.1-1.7h1.3c-1,0.9-1.6,2.2-1.6,4
			s0.5,3.1,1.6,3.9h-1.3C98.2,55,97.8,54.4,97.6,53.7z"/>
		<path class="st8" d="M101,47.9h3.1c0.7,0,1.3,0.2,1.6,0.6c0.4,0.4,0.5,0.9,0.5,1.6c0,0.5-0.1,0.9-0.4,1.2c-0.2,0.3-0.6,0.6-1,0.7
			c0.1,0.1,0.2,0.2,0.3,0.3c0.1,0.1,0.1,0.2,0.2,0.4l0.9,2h-1.2l-0.8-1.9c-0.1-0.2-0.2-0.3-0.3-0.4c-0.1-0.1-0.3-0.1-0.5-0.1h-1.3
			v2.4H101V47.9z M103.8,51.3c0.9,0,1.3-0.4,1.3-1.3c0-0.8-0.4-1.3-1.2-1.3h-1.8v2.6H103.8z"/>
		<path class="st8" d="M107.5,47.9h4.7v0.9h-3.6v2.1h3.2v0.9h-3.2v2.1h3.6v0.9h-4.7V47.9z"/>
		<path class="st8" d="M113.5,53.8c-0.6-0.6-0.9-1.4-0.9-2.5c0-1.1,0.3-2,0.8-2.7c0.6-0.6,1.4-0.9,2.5-0.9c0.7,0,1.4,0.1,2,0.3v1
			c-0.6-0.2-1.2-0.3-1.9-0.3c-0.8,0-1.4,0.2-1.8,0.7c-0.4,0.4-0.5,1.1-0.5,2c0,0.8,0.2,1.4,0.6,1.8s1,0.6,1.8,0.6
			c0.7,0,1.3-0.1,1.9-0.3v1c-0.6,0.2-1.3,0.3-2,0.3C114.9,54.7,114,54.4,113.5,53.8z"/>
		<path class="st8" d="M119.2,47.9h4.7v0.9h-3.6v2.1h3.2v0.9h-3.2v2.1h3.6v0.9h-4.7V47.9z"/>
		<path class="st8" d="M125.1,47.9h1.1v6.8h-1.1V47.9z"/>
		<path class="st8" d="M127.6,47.9h3c0.8,0,1.3,0.2,1.7,0.6c0.4,0.4,0.6,1,0.6,1.6c0,0.7-0.2,1.2-0.6,1.6s-1,0.6-1.7,0.6h-1.8v2.3
			h-1.1V47.9z M130.4,51.4c0.4,0,0.8-0.1,1-0.4s0.4-0.6,0.4-1c0-0.4-0.1-0.8-0.3-1s-0.6-0.4-1-0.4h-1.7v2.7H130.4z"/>
		<path class="st8" d="M135.4,48.8h-2.2v-0.9h5.5v0.9h-2.2v5.9h-1.1V48.8z"/>
		<path class="st8" d="M140.5,53.7c0.2-0.7,0.4-1.4,0.4-2.3c0-1.7-0.5-3.1-1.6-4h1.3c0.5,0.4,0.8,1,1.1,1.7c0.2,0.7,0.3,1.5,0.3,2.2
			c0,0.8-0.1,1.5-0.3,2.2c-0.2,0.7-0.6,1.3-1.1,1.7h-1.3C139.9,54.9,140.3,54.4,140.5,53.7z"/>
	</g>
	
		<image style="overflow:visible;" width="287" height="391" xlink:href="9C40AD2.jpg"  transform="matrix(0.2978 0 0 0.2978 242.7783 75.7539)">
	</image>
	<g>
		<path class="st19" d="M113.8,113.1H57c-1.7,0-3.1-1.4-3.1-3.1v0c0-1.7,1.4-3.1,3.1-3.1h56.8c1.7,0,3.1,1.4,3.1,3.1v0
			C116.9,111.8,115.5,113.1,113.8,113.1z"/>
		<path class="st19" d="M141.4,113.1h-14.1c-1.7,0-3.1-1.4-3.1-3.1v0c0-1.7,1.4-3.1,3.1-3.1h14.1c1.7,0,3.1,1.4,3.1,3.1v0
			C144.4,111.8,143.1,113.1,141.4,113.1z"/>
	</g>
	<g>
		<path class="st19" d="M113.8,123.1H57c-1.7,0-3.1-1.4-3.1-3.1v0c0-1.7,1.4-3.1,3.1-3.1h56.8c1.7,0,3.1,1.4,3.1,3.1v0
			C116.9,121.8,115.5,123.1,113.8,123.1z"/>
		<path class="st19" d="M141.4,123.1h-14.1c-1.7,0-3.1-1.4-3.1-3.1v0c0-1.7,1.4-3.1,3.1-3.1h14.1c1.7,0,3.1,1.4,3.1,3.1v0
			C144.4,121.8,143.1,123.1,141.4,123.1z"/>
	</g>
	<g>
		<path class="st19" d="M113.8,133.1H57c-1.7,0-3.1-1.4-3.1-3.1v0c0-1.7,1.4-3.1,3.1-3.1h56.8c1.7,0,3.1,1.4,3.1,3.1v0
			C116.9,131.8,115.5,133.1,113.8,133.1z"/>
		<path class="st19" d="M141.4,133.1h-14.1c-1.7,0-3.1-1.4-3.1-3.1v0c0-1.7,1.4-3.1,3.1-3.1h14.1c1.7,0,3.1,1.4,3.1,3.1v0
			C144.4,131.8,143.1,133.1,141.4,133.1z"/>
	</g>
	<g>
		<path class="st19" d="M113.8,143.1H57c-1.7,0-3.1-1.4-3.1-3.1v0c0-1.7,1.4-3.1,3.1-3.1h56.8c1.7,0,3.1,1.4,3.1,3.1v0
			C116.9,141.8,115.5,143.1,113.8,143.1z"/>
		<path class="st19" d="M141.4,143.1h-14.1c-1.7,0-3.1-1.4-3.1-3.1v0c0-1.7,1.4-3.1,3.1-3.1h14.1c1.7,0,3.1,1.4,3.1,3.1v0
			C144.4,141.8,143.1,143.1,141.4,143.1z"/>
	</g>
	<path class="st3" d="M142.2,165.7h-86c-1.2,0-2.2-1-2.2-2.2v-8.7c0-1.2,1-2.2,2.2-2.2h86c1.2,0,2.2,1,2.2,2.2v8.7
		C144.4,164.7,143.4,165.7,142.2,165.7z"/>
</g>
</svg>
