<?xml version="1.0" encoding="utf-8"?>
<!-- Generator: Adobe Illustrator 23.0.3, SVG Export Plug-In . SVG Version: 6.00 Build 0)  -->
<svg version="1.1" xmlns="http://www.w3.org/2000/svg" xmlns:xlink="http://www.w3.org/1999/xlink" x="0px" y="0px"
	 viewBox="0 0 200 200" style="enable-background:new 0 0 200 200;" xml:space="preserve">
<style type="text/css">
	.st0{fill:#FFFFFF;stroke:#231F20;stroke-width:1.1161;stroke-miterlimit:10;}
	.st1{opacity:0.1;fill-rule:evenodd;clip-rule:evenodd;fill:#93D500;}
	.st2{fill-rule:evenodd;clip-rule:evenodd;fill:#93D500;}
	.st3{fill:#93D500;}
	.st4{fill-rule:evenodd;clip-rule:evenodd;fill:#93D500;stroke:#FFFFFF;stroke-width:3.1284;stroke-miterlimit:22.9256;}
	.st5{fill-rule:evenodd;clip-rule:evenodd;fill:#9E9E9F;stroke:#FFFFFF;stroke-width:3.1284;stroke-miterlimit:22.9256;}
	.st6{fill-rule:evenodd;clip-rule:evenodd;fill:#FFFFFF;}
	.st7{fill-rule:evenodd;clip-rule:evenodd;fill:#717171;}
	.st8{fill:#FFFFFF;}
	.st9{fill-rule:evenodd;clip-rule:evenodd;fill:#FAFBFC;}
	.st10{fill:#35CC62;}
	.st11{fill:#3FB401;}
	.st12{fill:#0ECCCC;}
	.st13{fill:#FEB54E;}
	.st14{fill:#FB6557;}
	.st15{fill:#333333;}
	.st16{fill:#666666;}
	.st17{fill:#999999;}
	.st18{fill:#262626;}
	.st19{fill:#E6E6E6;}
	.st20{fill:#FAFAFA;}
	.st21{fill:#FAFBFC;}
	.st22{fill-rule:evenodd;clip-rule:evenodd;fill:#E6E6E6;}
	.st23{fill-rule:evenodd;clip-rule:evenodd;fill:#FB6557;}
	.st24{fill:#E0F3FC;}
	.st25{fill:#CDEBF7;}
	.st26{opacity:0.1;fill:#231F20;}
	.st27{fill:#231F20;stroke:#231F20;stroke-width:0.3;stroke-miterlimit:10;}
	.st28{fill-rule:evenodd;clip-rule:evenodd;fill:#93D500;stroke:#FFFFFF;stroke-width:1.8468;stroke-miterlimit:22.9256;}
	.st29{fill-rule:evenodd;clip-rule:evenodd;fill:#9E9E9F;stroke:#FFFFFF;stroke-width:1.8468;stroke-miterlimit:22.9256;}
	.st30{fill:#2F4D7C;}
	.st31{fill:#EAE8DF;}
	.st32{clip-path:url(#SVGID_2_);fill:#F9CD98;}
	.st33{fill-rule:evenodd;clip-rule:evenodd;fill:#93D500;stroke:#FFFFFF;stroke-width:2.5022;stroke-miterlimit:22.9256;}
	.st34{fill-rule:evenodd;clip-rule:evenodd;fill:#9E9E9F;stroke:#FFFFFF;stroke-width:2.5022;stroke-miterlimit:22.9256;}
	.st35{clip-path:url(#SVGID_4_);fill:#F9CD98;}
	.st36{clip-path:url(#SVGID_6_);fill:#F9CD98;}
	.st37{clip-path:url(#SVGID_8_);fill:#F9CD98;}
	.st38{clip-path:url(#SVGID_10_);fill:#F9CD98;}
	.st39{clip-path:url(#SVGID_12_);fill:#F9CD98;}
	.st40{clip-path:url(#SVGID_14_);fill:#F9CD98;}
	.st41{clip-path:url(#SVGID_16_);}
	.st42{fill:#FFFFFF;stroke:#FFFFFF;stroke-width:0.3526;stroke-miterlimit:10;}
	.st43{opacity:0.2;}
</style>
<g id="Layer_1">
</g>
<g id="Layer_2">
	<path class="st9" d="M100,200L100,200c-55.2,0-100-44.8-100-100V100C0.1,44.8,44.8,0,100,0l0,0c55.2,0,100,44.8,100,100v0.1
		C200,155.2,155.2,200,100,200z"/>
	<g>
		<defs>
			<path id="SVGID_7_" d="M-93.4,320.6L-93.4,320.6c-55.2,0-100-44.8-100-100v-0.1c0-55.2,44.8-100,100-100h0
				c55.2,0,100,44.8,100,100v0.1C6.6,275.9-38.2,320.6-93.4,320.6z"/>
		</defs>
		<clipPath id="SVGID_2_">
			<use xlink:href="#SVGID_7_"  style="overflow:visible;"/>
		</clipPath>
	</g>
	<g>
		<path class="st2" d="M20.3,40h-0.4C8.9,40,0.1,31.1,0.1,20.2v-0.4C0.1,8.9,8.9,0,19.9,0l0.4,0c10.9,0,19.8,8.9,19.8,19.8v0.4
			C40.1,31.1,31.2,40,20.3,40z"/>
		<g>
			<path class="st8" d="M19.8,30.5v-3.8h-9.6v-3.2l9.2-13.7h4.3V23h2.6v3.7h-2.6v3.8H19.8z M19.8,15.7h-0.2L14.6,23h5.2V15.7z"/>
		</g>
	</g>
	<g>
		<defs>
			<path id="SVGID_15_" d="M100,200L100,200C44.8,200,0,155.2,0,100V100C0,44.8,44.8,0,100,0l0,0c55.2,0,100,44.8,100,100v0.1
				C200,155.2,155.2,200,100,200z"/>
		</defs>
		<clipPath id="SVGID_4_">
			<use xlink:href="#SVGID_15_"  style="overflow:visible;"/>
		</clipPath>
		<g style="clip-path:url(#SVGID_4_);">
			<g>
				<path class="st22" d="M138.9,183.2H61.1c-2.8,0-5-2.2-5-5V21.1c0-2.8,2.2-5,5-5h77.7c2.8,0,5,2.2,5,5v157.1
					C143.9,181,141.6,183.2,138.9,183.2z"/>
				<g>
					<path class="st23" d="M70.4,178.2L70.4,178.2c-2,0-3.7-1.6-3.7-3.7V25.8c0-2,1.6-3.7,3.7-3.7h0c2,0,3.7,1.6,3.7,3.7v148.7
						C74.1,176.5,72.4,178.2,70.4,178.2z"/>
					<path class="st23" d="M129.6,178.2L129.6,178.2c-2,0-3.7-1.6-3.7-3.7V25.8c0-2,1.6-3.7,3.7-3.7l0,0c2,0,3.7,1.6,3.7,3.7v148.7
						C133.3,176.5,131.6,178.2,129.6,178.2z"/>
				</g>
			</g>
			<g>
				<path id="XMLID_6_" class="st24" d="M100-45.9c0,0-23.3,0-25.3,0c-2,0-6.6,3.5-7.1,24.8C67.1,0.1,74.2,37,74.2,51.2
					s-6.6,26-6.6,36.2c0,3.5,0,45.3,0,48.3c0,3,2,13.7,6.6,21.2s15.7,17.7,15.7,17.7v5.1H100h10.1v-5.1c0,0,11.1-10.1,15.7-17.7
					c4.6-7.6,6.6-18.2,6.6-21.2c0-3,0-44.8,0-48.3c0-10.1-6.6-22-6.6-36.2s7.1-51.1,6.6-72.3c-0.5-21.2-5.1-24.8-7.1-24.8
					C123.3-45.9,100-45.9,100-45.9z"/>
				<path id="XMLID_5_" class="st25" d="M100-45.9c0,0-23.3,0-25.3,0c-2,0-6.6,3.5-7.1,24.8C67.1,0.1,74.2,37,74.2,51.2
					s-6.6,26-6.6,36.2c0,3.5,0,45.3,0,48.3c0,3,2,13.7,6.6,21.2s15.7,17.7,15.7,17.7v5.1H100V-45.9z"/>
				<path id="XMLID_4_" class="st3" d="M91.6,179.3h16.9c2.2,0,3.9,1.8,3.9,3.9v5.1c0,2.2-1.8,3.9-3.9,3.9H91.6
					c-2.2,0-3.9-1.8-3.9-3.9v-5.1C87.7,181.1,89.4,179.3,91.6,179.3z"/>
				<path id="XMLID_3_" class="st26" d="M100,179.3h-9.2c-1.8,0-3.2,1.2-3.2,2.6v7.8c0,1.4,1.4,2.6,3.2,2.6h9.2V179.3z"/>
				<rect id="XMLID_2_" x="67.7" y="91.8" class="st3" width="64.7" height="43.8"/>
				<rect id="XMLID_1_" x="67.6" y="91.8" class="st26" width="32.4" height="43.8"/>
				<g>
					<polygon class="st42" points="81.5,101.4 90.2,101.4 90.2,100.5 80.6,100.5 80.6,110.3 81.5,110.3 					"/>
					<polygon class="st42" points="81.5,124.5 81.5,116.3 80.6,116.3 80.6,125.4 90.2,125.4 90.2,124.5 					"/>
					<polygon class="st42" points="118.6,124.5 109.8,124.5 109.8,125.4 119.5,125.4 119.5,116.3 118.6,116.3 					"/>
					<polygon class="st42" points="118.6,101.4 118.6,110.3 119.5,110.3 119.5,100.5 109.8,100.5 109.8,101.4 					"/>
					<rect x="85.2" y="104" class="st42" width="0.9" height="18.5"/>
					<rect x="88.4" y="104" class="st42" width="0.9" height="18.5"/>
					<rect x="91.6" y="104" class="st42" width="0.9" height="18.5"/>
					<rect x="94.8" y="104" class="st42" width="0.9" height="18.5"/>
					<rect x="98" y="104" class="st42" width="0.9" height="18.5"/>
					<rect x="101.2" y="104" class="st42" width="0.9" height="18.5"/>
					<rect x="104.4" y="104" class="st42" width="0.9" height="18.5"/>
					<rect x="107.6" y="104" class="st42" width="0.9" height="18.5"/>
					<rect x="110.8" y="104" class="st42" width="0.9" height="18.5"/>
					<rect x="114" y="104" class="st42" width="0.9" height="18.5"/>
				</g>
			</g>
		</g>
	</g>
	<g class="st43">
		<path class="st3" d="M35.5,58.8h27.7c0.9,0,1.6-0.7,1.6-1.6v0c0-0.9-0.7-1.6-1.6-1.6H32.3c-0.9,0-1.6,0.7-1.6,1.6v31.7
			c0,0.9,0.7,1.6,1.6,1.6h0c0.9,0,1.6-0.7,1.6-1.6V60.4C33.9,59.5,34.6,58.8,35.5,58.8z"/>
		<path class="st3" d="M33.9,139.6v-26.2c0-0.9-0.7-1.6-1.6-1.6h0c-0.9,0-1.6,0.7-1.6,1.6v29.5c0,0.9,0.7,1.6,1.6,1.6h30.9
			c0.9,0,1.6-0.7,1.6-1.6l0,0c0-0.9-0.7-1.6-1.6-1.6H35.5C34.6,141.2,33.9,140.5,33.9,139.6z"/>
		<path class="st3" d="M164.5,141.2h-28.1c-0.9,0-1.6,0.7-1.6,1.6l0,0c0,0.9,0.7,1.6,1.6,1.6h31.4c0.9,0,1.6-0.7,1.6-1.6v-29.5
			c0-0.9-0.7-1.6-1.6-1.6h0c-0.9,0-1.6,0.7-1.6,1.6v26.2C166.1,140.5,165.4,141.2,164.5,141.2z"/>
		<path class="st3" d="M166.1,60.4v28.4c0,0.9,0.7,1.6,1.6,1.6h0c0.9,0,1.6-0.7,1.6-1.6V57.2c0-0.9-0.7-1.6-1.6-1.6h-31.4
			c-0.9,0-1.6,0.7-1.6,1.6v0c0,0.9,0.7,1.6,1.6,1.6h28.1C165.4,58.8,166.1,59.5,166.1,60.4z"/>
		<path class="st3" d="M48.8,134L48.8,134c-0.9,0-1.6-0.7-1.6-1.6V69.8c0-0.9,0.7-1.6,1.6-1.6h0c0.9,0,1.6,0.7,1.6,1.6v62.5
			C50.4,133.2,49.7,134,48.8,134z"/>
		<path class="st3" d="M60.2,134L60.2,134c-0.9,0-1.6-0.7-1.6-1.6V69.8c0-0.9,0.7-1.6,1.6-1.6l0,0c0.9,0,1.6,0.7,1.6,1.6v62.5
			C61.8,133.2,61.1,134,60.2,134z"/>
		<path class="st3" d="M71.6,134L71.6,134c-0.9,0-1.6-0.7-1.6-1.6V69.8c0-0.9,0.7-1.6,1.6-1.6l0,0c0.9,0,1.6,0.7,1.6,1.6v62.5
			C73.2,133.2,72.5,134,71.6,134z"/>
		<path class="st3" d="M83,134L83,134c-0.9,0-1.6-0.7-1.6-1.6V69.8c0-0.9,0.7-1.6,1.6-1.6l0,0c0.9,0,1.6,0.7,1.6,1.6v62.5
			C84.6,133.2,83.8,134,83,134z"/>
		<path class="st3" d="M94.3,134L94.3,134c-0.9,0-1.6-0.7-1.6-1.6V69.8c0-0.9,0.7-1.6,1.6-1.6h0c0.9,0,1.6,0.7,1.6,1.6v62.5
			C96,133.2,95.2,134,94.3,134z"/>
		<path class="st3" d="M105.7,134L105.7,134c-0.9,0-1.6-0.7-1.6-1.6V69.8c0-0.9,0.7-1.6,1.6-1.6h0c0.9,0,1.6,0.7,1.6,1.6v62.5
			C107.3,133.2,106.6,134,105.7,134z"/>
		<path class="st3" d="M117.1,134L117.1,134c-0.9,0-1.6-0.7-1.6-1.6V69.8c0-0.9,0.7-1.6,1.6-1.6l0,0c0.9,0,1.6,0.7,1.6,1.6v62.5
			C118.7,133.2,118,134,117.1,134z"/>
		<path class="st3" d="M128.5,134L128.5,134c-0.9,0-1.6-0.7-1.6-1.6V69.8c0-0.9,0.7-1.6,1.6-1.6h0c0.9,0,1.6,0.7,1.6,1.6v62.5
			C130.1,133.2,129.4,134,128.5,134z"/>
		<path class="st3" d="M139.9,134L139.9,134c-0.9,0-1.6-0.7-1.6-1.6V69.8c0-0.9,0.7-1.6,1.6-1.6l0,0c0.9,0,1.6,0.7,1.6,1.6v62.5
			C141.5,133.2,140.8,134,139.9,134z"/>
		<path class="st3" d="M151.3,134L151.3,134c-0.9,0-1.6-0.7-1.6-1.6V69.8c0-0.9,0.7-1.6,1.6-1.6h0c0.9,0,1.6,0.7,1.6,1.6v62.5
			C152.9,133.2,152.2,134,151.3,134z"/>
	</g>
</g>
</svg>
